<?xml version="1.0" encoding="UTF-8" standalone="no"?><!DOCTYPE svg PUBLIC "-//W3C//DTD SVG 1.1//EN" "http://www.w3.org/Graphics/SVG/1.1/DTD/svg11.dtd"><svg width="100%" height="100%" viewBox="0 0 960 100" version="1.1" xmlns="http://www.w3.org/2000/svg" xmlns:xlink="http://www.w3.org/1999/xlink" xml:space="preserve" xmlns:serif="http://www.serif.com/" style="fill-rule:evenodd;clip-rule:evenodd;stroke-linejoin:round;stroke-miterlimit:1.41421;"><g><g><path d="M284.821,77.687l-1.602,0.246l2.024,8.58l0.292,1.947l0.065,0.01l0.422,-1.957l2.9,-10.185l1.883,0l2.911,10.185l0.432,2l0.065,0l0.314,-2l1.98,-8.58l-1.612,-0.246l0,-1.359l5.01,0l0,1.359l-1.266,0.161l-3.43,14.056l-1.905,0l-3.116,-10.804l-0.281,-1.402l-0.065,0l-0.271,1.402l-3.16,10.804l-1.893,0l-3.431,-14.056l-1.266,-0.161l0,-1.359l5,0l0,1.359Z" style="fill:#4c4c4c;fill-rule:nonzero;"/><path d="M301.16,90.556l1.764,-0.299l0,-8.269l-1.764,-0.3l0,-1.359l3.896,0l0,9.928l1.764,0.299l0,1.348l-5.66,0l0,-1.348Zm3.896,-13.19l-2.132,0l0,-2.15l2.132,0l0,2.15Z" style="fill:#4c4c4c;fill-rule:nonzero;"/><path d="M316.332,90.524c-0.383,0.528 -0.85,0.927 -1.402,1.198c-0.552,0.271 -1.192,0.407 -1.92,0.407c-1.429,0 -2.545,-0.512 -3.35,-1.535c-0.804,-1.024 -1.206,-2.37 -1.206,-4.039l0,-0.224c0,-1.862 0.402,-3.363 1.206,-4.504c0.805,-1.141 1.928,-1.712 3.371,-1.712c0.693,0 1.304,0.127 1.834,0.38c0.531,0.253 0.983,0.619 1.358,1.097l0,-4.718l-1.763,-0.299l0,-1.359l3.895,0l0,15.041l1.764,0.299l0,1.348l-3.614,0l-0.173,-1.38Zm-5.746,-3.969c0,1.163 0.241,2.097 0.725,2.803c0.483,0.706 1.23,1.059 2.24,1.059c0.634,0 1.168,-0.142 1.601,-0.428c0.433,-0.285 0.79,-0.688 1.071,-1.208l0,-5.371c-0.274,-0.485 -0.631,-0.87 -1.071,-1.155c-0.44,-0.285 -0.967,-0.428 -1.58,-0.428c-1.017,0 -1.769,0.417 -2.256,1.252c-0.487,0.834 -0.73,1.918 -0.73,3.252l0,0.224Z" style="fill:#4c4c4c;fill-rule:nonzero;"/><path d="M321.753,86.331c0,-1.862 0.411,-3.363 1.234,-4.504c0.822,-1.141 1.958,-1.712 3.408,-1.712c0.736,0 1.382,0.143 1.937,0.428c0.556,0.286 1.021,0.699 1.396,1.241l0.195,-1.455l1.796,0l0,11.425c0,1.498 -0.422,2.677 -1.266,3.536c-0.844,0.859 -2.045,1.289 -3.603,1.289c-0.563,0 -1.173,-0.077 -1.829,-0.23c-0.656,-0.153 -1.234,-0.362 -1.731,-0.626l0.552,-1.636c0.396,0.206 0.865,0.378 1.406,0.513c0.541,0.136 1.068,0.203 1.58,0.203c0.952,0 1.65,-0.264 2.094,-0.791c0.444,-0.528 0.666,-1.28 0.666,-2.258l0,-1.101c-0.383,0.485 -0.841,0.852 -1.375,1.101c-0.534,0.25 -1.147,0.375 -1.839,0.375c-1.436,0 -2.565,-0.514 -3.387,-1.541c-0.823,-1.027 -1.234,-2.371 -1.234,-4.033l0,-0.224Zm2.132,0.224c0,1.163 0.249,2.097 0.746,2.803c0.498,0.706 1.256,1.059 2.273,1.059c0.642,0 1.179,-0.144 1.612,-0.433c0.433,-0.289 0.79,-0.697 1.072,-1.225l0,-5.327c-0.275,-0.492 -0.632,-0.883 -1.072,-1.172c-0.44,-0.289 -0.97,-0.433 -1.59,-0.433c-1.018,0 -1.779,0.421 -2.284,1.262c-0.505,0.842 -0.757,1.922 -0.757,3.242l0,0.224Z" style="fill:#4c4c4c;fill-rule:nonzero;"/><path d="M339.63,92.129c-1.631,0 -2.928,-0.537 -3.891,-1.61c-0.963,-1.073 -1.444,-2.466 -1.444,-4.178l0,-0.47c0,-1.648 0.496,-3.019 1.488,-4.113c0.992,-1.095 2.166,-1.643 3.522,-1.643c1.573,0 2.765,0.471 3.576,1.413c0.812,0.941 1.218,2.196 1.218,3.765l0,1.316l-7.597,0l-0.032,0.053c0.021,1.113 0.306,2.028 0.855,2.744c0.548,0.717 1.316,1.075 2.305,1.075c0.721,0 1.354,-0.101 1.899,-0.304c0.544,-0.204 1.015,-0.484 1.412,-0.84l0.833,1.369c-0.418,0.399 -0.972,0.736 -1.661,1.011c-0.689,0.275 -1.517,0.412 -2.483,0.412Zm-0.325,-10.355c-0.714,0 -1.324,0.297 -1.829,0.893c-0.505,0.595 -0.815,1.342 -0.931,2.241l0.022,0.053l5.4,0l0,-0.278c0,-0.827 -0.224,-1.519 -0.671,-2.075c-0.447,-0.556 -1.111,-0.834 -1.991,-0.834Z" style="fill:#4c4c4c;fill-rule:nonzero;"/><path d="M349.92,77.537l0,2.792l2.219,0l0,1.562l-2.219,0l0,7.029c0,0.542 0.114,0.923 0.341,1.144c0.227,0.221 0.529,0.332 0.904,0.332c0.187,0 0.398,-0.016 0.633,-0.048c0.234,-0.032 0.431,-0.066 0.59,-0.102l0.292,1.444c-0.202,0.129 -0.498,0.234 -0.888,0.316c-0.389,0.082 -0.779,0.123 -1.168,0.123c-0.866,0 -1.555,-0.259 -2.067,-0.776c-0.512,-0.517 -0.768,-1.328 -0.768,-2.433l0,-7.029l-1.851,0l0,-1.562l1.851,0l0,-2.792l2.131,0Z" style="fill:#4c4c4c;fill-rule:nonzero;"/><path d="M363.274,83.967l-1.602,0l-0.346,-1.391c-0.26,-0.243 -0.586,-0.437 -0.979,-0.583c-0.394,-0.146 -0.839,-0.219 -1.337,-0.219c-0.757,0 -1.32,0.164 -1.688,0.492c-0.368,0.328 -0.552,0.724 -0.552,1.187c0,0.457 0.162,0.817 0.487,1.081c0.325,0.263 0.985,0.499 1.98,0.706c1.479,0.313 2.579,0.74 3.301,1.278c0.721,0.538 1.082,1.261 1.082,2.166c0,1.027 -0.42,1.858 -1.261,2.493c-0.84,0.635 -1.939,0.952 -3.295,0.952c-0.887,0 -1.684,-0.102 -2.391,-0.305c-0.707,-0.203 -1.338,-0.497 -1.894,-0.883l-0.011,-2.642l1.602,0l0.4,1.551c0.245,0.221 0.579,0.382 1.001,0.482c0.422,0.1 0.853,0.149 1.293,0.149c0.758,0 1.351,-0.151 1.78,-0.454c0.43,-0.303 0.644,-0.701 0.644,-1.193c0,-0.464 -0.178,-0.845 -0.536,-1.145c-0.357,-0.299 -1.033,-0.559 -2.028,-0.781c-1.422,-0.306 -2.493,-0.723 -3.214,-1.251c-0.722,-0.528 -1.082,-1.241 -1.082,-2.14c0,-0.941 0.405,-1.743 1.217,-2.407c0.812,-0.663 1.867,-0.995 3.165,-0.995c0.887,0 1.685,0.115 2.392,0.343c0.707,0.228 1.294,0.545 1.763,0.952l0.109,2.557Z" style="fill:#4c4c4c;fill-rule:nonzero;"/><rect x="371.822" y="84.501" width="5.292" height="1.647" style="fill:#4c4c4c;fill-rule:nonzero;"/><path d="M385.057,91.904l0,-1.348l1.763,-0.299l0,-12.27l-1.763,-0.3l0,-1.359l5.659,0l0,1.359l-1.764,0.3l0,12.27l5.476,0l0.162,-1.787l1.818,0l0,3.434l-11.351,0Z" style="fill:#4c4c4c;fill-rule:nonzero;"/><path d="M398.226,90.556l1.764,-0.299l0,-8.269l-1.764,-0.3l0,-1.359l3.895,0l0,9.928l1.764,0.299l0,1.348l-5.659,0l0,-1.348Zm3.895,-13.19l-2.131,0l0,-2.15l2.131,0l0,2.15Z" style="fill:#4c4c4c;fill-rule:nonzero;"/><path d="M409.523,81.688l-1.407,0.214l2.413,6.59l0.195,0.834l0.065,0l0.206,-0.834l2.337,-6.59l-1.418,-0.214l0,-1.359l4.524,0l0,1.359l-0.963,0.16l-3.928,10.056l-1.613,0l-3.971,-10.056l-0.963,-0.16l0,-1.359l4.523,0l0,1.359Z" style="fill:#4c4c4c;fill-rule:nonzero;"/><path d="M423.082,92.129c-1.631,0 -2.927,-0.537 -3.89,-1.61c-0.963,-1.073 -1.445,-2.466 -1.445,-4.178l0,-0.47c0,-1.648 0.496,-3.019 1.488,-4.113c0.992,-1.095 2.166,-1.643 3.522,-1.643c1.573,0 2.765,0.471 3.577,1.413c0.811,0.941 1.217,2.196 1.217,3.765l0,1.316l-7.596,0l-0.033,0.053c0.022,1.113 0.307,2.028 0.855,2.744c0.548,0.717 1.317,1.075 2.305,1.075c0.721,0 1.354,-0.101 1.899,-0.304c0.545,-0.204 1.015,-0.484 1.412,-0.84l0.833,1.369c-0.418,0.399 -0.972,0.736 -1.661,1.011c-0.689,0.275 -1.516,0.412 -2.483,0.412Zm-0.325,-10.355c-0.714,0 -1.324,0.297 -1.829,0.893c-0.505,0.595 -0.815,1.342 -0.93,2.241l0.021,0.053l5.4,0l0,-0.278c0,-0.827 -0.223,-1.519 -0.671,-2.075c-0.447,-0.556 -1.111,-0.834 -1.991,-0.834Z" style="fill:#4c4c4c;fill-rule:nonzero;"/><path d="M439.487,77.687l-1.602,0.246l2.024,8.58l0.292,1.947l0.065,0.01l0.422,-1.957l2.9,-10.185l1.883,0l2.911,10.185l0.432,2l0.065,0l0.314,-2l1.98,-8.58l-1.612,-0.246l0,-1.359l5.01,0l0,1.359l-1.266,0.161l-3.43,14.056l-1.905,0l-3.116,-10.804l-0.281,-1.402l-0.065,0l-0.271,1.402l-3.16,10.804l-1.893,0l-3.431,-14.056l-1.266,-0.161l0,-1.359l5,0l0,1.359Z" style="fill:#4c4c4c;fill-rule:nonzero;"/><path d="M463.109,91.904c-0.065,-0.314 -0.115,-0.595 -0.151,-0.845c-0.036,-0.249 -0.062,-0.499 -0.076,-0.749c-0.411,0.521 -0.925,0.954 -1.542,1.3c-0.617,0.346 -1.275,0.519 -1.975,0.519c-1.219,0 -2.146,-0.294 -2.781,-0.883c-0.635,-0.588 -0.952,-1.417 -0.952,-2.487c0,-1.098 0.449,-1.945 1.347,-2.541c0.898,-0.595 2.13,-0.893 3.695,-0.893l2.197,0l0,-1.348c0,-0.677 -0.216,-1.214 -0.649,-1.61c-0.433,-0.396 -1.035,-0.593 -1.807,-0.593c-0.534,0 -1.005,0.067 -1.412,0.203c-0.408,0.135 -0.738,0.321 -0.991,0.556l-0.227,1.22l-1.645,0l0,-2.247c0.534,-0.421 1.18,-0.758 1.937,-1.011c0.758,-0.253 1.58,-0.38 2.468,-0.38c1.327,0 2.402,0.336 3.224,1.006c0.823,0.67 1.234,1.63 1.234,2.878l0,5.573c0,0.15 0.002,0.296 0.005,0.439c0.004,0.142 0.013,0.285 0.027,0.428l0.866,0.117l0,1.348l-2.792,0Zm-3.43,-1.54c0.707,0 1.352,-0.168 1.937,-0.503c0.584,-0.335 1.003,-0.738 1.255,-1.209l0,-1.904l-2.272,0c-0.873,0 -1.564,0.2 -2.073,0.599c-0.508,0.399 -0.762,0.884 -0.762,1.455c0,0.506 0.158,0.893 0.476,1.161c0.317,0.267 0.797,0.401 1.439,0.401Z" style="fill:#4c4c4c;fill-rule:nonzero;"/><path d="M467.383,76.575l0,-1.359l3.896,0l0,15.041l1.764,0.299l0,1.348l-5.66,0l0,-1.348l1.764,-0.299l0,-13.383l-1.764,-0.299Z" style="fill:#4c4c4c;fill-rule:nonzero;"/><path d="M474.363,76.575l0,-1.359l3.896,0l0,15.041l1.764,0.299l0,1.348l-5.66,0l0,-1.348l1.764,-0.299l0,-13.383l-1.764,-0.299Z" style="fill:#4c4c4c;fill-rule:nonzero;"/><path d="M481.375,94.996l1.764,-0.3l0,-12.708l-1.764,-0.3l0,-1.359l3.593,0l0.195,1.412c0.389,-0.527 0.863,-0.93 1.423,-1.208c0.559,-0.278 1.206,-0.418 1.942,-0.418c1.45,0 2.577,0.569 3.382,1.707c0.804,1.137 1.206,2.64 1.206,4.509l0,0.224c0,1.669 -0.404,3.015 -1.212,4.039c-0.808,1.023 -1.922,1.535 -3.344,1.535c-0.721,0 -1.354,-0.12 -1.899,-0.358c-0.544,-0.239 -1.008,-0.594 -1.39,-1.065l0,3.99l1.764,0.3l0,1.358l-5.66,0l0,-1.358Zm9.598,-8.665c0,-1.32 -0.259,-2.4 -0.779,-3.242c-0.519,-0.841 -1.291,-1.262 -2.315,-1.262c-0.606,0 -1.126,0.136 -1.559,0.407c-0.432,0.271 -0.782,0.641 -1.049,1.112l0,5.638c0.267,0.478 0.615,0.847 1.044,1.107c0.429,0.26 0.958,0.39 1.585,0.39c1.01,0 1.775,-0.363 2.294,-1.091c0.52,-0.727 0.779,-1.672 0.779,-2.835l0,-0.224Z" style="fill:#4c4c4c;fill-rule:nonzero;"/><path d="M502.693,91.904c-0.065,-0.314 -0.116,-0.595 -0.152,-0.845c-0.036,-0.249 -0.061,-0.499 -0.075,-0.749c-0.412,0.521 -0.926,0.954 -1.543,1.3c-0.616,0.346 -1.275,0.519 -1.974,0.519c-1.22,0 -2.147,-0.294 -2.781,-0.883c-0.635,-0.588 -0.953,-1.417 -0.953,-2.487c0,-1.098 0.449,-1.945 1.348,-2.541c0.898,-0.595 2.13,-0.893 3.695,-0.893l2.197,0l0,-1.348c0,-0.677 -0.217,-1.214 -0.65,-1.61c-0.432,-0.396 -1.035,-0.593 -1.807,-0.593c-0.534,0 -1.004,0.067 -1.412,0.203c-0.407,0.135 -0.738,0.321 -0.99,0.556l-0.227,1.22l-1.645,0l0,-2.247c0.534,-0.421 1.179,-0.758 1.937,-1.011c0.757,-0.253 1.58,-0.38 2.467,-0.38c1.328,0 2.402,0.336 3.225,1.006c0.822,0.67 1.233,1.63 1.233,2.878l0,5.573c0,0.15 0.002,0.296 0.006,0.439c0.003,0.142 0.012,0.285 0.027,0.428l0.866,0.117l0,1.348l-2.792,0Zm-3.431,-1.54c0.707,0 1.353,-0.168 1.937,-0.503c0.585,-0.335 1.003,-0.738 1.256,-1.209l0,-1.904l-2.273,0c-0.873,0 -1.563,0.2 -2.072,0.599c-0.509,0.399 -0.763,0.884 -0.763,1.455c0,0.506 0.159,0.893 0.476,1.161c0.318,0.267 0.797,0.401 1.439,0.401Z" style="fill:#4c4c4c;fill-rule:nonzero;"/><path d="M507,94.996l1.763,-0.3l0,-12.708l-1.763,-0.3l0,-1.359l3.592,0l0.195,1.412c0.389,-0.527 0.864,-0.93 1.423,-1.208c0.559,-0.278 1.206,-0.418 1.942,-0.418c1.45,0 2.578,0.569 3.382,1.707c0.804,1.137 1.206,2.64 1.206,4.509l0,0.224c0,1.669 -0.404,3.015 -1.212,4.039c-0.807,1.023 -1.922,1.535 -3.343,1.535c-0.722,0 -1.355,-0.12 -1.899,-0.358c-0.545,-0.239 -1.009,-0.594 -1.391,-1.065l0,3.99l1.764,0.3l0,1.358l-5.659,0l0,-1.358Zm9.598,-8.665c0,-1.32 -0.26,-2.4 -0.779,-3.242c-0.52,-0.841 -1.292,-1.262 -2.316,-1.262c-0.606,0 -1.125,0.136 -1.558,0.407c-0.433,0.271 -0.783,0.641 -1.05,1.112l0,5.638c0.267,0.478 0.615,0.847 1.044,1.107c0.43,0.26 0.958,0.39 1.586,0.39c1.01,0 1.774,-0.363 2.294,-1.091c0.519,-0.727 0.779,-1.672 0.779,-2.835l0,-0.224Z" style="fill:#4c4c4c;fill-rule:nonzero;"/><path d="M526.023,92.129c-1.63,0 -2.927,-0.537 -3.89,-1.61c-0.963,-1.073 -1.445,-2.466 -1.445,-4.178l0,-0.47c0,-1.648 0.496,-3.019 1.488,-4.113c0.992,-1.095 2.166,-1.643 3.522,-1.643c1.573,0 2.765,0.471 3.577,1.413c0.811,0.941 1.217,2.196 1.217,3.765l0,1.316l-7.596,0l-0.033,0.053c0.022,1.113 0.307,2.028 0.855,2.744c0.548,0.717 1.317,1.075 2.305,1.075c0.721,0 1.354,-0.101 1.899,-0.304c0.545,-0.204 1.016,-0.484 1.412,-0.84l0.834,1.369c-0.419,0.399 -0.973,0.736 -1.662,1.011c-0.688,0.275 -1.516,0.412 -2.483,0.412Zm-0.325,-10.355c-0.714,0 -1.323,0.297 -1.828,0.893c-0.505,0.595 -0.816,1.342 -0.931,2.241l0.022,0.053l5.399,0l0,-0.278c0,-0.827 -0.223,-1.519 -0.671,-2.075c-0.447,-0.556 -1.11,-0.834 -1.991,-0.834Z" style="fill:#4c4c4c;fill-rule:nonzero;"/><path d="M532.591,81.688l0,-1.359l3.669,0l0.205,1.68c0.332,-0.592 0.742,-1.056 1.229,-1.391c0.487,-0.335 1.044,-0.503 1.671,-0.503c0.166,0 0.338,0.013 0.514,0.038c0.177,0.025 0.312,0.052 0.406,0.08l-0.281,1.958l-1.212,-0.064c-0.563,0 -1.035,0.13 -1.418,0.39c-0.382,0.26 -0.678,0.626 -0.887,1.097l0,6.643l1.764,0.299l0,1.348l-5.66,0l0,-1.348l1.764,-0.299l0,-8.269l-1.764,-0.3Z" style="fill:#4c4c4c;fill-rule:nonzero;"/><rect x="547.968" y="84.501" width="5.292" height="1.647" style="fill:#4c4c4c;fill-rule:nonzero;"/><path d="M561.029,90.556l1.169,-0.16l5.508,-14.068l1.829,0l5.41,14.068l1.158,0.16l0,1.348l-4.523,0l0,-1.348l1.19,-0.203l-1.039,-2.867l-6.308,0l-1.072,2.867l1.191,0.203l0,1.348l-4.513,0l0,-1.348Zm5.054,-4.835l4.999,0l-2.445,-6.686l-0.065,0l-2.489,6.686Z" style="fill:#4c4c4c;fill-rule:nonzero;"/><path d="M577.369,94.996l1.764,-0.3l0,-12.708l-1.764,-0.3l0,-1.359l3.593,0l0.195,1.412c0.389,-0.527 0.863,-0.93 1.423,-1.208c0.559,-0.278 1.206,-0.418 1.942,-0.418c1.45,0 2.577,0.569 3.382,1.707c0.804,1.137 1.206,2.64 1.206,4.509l0,0.224c0,1.669 -0.404,3.015 -1.212,4.039c-0.808,1.023 -1.922,1.535 -3.344,1.535c-0.721,0 -1.354,-0.12 -1.899,-0.358c-0.544,-0.239 -1.008,-0.594 -1.39,-1.065l0,3.99l1.764,0.3l0,1.358l-5.66,0l0,-1.358Zm9.599,-8.665c0,-1.32 -0.26,-2.4 -0.78,-3.242c-0.519,-0.841 -1.291,-1.262 -2.315,-1.262c-0.606,0 -1.126,0.136 -1.559,0.407c-0.432,0.271 -0.782,0.641 -1.049,1.112l0,5.638c0.267,0.478 0.615,0.847 1.044,1.107c0.429,0.26 0.958,0.39 1.585,0.39c1.01,0 1.775,-0.363 2.294,-1.091c0.52,-0.727 0.78,-1.672 0.78,-2.835l0,-0.224Z" style="fill:#4c4c4c;fill-rule:nonzero;"/><path d="M590.787,94.996l1.764,-0.3l0,-12.708l-1.764,-0.3l0,-1.359l3.593,0l0.195,1.412c0.389,-0.527 0.864,-0.93 1.423,-1.208c0.559,-0.278 1.206,-0.418 1.942,-0.418c1.45,0 2.577,0.569 3.382,1.707c0.804,1.137 1.206,2.64 1.206,4.509l0,0.224c0,1.669 -0.404,3.015 -1.212,4.039c-0.808,1.023 -1.922,1.535 -3.343,1.535c-0.722,0 -1.355,-0.12 -1.9,-0.358c-0.544,-0.239 -1.008,-0.594 -1.39,-1.065l0,3.99l1.764,0.3l0,1.358l-5.66,0l0,-1.358Zm9.599,-8.665c0,-1.32 -0.26,-2.4 -0.779,-3.242c-0.52,-0.841 -1.292,-1.262 -2.316,-1.262c-0.606,0 -1.126,0.136 -1.558,0.407c-0.433,0.271 -0.783,0.641 -1.05,1.112l0,5.638c0.267,0.478 0.615,0.847 1.044,1.107c0.429,0.26 0.958,0.39 1.585,0.39c1.01,0 1.775,-0.363 2.295,-1.091c0.519,-0.727 0.779,-1.672 0.779,-2.835l0,-0.224Z" style="fill:#4c4c4c;fill-rule:nonzero;"/><path d="M610.871,76.328c2.056,0 3.71,0.626 4.962,1.878c1.251,1.252 1.877,2.869 1.877,4.851l0,2.129c0,1.99 -0.626,3.607 -1.877,4.852c-1.252,1.244 -2.906,1.866 -4.962,1.866l-6.601,0l0,-1.348l1.764,-0.299l0,-12.27l-1.764,-0.3l0,-1.359l6.601,0Zm-2.705,1.659l0,12.27l2.705,0c1.458,0 2.606,-0.474 3.447,-1.423c0.84,-0.949 1.261,-2.164 1.261,-3.648l0,-2.15c0,-1.469 -0.421,-2.678 -1.261,-3.627c-0.841,-0.948 -1.989,-1.422 -3.447,-1.422l-2.705,0Z" style="fill:#4c4c4c;fill-rule:nonzero;"/><path d="M619.82,81.688l0,-1.359l3.669,0l0.205,1.68c0.332,-0.592 0.742,-1.056 1.229,-1.391c0.486,-0.335 1.044,-0.503 1.671,-0.503c0.166,0 0.338,0.013 0.514,0.038c0.177,0.025 0.312,0.052 0.406,0.08l-0.281,1.958l-1.212,-0.064c-0.563,0 -1.035,0.13 -1.418,0.39c-0.382,0.26 -0.678,0.626 -0.887,1.097l0,6.643l1.764,0.299l0,1.348l-5.66,0l0,-1.348l1.764,-0.299l0,-8.269l-1.764,-0.3Z" style="fill:#4c4c4c;fill-rule:nonzero;"/><path d="M636.626,91.904c-0.065,-0.314 -0.116,-0.595 -0.152,-0.845c-0.036,-0.249 -0.061,-0.499 -0.076,-0.749c-0.411,0.521 -0.925,0.954 -1.542,1.3c-0.616,0.346 -1.275,0.519 -1.975,0.519c-1.219,0 -2.146,-0.294 -2.781,-0.883c-0.634,-0.588 -0.952,-1.417 -0.952,-2.487c0,-1.098 0.449,-1.945 1.347,-2.541c0.899,-0.595 2.13,-0.893 3.696,-0.893l2.197,0l0,-1.348c0,-0.677 -0.217,-1.214 -0.65,-1.61c-0.433,-0.396 -1.035,-0.593 -1.807,-0.593c-0.534,0 -1.004,0.067 -1.412,0.203c-0.408,0.135 -0.738,0.321 -0.99,0.556l-0.227,1.22l-1.645,0l0,-2.247c0.534,-0.421 1.179,-0.758 1.937,-1.011c0.757,-0.253 1.58,-0.38 2.467,-0.38c1.327,0 2.402,0.336 3.225,1.006c0.822,0.67 1.233,1.63 1.233,2.878l0,5.573c0,0.15 0.002,0.296 0.006,0.439c0.003,0.142 0.012,0.285 0.027,0.428l0.865,0.117l0,1.348l-2.791,0Zm-3.431,-1.54c0.707,0 1.353,-0.168 1.937,-0.503c0.585,-0.335 1.003,-0.738 1.256,-1.209l0,-1.904l-2.273,0c-0.873,0 -1.564,0.2 -2.072,0.599c-0.509,0.399 -0.763,0.884 -0.763,1.455c0,0.506 0.159,0.893 0.476,1.161c0.317,0.267 0.797,0.401 1.439,0.401Z" style="fill:#4c4c4c;fill-rule:nonzero;"/><path d="M645.347,81.688l-1.341,0.235l1.525,5.766l0.249,1.402l0.065,0l0.303,-1.402l2.337,-7.36l1.71,0l2.348,7.36l0.336,1.562l0.065,0l0.314,-1.562l1.439,-5.766l-1.364,-0.235l0,-1.359l4.459,0l0,1.359l-1.018,0.15l-2.954,10.066l-1.72,0l-2.273,-7.05l-0.487,-1.946l-0.065,0.01l-0.454,1.936l-2.229,7.05l-1.721,0l-2.954,-10.066l-1.028,-0.15l0,-1.359l4.458,0l0,1.359Z" style="fill:#4c4c4c;fill-rule:nonzero;"/><path d="M664.858,92.129c-1.631,0 -2.927,-0.537 -3.89,-1.61c-0.963,-1.073 -1.445,-2.466 -1.445,-4.178l0,-0.47c0,-1.648 0.496,-3.019 1.488,-4.113c0.992,-1.095 2.166,-1.643 3.522,-1.643c1.573,0 2.765,0.471 3.577,1.413c0.811,0.941 1.217,2.196 1.217,3.765l0,1.316l-7.596,0l-0.033,0.053c0.022,1.113 0.307,2.028 0.855,2.744c0.548,0.717 1.317,1.075 2.305,1.075c0.721,0 1.354,-0.101 1.899,-0.304c0.545,-0.204 1.015,-0.484 1.412,-0.84l0.833,1.369c-0.418,0.399 -0.972,0.736 -1.661,1.011c-0.689,0.275 -1.516,0.412 -2.483,0.412Zm-0.325,-10.355c-0.714,0 -1.324,0.297 -1.829,0.893c-0.505,0.595 -0.815,1.342 -0.93,2.241l0.021,0.053l5.4,0l0,-0.278c0,-0.827 -0.223,-1.519 -0.671,-2.075c-0.447,-0.556 -1.111,-0.834 -1.991,-0.834Z" style="fill:#4c4c4c;fill-rule:nonzero;"/><path d="M671.426,81.688l0,-1.359l3.669,0l0.205,1.68c0.332,-0.592 0.741,-1.056 1.228,-1.391c0.487,-0.335 1.045,-0.503 1.672,-0.503c0.166,0 0.338,0.013 0.514,0.038c0.177,0.025 0.312,0.052 0.406,0.08l-0.281,1.958l-1.212,-0.064c-0.563,0 -1.035,0.13 -1.418,0.39c-0.382,0.26 -0.678,0.626 -0.887,1.097l0,6.643l1.764,0.299l0,1.348l-5.66,0l0,-1.348l1.764,-0.299l0,-8.269l-1.764,-0.3Z" style="fill:#4c4c4c;fill-rule:nonzero;"/></g><g><path d="M320.299,21.396l-6.007,0l-1.492,-8.29c-1.209,-1.01 -2.822,-1.847 -4.838,-2.511c-2.016,-0.664 -4.354,-0.996 -7.015,-0.996c-4.22,0 -7.458,0.883 -9.716,2.65c-2.258,1.767 -3.387,4.072 -3.387,6.915c0,2.524 1.149,4.63 3.447,6.318c2.298,1.687 6.014,3.168 11.148,4.444c6.182,1.514 10.879,3.746 14.091,6.695c3.211,2.95 4.817,6.603 4.817,10.961c0,4.676 -1.928,8.436 -5.785,11.279c-3.857,2.844 -8.903,4.265 -15.139,4.265c-4.515,0 -8.527,-0.731 -12.034,-2.192c-3.508,-1.461 -6.364,-3.375 -8.568,-5.739l0,-10.802l5.967,0l1.532,8.33c1.532,1.249 3.36,2.272 5.483,3.069c2.124,0.798 4.663,1.196 7.62,1.196c4.005,0 7.17,-0.837 9.495,-2.511c2.325,-1.674 3.487,-3.946 3.487,-6.815c0,-2.657 -1.008,-4.883 -3.024,-6.676c-2.016,-1.794 -5.577,-3.302 -10.684,-4.524c-6.208,-1.461 -11.06,-3.614 -14.554,-6.457c-3.494,-2.843 -5.241,-6.417 -5.241,-10.721c0,-4.544 1.949,-8.324 5.846,-11.339c3.897,-3.016 8.964,-4.524 15.199,-4.524c4.112,0 7.855,0.697 11.228,2.092c3.373,1.395 6.081,3.089 8.124,5.082l0,10.801Z" style="fill:#4c4c4c;fill-rule:nonzero;"/><path d="M373.598,22.074l-5.604,0l-1.492,-8.211c-1.29,-1.249 -2.876,-2.272 -4.757,-3.069c-1.882,-0.797 -4.126,-1.195 -6.733,-1.195c-6.102,0 -10.792,2.185 -14.071,6.556c-3.279,4.371 -4.918,9.918 -4.918,16.64l0,0.917c0,6.722 1.606,12.282 4.817,16.68c3.212,4.397 7.667,6.596 13.365,6.596c2.661,0 5.08,-0.412 7.257,-1.235c2.177,-0.824 3.857,-1.834 5.04,-3.03l1.492,-8.21l5.604,0l0,10.323c-1.694,2.152 -4.234,4.072 -7.62,5.759c-3.387,1.687 -7.311,2.531 -11.773,2.531c-7.633,0 -13.895,-2.79 -18.787,-8.37c-4.892,-5.58 -7.338,-12.595 -7.338,-21.044l0,-0.837c0,-8.503 2.406,-15.538 7.217,-21.104c4.811,-5.567 11.114,-8.35 18.908,-8.35c4.462,0 8.386,0.857 11.773,2.571c3.386,1.713 5.926,3.633 7.62,5.759l0,10.323Z" style="fill:#4c4c4c;fill-rule:nonzero;"/><path d="M407.101,4.298c6.397,0 11.302,1.401 14.715,4.205c3.414,2.803 5.121,6.782 5.121,11.937c0,2.816 -0.793,5.314 -2.379,7.493c-1.586,2.179 -3.857,3.892 -6.814,5.141c3.199,1.036 5.504,2.724 6.915,5.062c1.411,2.338 2.116,5.221 2.116,8.649l0,4.663c0,1.78 0.229,3.096 0.686,3.946c0.457,0.85 1.209,1.355 2.257,1.514l1.936,0.24l0,5.141l-4.274,0c-3.091,0 -5.288,-1.063 -6.592,-3.188c-1.303,-2.126 -1.955,-4.704 -1.955,-7.733l0,-4.503c0,-3.162 -0.927,-5.7 -2.782,-7.613c-1.855,-1.913 -4.341,-2.87 -7.459,-2.87l-12.74,0l0,19.769l6.572,1.116l0,5.022l-21.086,0l0,-5.022l6.572,-1.116l0,-45.715l-6.572,-1.116l0,-5.022l25.763,0Zm-11.249,25.907l10.442,0c4.435,0 7.661,-0.837 9.676,-2.511c2.016,-1.674 3.024,-4.119 3.024,-7.334c0,-3.056 -0.967,-5.474 -2.903,-7.254c-1.935,-1.78 -4.932,-2.67 -8.99,-2.67l-11.249,0l0,19.769Z" style="fill:#4c4c4c;fill-rule:nonzero;"/><path d="M437.217,62.289l0,-5.022l6.572,-1.116l0,-45.715l-6.572,-1.116l0,-5.062l45.074,0l0,13.95l-6.813,0l-0.645,-7.772l-23.102,0l0,18.772l22.457,0l0,6.178l-22.457,0l0,20.765l23.585,0l0.645,-7.772l6.774,0l0,13.91l-45.518,0Z" style="fill:#4c4c4c;fill-rule:nonzero;"/><path d="M489.871,62.289l0,-5.022l6.571,-1.116l0,-45.715l-6.571,-1.116l0,-5.062l45.074,0l0,13.95l-6.814,0l-0.645,-7.772l-23.101,0l0,18.772l22.456,0l0,6.178l-22.456,0l0,20.765l23.585,0l0.645,-7.772l6.773,0l0,13.91l-45.517,0Z" style="fill:#4c4c4c;fill-rule:nonzero;"/><path d="M600.016,4.258l0,5.062l-6.572,1.116l0,51.853l-7.942,0l-28.222,-44.799l-0.242,0.08l0,38.581l6.572,1.116l0,5.022l-21.086,0l0,-5.022l6.572,-1.116l0,-45.715l-6.572,-1.116l0,-5.062l14.514,0l28.222,44.759l0.242,-0.08l0,-38.501l-6.572,-1.116l0,-5.062l21.086,0Z" style="fill:#4c4c4c;fill-rule:nonzero;"/></g><path id="sort-desc" d="M620.252,60.503c0,-0.668 0.339,-1.297 0.923,-1.767l21.756,-17.598c0.582,-0.47 1.362,-0.746 2.185,-0.746c0.824,0 1.604,0.274 2.185,0.746l21.757,17.598c0.581,0.47 0.923,1.101 0.923,1.767c0,1.375 -1.408,2.514 -3.108,2.514l-43.513,0c-1.7,0 -3.108,-1.139 -3.108,-2.514l0,0Z" style="fill:#ffab00;fill-rule:nonzero;"/><g><path d="M613.831,18.834c0.848,-0.951 1.798,-1.805 2.851,-2.563c1.053,-0.758 2.163,-1.375 3.331,-1.851l1.614,-5.431l2.61,0l-1.202,4.515c0.366,-0.068 0.727,-0.125 1.082,-0.17c0.355,-0.045 0.715,-0.068 1.081,-0.068c1.946,0 3.457,0.521 4.533,1.562c1.076,1.041 1.615,2.501 1.615,4.379c0,1.494 -0.361,2.903 -1.082,4.227c-0.721,1.324 -1.683,2.507 -2.885,3.548c-1.202,1.041 -2.587,1.907 -4.155,2.597c-1.568,0.69 -3.2,1.149 -4.894,1.375l-1.27,4.719c-0.115,0.339 -0.189,0.622 -0.224,0.849c-0.034,0.226 -0.051,0.43 -0.051,0.611c0,0.565 0.234,0.962 0.704,1.188c0.469,0.226 1.299,0.351 2.49,0.373l-0.206,1.358l-9.719,0l0.206,-1.358c0.962,0 1.66,-0.113 2.095,-0.339c0.435,-0.226 0.744,-0.634 0.927,-1.222l6.216,-20.981c-0.87,0.453 -1.706,0.99 -2.507,1.613c-0.801,0.622 -1.545,1.295 -2.232,2.02l-0.928,-0.951Zm10.475,-3.904c-0.298,0 -0.59,0.017 -0.876,0.051c-0.286,0.034 -0.567,0.073 -0.842,0.118l-3.88,14.395c1.145,-0.226 2.261,-0.645 3.348,-1.256c1.088,-0.611 2.055,-1.369 2.902,-2.275c0.847,-0.905 1.528,-1.918 2.043,-3.038c0.515,-1.121 0.773,-2.292 0.773,-3.514c0,-1.358 -0.315,-2.444 -0.944,-3.259c-0.63,-0.815 -1.471,-1.222 -2.524,-1.222Z" style="fill:#ffab00;fill-rule:nonzero;"/><path d="M638.935,8.106c0.114,-0.407 0.229,-0.821 0.343,-1.239c0.115,-0.419 0.172,-0.73 0.172,-0.934c0,-0.792 -0.87,-1.188 -2.61,-1.188l0.275,-1.019l6.284,-0.305l-6.147,22.305c-0.183,0.611 -0.32,1.148 -0.412,1.612c-0.091,0.464 -0.137,0.855 -0.137,1.172c0,0.203 0.057,0.384 0.171,0.543c0.115,0.158 0.298,0.237 0.55,0.237c0.366,0 0.755,-0.152 1.168,-0.458c0.412,-0.306 0.807,-0.668 1.184,-1.086c0.378,-0.419 0.716,-0.849 1.013,-1.29c0.298,-0.442 0.515,-0.787 0.653,-1.036l1.03,0.577c-0.343,0.77 -0.79,1.511 -1.339,2.224c-0.55,0.713 -1.134,1.341 -1.752,1.884c-0.618,0.543 -1.242,0.979 -1.871,1.307c-0.63,0.328 -1.208,0.492 -1.734,0.492c-0.802,0 -1.391,-0.169 -1.769,-0.509c-0.378,-0.339 -0.567,-0.905 -0.567,-1.697c0,-0.453 0.069,-1.064 0.206,-1.834c0.138,-0.769 0.378,-1.821 0.722,-3.157l4.567,-16.601Z" style="fill:#ffab00;fill-rule:nonzero;"/><path d="M654.801,14.998c-0.87,0 -1.769,0.396 -2.696,1.188c-0.927,0.792 -1.769,1.782 -2.524,2.97c-0.756,1.189 -1.374,2.467 -1.855,3.837c-0.481,1.369 -0.721,2.642 -0.721,3.819c0,0.815 0.172,1.466 0.515,1.952c0.344,0.487 0.813,0.73 1.408,0.73c0.527,0 1.076,-0.209 1.649,-0.628c0.572,-0.419 1.127,-0.973 1.665,-1.664c0.538,-0.69 1.048,-1.476 1.528,-2.359c0.481,-0.883 0.905,-1.794 1.271,-2.733c0.366,-0.939 0.652,-1.862 0.858,-2.767c0.207,-0.905 0.31,-1.72 0.31,-2.444c0,-0.589 -0.126,-1.053 -0.378,-1.392c-0.252,-0.34 -0.595,-0.509 -1.03,-0.509Zm3.537,-1.426l2.85,0l-1.957,5.194c-0.321,0.86 -0.636,1.777 -0.945,2.75c-0.309,0.973 -0.584,1.912 -0.824,2.818c-0.24,0.905 -0.429,1.731 -0.567,2.478c-0.137,0.747 -0.206,1.301 -0.206,1.664c0,0.656 0.218,0.984 0.653,0.984c0.32,0 0.784,-0.328 1.391,-0.984c0.606,-0.657 1.287,-1.506 2.043,-2.547l0.893,0.713c-0.962,1.675 -1.998,2.971 -3.108,3.887c-1.11,0.917 -2.181,1.375 -3.211,1.375c-0.527,0 -0.933,-0.198 -1.219,-0.594c-0.286,-0.396 -0.429,-1.046 -0.429,-1.952c0,-0.203 0.005,-0.441 0.017,-0.713c0.011,-0.271 0.04,-0.633 0.086,-1.086l-0.138,-0.034c-0.343,0.634 -0.749,1.216 -1.219,1.748c-0.469,0.532 -0.979,0.996 -1.528,1.392c-0.549,0.396 -1.122,0.702 -1.717,0.917c-0.595,0.215 -1.179,0.322 -1.751,0.322c-1.168,0 -2.078,-0.435 -2.731,-1.307c-0.652,-0.871 -0.978,-2.076 -0.978,-3.615c0,-1.562 0.332,-3.158 0.996,-4.787c0.664,-1.63 1.522,-3.106 2.575,-4.43c1.053,-1.325 2.221,-2.411 3.503,-3.26c1.282,-0.848 2.541,-1.273 3.778,-1.273c0.755,0 1.373,0.176 1.854,0.526c0.481,0.351 0.87,0.923 1.168,1.715l0.721,-1.901Z" style="fill:#ffab00;fill-rule:nonzero;"/><path d="M668.503,21.652c-0.367,-1.856 -0.739,-3.141 -1.116,-3.854c-0.378,-0.712 -0.773,-1.069 -1.185,-1.069c-0.435,0 -0.83,0.323 -1.185,0.968c-0.355,0.645 -0.715,1.669 -1.082,3.072l-1.27,-0.339c0.229,-1.042 0.532,-2.003 0.91,-2.886c0.378,-0.883 0.79,-1.647 1.236,-2.292c0.446,-0.645 0.922,-1.143 1.425,-1.494c0.504,-0.35 1.008,-0.526 1.511,-0.526c0.435,0 0.807,0.159 1.116,0.476c0.309,0.316 0.624,0.905 0.945,1.765c0.274,0.724 0.578,1.68 0.91,2.869c0.332,1.188 0.658,2.552 0.978,4.091l1.168,5.465l0.137,0c0.435,-0.543 0.876,-1.16 1.323,-1.85c0.446,-0.69 0.852,-1.414 1.219,-2.173c0.366,-0.758 0.664,-1.527 0.893,-2.308c0.228,-0.781 0.343,-1.511 0.343,-2.19c0,-0.226 -0.011,-0.515 -0.034,-0.866c-0.023,-0.35 -0.052,-0.707 -0.086,-1.069c-0.035,-0.362 -0.063,-0.707 -0.086,-1.035c-0.023,-0.329 -0.034,-0.595 -0.034,-0.798c0,-0.815 0.206,-1.415 0.618,-1.8c0.412,-0.384 0.847,-0.577 1.305,-0.577c0.595,0 1.03,0.249 1.305,0.747c0.274,0.498 0.412,1.075 0.412,1.732c0,0.928 -0.252,2.116 -0.756,3.564c-0.503,1.449 -1.167,3.005 -1.992,4.668c-0.824,1.664 -1.774,3.361 -2.85,5.093c-1.076,1.731 -2.186,3.321 -3.331,4.77c-1.74,2.24 -3.348,3.898 -4.825,4.973c-1.477,1.075 -2.856,1.613 -4.138,1.613c-0.962,0 -1.723,-0.26 -2.284,-0.781c-0.561,-0.521 -0.841,-1.154 -0.841,-1.901c0,-0.566 0.16,-1.024 0.481,-1.375c0.32,-0.351 0.744,-0.526 1.27,-0.526c0.458,0 0.796,0.13 1.013,0.39c0.218,0.26 0.395,0.555 0.533,0.883c0.137,0.328 0.28,0.622 0.429,0.882c0.149,0.261 0.383,0.391 0.704,0.391c0.435,0 0.984,-0.238 1.648,-0.713c0.664,-0.475 1.328,-1.07 1.992,-1.782c0.664,-0.713 1.288,-1.489 1.872,-2.326c0.583,-0.837 1.001,-1.618 1.253,-2.342l-1.854,-9.54Z" style="fill:#ffab00;fill-rule:nonzero;"/></g></g></svg>