<?xml version="1.0" encoding="UTF-8" standalone="no"?><!DOCTYPE svg PUBLIC "-//W3C//DTD SVG 1.1//EN" "http://www.w3.org/Graphics/SVG/1.1/DTD/svg11.dtd"><svg width="100%" height="100%" viewBox="0 0 512 512" version="1.1" xmlns="http://www.w3.org/2000/svg" xmlns:xlink="http://www.w3.org/1999/xlink" xml:space="preserve" xmlns:serif="http://www.serif.com/" style="fill-rule:evenodd;clip-rule:evenodd;stroke-linejoin:round;stroke-miterlimit:1.41421;"><path id="steam-square" d="M413.982,173.02c0,-35.325 -28.99,-64.336 -64.656,-64.336c-35.326,0 -64.336,28.99 -64.336,64.336c0,35.667 28.989,64.336 64.336,64.336c35.666,0 64.656,-28.669 64.656,-64.336Zm-203.312,195.995c0,36.669 -29.33,65.999 -65.999,65.999c-25.342,0 -47.335,-14.334 -58.321,-35.325c11.007,4.331 21.673,8.661 32.659,13.333c26.664,10.665 57.339,-2.326 68.325,-29.331c10.666,-26.665 -2.325,-57.34 -29.331,-67.984l-27.326,-11.007c4.33,-1.003 9.343,-1.664 13.994,-1.664c36.669,0 65.999,29.331 65.999,66l0,-0.021Zm301.309,-272.98l0,319.973c0,52.988 -43.005,95.992 -95.992,95.992l-319.974,0c-52.987,0 -95.992,-43.004 -95.992,-95.992l0,-51.004l57.34,22.996c8.66,40.338 44.668,70.671 87.331,70.671c46.652,0 84.985,-35.666 89.336,-80.996l114.999,-84.003c66.661,0 120.331,-53.991 120.331,-119.99c0,-66.662 -53.67,-120.332 -120.331,-120.332c-65.659,0 -119.329,53.329 -119.99,118.988l-75.002,107.319c-3.008,-0.342 -5.994,-0.342 -9.343,-0.342c-16.66,0 -32.339,4.331 -45.671,12.33l-99,-39.655l0,-155.998c0,-52.988 43.005,-95.992 95.992,-95.992l319.974,0c52.987,0 95.992,43.004 95.992,95.992l0,0.043Zm-82.319,77.668c0,44.327 -35.986,80.334 -80.654,80.334c-44.327,0 -80.335,-35.986 -80.335,-80.334c0,-44.668 35.986,-80.655 80.335,-80.655c44.668,0 80.654,35.987 80.654,80.655Z" style="fill:#bebebe;fill-rule:nonzero;"/></svg>