<?xml version="1.0" encoding="UTF-8" standalone="no"?><!DOCTYPE svg PUBLIC "-//W3C//DTD SVG 1.1//EN" "http://www.w3.org/Graphics/SVG/1.1/DTD/svg11.dtd"><svg width="100%" height="100%" viewBox="0 0 350 350" version="1.1" xmlns="http://www.w3.org/2000/svg" xmlns:xlink="http://www.w3.org/1999/xlink" xml:space="preserve" xmlns:serif="http://www.serif.com/" style="fill-rule:evenodd;clip-rule:evenodd;stroke-linejoin:round;stroke-miterlimit:1.41421;"><g><g><path d="M196.049,166.329l0,10.744c0,4.72 0.502,7.833 3.213,7.833c0.803,0 2.352,-0.18 2.758,-0.235c1.952,-0.267 2.665,0.737 2.865,1.54c0,0 1.073,5.625 1.105,5.824c0.295,1.839 -0.861,2.495 -1.506,2.711c-1.828,0.629 -3.916,1.005 -7.13,1.005c-8.836,0 -13.958,-3.716 -13.958,-17.272l0,-12.15l-5.522,0c-1.205,0 -2.109,-0.803 -2.109,-2.109l0,-7.531c0,-1.205 0.904,-2.109 2.109,-2.109l5.522,0l0,-14.259c0,-1.305 0.804,-2.108 2.11,-2.108l8.434,0c1.306,0 2.109,0.803 2.109,2.108l0,14.259l7.33,0c1.205,0 2.109,0.904 2.109,2.109l0,7.531c0,1.306 -0.904,2.109 -2.109,2.109l-7.33,0m-56.156,23.798c0.022,-0.098 0.009,-0.1 2.009,-6.828c0.356,-1.144 1.278,-1.769 2.61,-1.105c1.306,0.804 6.025,2.712 11.046,2.712c2.009,0 4.719,0 4.719,-1.607c0,-3.615 -20.082,-3.515 -20.082,-16.368c0,-8.435 7.732,-12.351 16.97,-12.351c4.92,0 9.941,1.105 12.049,2.008c0.622,0.286 1.607,0.848 1.105,2.31l-2.108,7.531c-0.297,0.945 -0.968,1.492 -2.109,1.105c-2.31,-0.803 -5.925,-1.406 -8.937,-1.406c-3.615,0 -4.218,0.803 -4.218,1.808c0,3.313 19.983,4.317 19.983,14.962c0,10.04 -9.339,12.853 -17.271,12.853c-4.82,0 -9.841,-0.703 -14.761,-3.916c-0.402,-0.302 -1.234,-0.664 -1.005,-1.708m68.979,-14.56c0,-11.246 9.64,-20.987 20.987,-20.987c11.346,0 20.986,9.741 20.986,20.987c0,11.146 -9.64,20.184 -20.986,20.184c-11.347,0 -20.987,-9.038 -20.987,-20.184Zm29.22,0.101c0,-5.322 -3.715,-9.138 -8.334,-9.138c-4.418,0 -8.134,3.816 -8.134,9.138c0,5.221 3.716,9.238 8.134,9.238c4.619,0 8.334,-4.017 8.334,-9.238Zm97.083,-9.339l0,10.744c0,4.72 0.502,7.833 3.213,7.833c0.803,0 2.352,-0.18 2.757,-0.235c1.953,-0.267 2.666,0.737 2.866,1.54c0,0 1.073,5.625 1.105,5.824c0.295,1.839 -0.861,2.495 -1.506,2.711c-1.828,0.629 -3.917,1.005 -7.13,1.005c-8.836,0 -13.958,-3.716 -13.958,-17.272l0,-12.15l-5.522,0c-1.206,0 -2.109,-0.803 -2.109,-2.109l0,-7.531c0,-1.205 0.903,-2.109 2.109,-2.109l5.522,0l0,-14.259c0,-1.305 0.804,-2.108 2.109,-2.108l8.435,0c1.305,0 2.109,0.803 2.109,2.108l0,14.259l7.33,0c1.205,0 2.109,0.904 2.109,2.109l0,7.531c0,1.306 -0.904,2.109 -2.109,2.109l-7.33,0m-66.616,26.811c0,1.205 -0.803,2.109 -2.109,2.109l-8.535,0c-1.205,0 -2.109,-0.904 -2.109,-2.109l0,-35.949c0,-1.305 0.904,-2.109 2.109,-2.109l5.523,0c1.205,0 2.109,0.804 2.109,2.109l0,2.209c2.711,-2.912 5.121,-4.82 9.941,-4.82c3.314,0 7.33,1.406 9.639,4.921c3.615,-4.218 6.628,-4.921 10.343,-4.921c9.439,0 14.46,7.532 14.46,17.272l0,21.288c0,1.205 -0.904,2.109 -2.108,2.109l-8.536,0c-1.204,0 -2.109,-0.904 -2.109,-2.109l0,-20.384c0,-4.017 -1.506,-6.226 -3.916,-6.226c-2.41,0 -3.916,2.309 -3.916,6.326l0,20.284c0,1.205 -0.904,2.109 -2.108,2.109l-8.536,0c-1.205,0 -2.109,-0.904 -2.109,-2.109l0,-20.306c0,-4.12 -1.544,-6.386 -4.016,-6.386c-2.472,0 -4.017,2.369 -4.017,6.489l0,20.203m-217.066,-52.145l28.838,-20.952l-0.001,0c-5.756,-1.87 -11.771,-2.821 -17.823,-2.819c-19.183,0 -36.168,9.371 -46.658,23.776l-0.001,0l-0.018,0.025l-0.003,0.004c0.005,-0.007 21.836,-0.018 35.637,-0.024l0.029,-0.01m-24.655,33.922l-11.011,-33.888c-7.171,9.841 -11.029,21.712 -11.013,33.888c-0.015,12.176 3.842,24.048 11.013,33.889l11.011,-33.889" style="fill:#fff;"/><path d="M120.201,174.91c-0.003,-25.636 -16.733,-47.354 -39.866,-54.865l-0.001,-0.001l-0.003,-0.001l11.019,33.907l28.851,20.96m-39.866,54.88l-28.84,-20.949l-0.031,-0.011c-13.801,-0.006 -35.632,-0.017 -35.637,-0.024l0.003,0.003c0.006,0.009 0.012,0.017 0.018,0.026l0.001,0c10.49,14.405 27.475,23.776 46.658,23.776c6.222,0 12.209,-0.997 17.823,-2.82l0.001,0.001c23.135,-7.51 39.867,-29.229 39.87,-54.868l-28.849,20.961l-11.017,33.905m39.866,-54.88l0,0.014l0,-0.014" style="fill:#fff;"/><path d="M77.783,154.514l-20.368,0c-5.624,0 -10.183,4.826 -10.183,10.451c0,5.624 4.559,10.45 10.183,10.45l-10.183,0c-5.625,0 -10.184,4.328 -10.184,9.953c0,5.624 4.559,9.952 10.184,9.952l20.367,0c5.625,0 10.184,-4.328 10.184,-9.952c0,-5.625 -4.559,-9.953 -10.184,-9.953l10.184,0c5.625,0 10.184,-4.826 10.184,-10.45c0,-5.625 -4.559,-10.451 -10.184,-10.451" style="fill:#fff;"/></g></g></svg>