<?xml version="1.0" encoding="UTF-8" standalone="no"?><!DOCTYPE svg PUBLIC "-//W3C//DTD SVG 1.1//EN" "http://www.w3.org/Graphics/SVG/1.1/DTD/svg11.dtd"><svg width="100%" height="100%" viewBox="0 0 128 128" version="1.1" xmlns="http://www.w3.org/2000/svg" xmlns:xlink="http://www.w3.org/1999/xlink" xml:space="preserve" xmlns:serif="http://www.serif.com/" style="fill-rule:evenodd;clip-rule:evenodd;stroke-linejoin:round;stroke-miterlimit:1.41421;"><path id="hexagon-outline" d="M120.7,92.35c0,2.402 -1.344,4.489 -3.32,5.552l-49.812,27.991c-1.014,0.698 -2.243,1.107 -3.568,1.107c-1.325,0 -2.554,-0.409 -3.568,-1.107l-49.811,-27.99c-1.977,-1.063 -3.321,-3.151 -3.321,-5.553l0,-56.7c0,-2.402 1.344,-4.49 3.321,-5.553l49.811,-27.99c1.014,-0.698 2.243,-1.107 3.568,-1.107c1.325,0 2.553,0.409 3.568,1.107l49.812,27.991c1.976,1.063 3.32,3.151 3.32,5.552l0,56.7Zm-56.695,-67.917l-35.292,19.832l0,39.47l35.292,19.832l35.282,-19.832l0,-39.47l-35.282,-19.832Z" style="fill:#bebebe;fill-rule:nonzero;"/></svg>