<?xml version="1.0" encoding="UTF-8" standalone="no"?>
<!DOCTYPE svg PUBLIC "-//W3C//DTD SVG 1.1//EN" "http://www.w3.org/Graphics/SVG/1.1/DTD/svg11.dtd">
<svg width="100%" height="100%" viewBox="0 0 24 24" version="1.1" xmlns="http://www.w3.org/2000/svg" xmlns:xlink="http://www.w3.org/1999/xlink" xml:space="preserve" xmlns:serif="http://www.serif.com/" style="fill-rule:evenodd;clip-rule:evenodd;stroke-linejoin:round;stroke-miterlimit:2;">
    <rect x="0" y="0" width="24" height="24" style="fill:none;fill-rule:nonzero;"/>
    <g transform="matrix(6.12323e-17,1,-1,6.12323e-17,24,0)">
        <path d="M19,19L5,19L5,5L12,5L12,3L5,3C3.89,3 3,3.9 3,5L3,19C3,20.1 3.89,21 5,21L19,21C20.1,21 21,20.1 21,19L21,12L19,12L19,19ZM14,3L14,5L17.59,5L7.76,14.83L9.17,16.24L19,6.41L19,10L21,10L21,3L14,3Z" style="fill-rule:nonzero;"/>
    </g>
</svg>
