<?xml version="1.0" encoding="UTF-8" standalone="no"?>
<!DOCTYPE svg PUBLIC "-//W3C//DTD SVG 1.1//EN" "http://www.w3.org/Graphics/SVG/1.1/DTD/svg11.dtd">
<svg width="100%" height="100%" viewBox="0 0 16 18" version="1.1" xmlns="http://www.w3.org/2000/svg" xmlns:xlink="http://www.w3.org/1999/xlink" xml:space="preserve" style="fill-rule:evenodd;clip-rule:evenodd;stroke-linejoin:round;stroke-miterlimit:1.41421;">
    <g transform="matrix(1,0,0,1,-289,-224)">
        <g transform="matrix(1,0,0,1,0,0.25)">
            <g id="database" transform="matrix(1,0,0,1,285,220.75)">
                <path d="M12,3C7.582,3 4,4.791 4,7C4,9.209 7.582,11 12,11C16.418,11 20,9.209 20,7C20,4.791 16.418,3 12,3ZM4,9L4,12C4,14.209 7.582,16 12,16C16.418,16 20,14.209 20,12L20,9C20,11.209 16.418,13 12,13C7.582,13 4,11.209 4,9ZM4,14L4,17C4,19.209 7.582,21 12,21C16.418,21 20,19.209 20,17L20,14C20,16.209 16.418,18 12,18C7.582,18 4,16.209 4,14Z" style="fill:rgb(190,190,190);fill-rule:nonzero;"/>
            </g>
        </g>
    </g>
</svg>
