<?xml version="1.0" encoding="UTF-8" standalone="no"?><!DOCTYPE svg PUBLIC "-//W3C//DTD SVG 1.1//EN" "http://www.w3.org/Graphics/SVG/1.1/DTD/svg11.dtd"><svg width="100%" height="100%" viewBox="0 0 24 24" version="1.1" xmlns="http://www.w3.org/2000/svg" xmlns:xlink="http://www.w3.org/1999/xlink" xml:space="preserve" xmlns:serif="http://www.serif.com/" style="fill-rule:evenodd;clip-rule:evenodd;stroke-linejoin:round;stroke-miterlimit:1.41421;"><path d="M14,17l-7,0l0,-2l7,0m3,-2l-10,0l0,-2l10,0m0,-2l-10,0l0,-2l10,0m2,-4l-14,0c-1.11,0 -2,0.89 -2,2l0,14c0,1.097 0.903,2 2,2l14,0c1.097,0 2,-0.903 2,-2l0,-14c0,-1.11 -0.9,-2 -2,-2Z" style="fill:#fff;fill-rule:nonzero;"/></svg>