<?xml version="1.0" encoding="UTF-8" standalone="no"?><!DOCTYPE svg PUBLIC "-//W3C//DTD SVG 1.1//EN" "http://www.w3.org/Graphics/SVG/1.1/DTD/svg11.dtd"><svg width="100%" height="100%" viewBox="0 0 96 96" version="1.1" xmlns="http://www.w3.org/2000/svg" xmlns:xlink="http://www.w3.org/1999/xlink" xml:space="preserve" xmlns:serif="http://www.serif.com/" style="fill-rule:evenodd;clip-rule:evenodd;stroke-linejoin:round;stroke-miterlimit:1.41421;"><rect id="Artboard2" x="0" y="0" width="96" height="96" style="fill:none;"/><g><path d="M44.397,37.346l0.093,0.131l0.048,0.097l0.031,0.084l0.024,0.093l0.014,0.082l0.008,0.072l0.005,0.069l0.004,0.069l0.002,0.071l0.001,0.075l0,0.08l-0.002,0.167l-0.006,0.185l-0.008,0.201l-0.011,0.214l-0.014,0.228l-0.016,0.237l-0.018,0.247l-0.021,0.254l-0.022,0.259l-0.024,0.262l-0.026,0.263l-0.027,0.262l-0.029,0.259l-0.03,0.255l-0.031,0.247l-0.031,0.24l-0.033,0.229l-0.034,0.216l-0.017,0.105l-0.017,0.1l-0.018,0.097l-0.018,0.093l-0.018,0.089l-0.018,0.085l-0.02,0.083l-0.02,0.079l-0.021,0.077l-0.024,0.075l-0.027,0.077l-0.027,0.066l-0.076,0.173l-0.071,0.162l-0.071,0.164l-0.07,0.165l-0.068,0.165l-0.068,0.166l-0.067,0.166l-0.066,0.165l-0.064,0.164l-0.062,0.163l-0.061,0.161l-0.059,0.158l-0.056,0.156l-0.054,0.152l-0.052,0.149l-0.05,0.145l-0.046,0.14l-0.044,0.135l-0.041,0.129l-0.037,0.123l-0.034,0.117l-0.03,0.109l-0.027,0.101l-0.023,0.092l-0.018,0.082l-0.014,0.07l-0.01,0.059l0.088,0.224l0.132,0.336l0.131,0.331l0.13,0.325l0.249,0.62l0.232,0.568l0.106,0.258l0.099,0.239l0.091,0.217l0.082,0.193l0.072,0.167l0.06,0.136l0.046,0.103l0.034,0.07l0.159,0.322l0.143,0.291l0.127,0.256l0.057,0.114l0.054,0.106l0.051,0.098l0.048,0.089l0.045,0.08l0.043,0.073l0.04,0.065l0.037,0.057l0.038,0.053l0.014,0.021l0.017,0.021l0.016,0.019l0.015,0.019l0.015,0.017l0.015,0.016l0.014,0.015l0.015,0.014l0.014,0.014l0.015,0.013l0.014,0.012l0.016,0.013l0.016,0.012l0.016,0.012l0.018,0.012l0.018,0.012l0.02,0.013l0.021,0.012l0.022,0.013l0.024,0.013l0.026,0.013l0.024,0.013l0.063,0.029l0.068,0.029l0.077,0.031l0.084,0.032l0.094,0.033l0.103,0.035l0.122,0.04l0.12,0.038l0.117,0.035l0.114,0.034l0.111,0.031l0.107,0.029l0.105,0.027l0.1,0.026l0.098,0.023l0.093,0.022l0.09,0.02l0.087,0.018l0.082,0.017l0.078,0.015l0.147,0.026l0.13,0.021l0.113,0.017l0.095,0.012l0.078,0.008l0.059,0.006l0.039,0.003l0.035,0.003l0.145,0.023l0.137,0.052l0.125,0.077l0.108,0.1l0.086,0.12l0.061,0.134l0.033,0.143l0.005,0.147l-0.023,0.145l-0.052,0.137l-0.077,0.125l-0.1,0.108l-0.12,0.086l-0.133,0.061l-0.144,0.033l-0.147,0.006l-0.048,-0.004l-0.063,-0.005l-0.082,-0.008l-0.101,-0.011l-0.119,-0.015l-0.138,-0.02l-0.154,-0.025l-0.17,-0.031l-0.094,-0.018l-0.096,-0.019l-0.099,-0.021l-0.104,-0.023l-0.107,-0.025l-0.111,-0.027l-0.115,-0.029l-0.118,-0.03l-0.122,-0.034l-0.125,-0.035l-0.128,-0.037l-0.131,-0.04l-0.135,-0.043l-0.138,-0.045l-0.121,-0.041l-0.116,-0.041l-0.113,-0.043l-0.109,-0.043l-0.106,-0.046l-0.1,-0.047l-0.054,-0.026l-0.05,-0.026l-0.05,-0.027l-0.049,-0.029l-0.049,-0.029l-0.048,-0.03l-0.047,-0.031l-0.047,-0.033l-0.046,-0.033l-0.045,-0.035l-0.044,-0.036l-0.043,-0.037l-0.043,-0.038l-0.041,-0.039l-0.04,-0.039l-0.04,-0.041l-0.038,-0.042l-0.037,-0.042l-0.036,-0.043l-0.036,-0.044l-0.034,-0.044l-0.035,-0.048l-0.063,-0.089l-0.061,-0.095l-0.06,-0.097l-0.059,-0.1l-0.058,-0.104l-0.058,-0.107l-0.058,-0.112l-0.06,-0.117l-0.062,-0.123l-0.129,-0.262l-0.143,-0.291l-0.164,-0.329l-0.044,-0.094l-0.056,-0.124l-0.066,-0.15l-0.075,-0.175l-0.085,-0.199l-0.093,-0.223l-0.101,-0.243l-0.108,-0.263l-0.234,-0.573l-0.252,-0.626l-0.131,-0.328l-0.132,-0.334l-0.134,-0.339l-0.142,-0.364l-0.024,-0.076l-0.018,-0.086l-0.01,-0.075l-0.004,-0.066l0,-0.061l0.001,-0.057l0.004,-0.055l0.005,-0.053l0.006,-0.053l0.008,-0.056l0.018,-0.102l0.022,-0.109l0.025,-0.114l0.029,-0.118l0.033,-0.123l0.035,-0.128l0.039,-0.133l0.042,-0.138l0.045,-0.143l0.047,-0.147l0.051,-0.151l0.053,-0.155l0.055,-0.159l0.058,-0.161l0.059,-0.165l0.062,-0.167l0.064,-0.168l0.065,-0.171l0.067,-0.172l0.069,-0.173l0.07,-0.173l0.071,-0.174l0.072,-0.173l0.073,-0.173l0.074,-0.173l0.075,-0.17l0.07,-0.157l0.004,-0.011l0.005,-0.014l0.009,-0.028l0.011,-0.039l0.012,-0.049l0.013,-0.057l0.014,-0.064l0.015,-0.072l0.015,-0.077l0.015,-0.083l0.013,-0.078l-0.025,0.044l-0.049,0.082l-0.049,0.081l-0.05,0.081l-0.05,0.079l-0.051,0.078l-0.051,0.078l-0.052,0.076l-0.053,0.076l-0.053,0.074l-0.054,0.074l-0.055,0.072l-0.052,0.065l-0.038,0.049l-0.044,0.058l-0.116,0.155l-0.308,0.42l-0.183,0.247l-0.196,0.264l-0.103,0.135l-0.104,0.137l-0.105,0.138l-0.107,0.137l-0.107,0.135l-0.107,0.134l-0.107,0.131l-0.106,0.127l-0.105,0.123l-0.104,0.119l-0.101,0.111l-0.052,0.055l-0.051,0.053l-0.05,0.051l-0.051,0.05l-0.05,0.048l-0.051,0.047l-0.052,0.045l-0.052,0.044l-0.054,0.043l-0.057,0.042l-0.061,0.04l-0.066,0.04l-0.073,0.039l-0.086,0.037l-0.09,0.03l-0.067,0.016l-0.064,0.011l-0.071,0.006l-0.077,0.001l-0.084,-0.008l-0.077,-0.014l-0.066,-0.019l-0.052,-0.017l-0.049,-0.017l-0.05,-0.021l-0.081,-0.037l-0.084,-0.042l-0.083,-0.046l-0.084,-0.048l-0.085,-0.052l-0.087,-0.056l-0.09,-0.058l-0.092,-0.062l-0.095,-0.065l-0.097,-0.068l-0.1,-0.071l-0.102,-0.075l-0.21,-0.154l-0.218,-0.163l-0.032,-0.025l0.277,0.388l0.498,0.693l0.493,0.685l0.476,0.662l0.447,0.622l0.406,0.567l0.184,0.258l0.169,0.24l0.154,0.218l0.136,0.196l0.118,0.172l0.1,0.148l0.079,0.122l0.036,0.058l0.033,0.057l0.037,0.071l0.046,0.109l0.043,0.189l-0.047,0.473l-0.56,0.382l-0.39,-0.087l-0.329,-0.142l-0.268,-0.116l-0.27,-0.118l-0.271,-0.121l-0.272,-0.123l-0.273,-0.127l-0.274,-0.13l-0.275,-0.133l-0.138,-0.068l-0.138,-0.069l-0.139,-0.07l-0.138,-0.072l-0.139,-0.072l-0.138,-0.073l-0.139,-0.075l-0.139,-0.076l-0.139,-0.077l-0.139,-0.079l-0.139,-0.08l-0.139,-0.081l-0.139,-0.082l-0.139,-0.084l-0.139,-0.086l-0.139,-0.087l-0.139,-0.088l-0.139,-0.091l-0.139,-0.091l-0.138,-0.094l-0.139,-0.095l-0.138,-0.097l-0.139,-0.098l-0.138,-0.101l-0.138,-0.102l-0.138,-0.104l-0.137,-0.106l-0.137,-0.108l-0.137,-0.11l-0.137,-0.112l-0.136,-0.114l-0.137,-0.115l-0.135,-0.119l-0.136,-0.12l-0.135,-0.122l-0.135,-0.125l-0.134,-0.127l-0.134,-0.129l-0.134,-0.131l-0.133,-0.134l-0.132,-0.136l-0.132,-0.138l-0.132,-0.141l-0.131,-0.143l-0.131,-0.146l-0.13,-0.148l-0.13,-0.151l-0.132,-0.157l-0.028,-0.035l-0.032,-0.043l-0.049,-0.072l-0.047,-0.078l-0.044,-0.078l-0.04,-0.079l-0.037,-0.081l-0.036,-0.082l-0.034,-0.084l-0.032,-0.085l-0.031,-0.088l-0.031,-0.09l-0.029,-0.091l-0.029,-0.094l-0.028,-0.095l-0.028,-0.097l-0.026,-0.099l-0.026,-0.101l-0.026,-0.102l-0.025,-0.103l-0.025,-0.106l-0.047,-0.212l-0.046,-0.216l-0.043,-0.219l-0.042,-0.22l-0.04,-0.219l-0.038,-0.219l-0.036,-0.215l-0.033,-0.211l-0.032,-0.206l-0.03,-0.2l-0.027,-0.191l-0.026,-0.182l-0.044,-0.33l-0.035,-0.276l-0.026,-0.213l-0.006,-0.054l-0.014,-0.027l-0.037,-0.072l-0.04,-0.076l-0.043,-0.079l-0.046,-0.083l-0.049,-0.086l-0.05,-0.087l-0.11,-0.185l-0.117,-0.192l-0.124,-0.2l-0.131,-0.206l-0.136,-0.21l-0.14,-0.214l-0.144,-0.216l-0.018,-0.027l0.054,0.249l0.065,0.298l0.061,0.288l0.058,0.278l0.053,0.264l0.048,0.248l0.043,0.23l0.037,0.209l0.016,0.099l0.014,0.093l0.012,0.087l0.011,0.083l0.009,0.079l0.006,0.077l0.004,0.079l0,0.079l-0.003,0.057l-0.007,0.061l-0.014,0.079l-0.032,0.107l-0.075,0.154l-0.174,0.197l-0.311,0.146l-0.33,-0.012l-0.219,-0.097l-0.123,-0.093l-0.072,-0.075l-0.039,-0.048l-0.09,-0.121l-0.082,-0.109l-0.084,-0.108l-0.084,-0.108l-0.087,-0.108l-0.087,-0.107l-0.088,-0.108l-0.09,-0.107l-0.09,-0.106l-0.092,-0.107l-0.093,-0.106l-0.093,-0.106l-0.095,-0.106l-0.096,-0.106l-0.096,-0.105l-0.097,-0.105l-0.099,-0.105l-0.098,-0.104l-0.201,-0.21l-0.203,-0.208l-0.206,-0.207l-0.207,-0.206l-0.21,-0.206l-0.212,-0.205l-0.213,-0.204l-0.214,-0.203l-0.215,-0.203l-0.432,-0.404l-0.863,-0.802l-0.426,-0.399l-0.211,-0.199l-0.209,-0.199l-0.208,-0.199l-0.205,-0.199l-0.202,-0.199l-0.2,-0.199l-0.197,-0.199l-0.193,-0.2l-0.189,-0.199l-0.094,-0.101l-0.092,-0.1l-0.092,-0.101l-0.09,-0.1l-0.089,-0.101l-0.088,-0.101l-0.087,-0.101l-0.086,-0.101l-0.084,-0.102l-0.083,-0.102l-0.082,-0.102l-0.081,-0.102l-0.079,-0.103l-0.078,-0.102l-0.076,-0.104l-0.075,-0.103l-0.073,-0.104l-0.072,-0.105l-0.07,-0.104l-0.069,-0.105l-0.066,-0.106l-0.065,-0.106l-0.064,-0.106l-0.061,-0.107l-0.06,-0.108l-0.057,-0.108l-0.056,-0.108l-0.054,-0.109l-0.051,-0.11l-0.05,-0.11l-0.047,-0.111l-0.045,-0.112l-0.043,-0.112l-0.041,-0.113l-0.038,-0.113l-0.035,-0.114l-0.033,-0.115l-0.031,-0.115l-0.027,-0.116l-0.025,-0.117l-0.023,-0.117l-0.019,-0.118l-0.016,-0.118l-0.014,-0.119l-0.01,-0.12l-0.007,-0.12l-0.004,-0.12l-0.001,-0.121l0.002,-0.121l0.006,-0.122l0.009,-0.121l0.013,-0.122l0.016,-0.123l0.019,-0.122l0.023,-0.122l0.027,-0.123l0.029,-0.122l0.033,-0.119l0.056,-0.193l0.056,-0.188l0.057,-0.189l0.059,-0.187l0.06,-0.188l0.061,-0.187l0.062,-0.186l0.064,-0.186l0.065,-0.186l0.066,-0.184l0.068,-0.184l0.069,-0.184l0.07,-0.182l0.072,-0.182l0.073,-0.181l0.074,-0.18l0.076,-0.179l0.077,-0.178l0.078,-0.177l0.08,-0.176l0.081,-0.175l0.083,-0.174l0.084,-0.172l0.085,-0.172l0.087,-0.17l0.089,-0.168l0.09,-0.168l0.091,-0.166l0.093,-0.165l0.095,-0.163l0.096,-0.161l0.095,-0.156l0.106,-0.175l0.102,-0.172l0.101,-0.174l0.099,-0.175l0.099,-0.177l0.098,-0.177l0.195,-0.356l0.099,-0.178l0.099,-0.178l0.099,-0.177l0.102,-0.177l0.103,-0.176l0.104,-0.173l0.054,-0.087l0.054,-0.087l0.055,-0.085l0.056,-0.086l0.056,-0.085l0.058,-0.084l0.058,-0.083l0.059,-0.083l0.061,-0.083l0.061,-0.081l0.063,-0.081l0.064,-0.08l0.065,-0.079l0.066,-0.078l0.068,-0.077l0.069,-0.076l0.071,-0.076l0.072,-0.073l0.074,-0.073l0.076,-0.072l0.077,-0.07l0.079,-0.068l0.081,-0.068l0.082,-0.065l0.085,-0.064l0.086,-0.062l0.088,-0.061l0.09,-0.058l0.092,-0.057l0.094,-0.054l0.096,-0.053l0.098,-0.05l0.1,-0.048l0.102,-0.045l0.022,-0.009l0.025,-0.043l0.037,-0.066l0.04,-0.076l0.044,-0.086l0.047,-0.095l0.049,-0.103l0.052,-0.11l0.055,-0.117l0.056,-0.124l0.058,-0.129l0.121,-0.278l0.127,-0.296l0.131,-0.313l0.134,-0.327l0.138,-0.338l0.138,-0.346l0.068,-0.172l-0.294,0.365l-0.382,0.477l-0.389,0.49l-0.394,0.499l-0.396,0.506l-0.198,0.254l-0.197,0.256l-0.197,0.256l-0.195,0.256l-0.195,0.255l-0.192,0.255l-0.191,0.254l-0.188,0.253l-0.185,0.251l-0.183,0.249l-0.179,0.247l-0.175,0.244l-0.172,0.242l-0.167,0.237l-0.163,0.234l-0.158,0.23l-0.152,0.226l-0.147,0.22l-0.141,0.216l-0.135,0.209l-0.128,0.204l-0.121,0.197l-0.114,0.191l-0.053,0.091l-0.052,0.091l-0.05,0.088l-0.048,0.086l-0.046,0.084l-0.043,0.082l-0.041,0.08l-0.04,0.077l-0.036,0.074l-0.035,0.073l-0.137,0.293l-0.137,0.3l-0.138,0.306l-0.137,0.311l-0.068,0.157l-0.067,0.158l-0.067,0.159l-0.067,0.161l-0.066,0.16l-0.065,0.162l-0.064,0.162l-0.063,0.163l-0.062,0.163l-0.062,0.164l-0.06,0.164l-0.059,0.164l-0.057,0.164l-0.056,0.164l-0.055,0.164l-0.052,0.164l-0.052,0.163l-0.049,0.164l-0.048,0.162l-0.046,0.163l-0.044,0.161l-0.041,0.161l-0.04,0.16l-0.038,0.161l-0.092,0.407l-0.089,0.397l-0.087,0.384l-0.085,0.368l-0.043,0.179l-0.042,0.174l-0.043,0.169l-0.043,0.164l-0.044,0.16l-0.044,0.155l-0.046,0.15l-0.047,0.143l-0.024,0.072l-0.025,0.07l-0.025,0.068l-0.026,0.067l-0.026,0.066l-0.028,0.065l-0.028,0.064l-0.029,0.063l-0.031,0.062l-0.032,0.062l-0.033,0.06l-0.035,0.06l-0.037,0.058l-0.04,0.059l-0.042,0.057l-0.046,0.057l-0.049,0.056l-0.054,0.055l-0.058,0.054l-0.064,0.052l-0.069,0.049l-0.075,0.046l-0.081,0.041l-0.087,0.035l-0.092,0.029l-0.096,0.021l-0.097,0.012l-0.098,0.003l-0.097,-0.006l-0.095,-0.014l-0.09,-0.02l-0.068,-0.022l-0.074,-0.024l-0.056,-0.017l-0.057,-0.015l-0.058,-0.014l-0.058,-0.012l-0.06,-0.01l-0.06,-0.008l-0.061,-0.007l-0.061,-0.006l-0.028,-0.002l0.029,0.008l0.149,0.045l0.155,0.049l0.159,0.053l0.165,0.058l0.171,0.063l0.175,0.068l0.092,0.037l0.092,0.038l0.094,0.039l0.095,0.041l0.096,0.043l0.099,0.044l0.1,0.046l0.101,0.047l0.104,0.05l0.105,0.051l0.107,0.053l0.108,0.055l0.111,0.057l0.112,0.058l0.115,0.061l0.116,0.063l0.118,0.065l0.121,0.067l0.122,0.069l0.125,0.071l0.126,0.074l0.129,0.076l0.131,0.078l0.134,0.081l0.173,0.107l0.171,0.107l0.168,0.108l0.165,0.108l0.162,0.109l0.16,0.109l0.157,0.11l0.154,0.109l0.151,0.111l0.149,0.111l0.147,0.111l0.144,0.111l0.141,0.112l0.139,0.113l0.136,0.112l0.134,0.113l0.131,0.114l0.129,0.114l0.127,0.114l0.124,0.114l0.122,0.115l0.119,0.115l0.118,0.116l0.115,0.116l0.113,0.116l0.11,0.116l0.109,0.117l0.106,0.117l0.104,0.117l0.102,0.117l0.101,0.118l0.098,0.118l0.096,0.118l0.094,0.119l0.092,0.118l0.09,0.119l0.088,0.119l0.087,0.119l0.084,0.119l0.083,0.119l0.081,0.12l0.079,0.12l0.078,0.119l0.076,0.12l0.074,0.12l0.072,0.12l0.071,0.12l0.07,0.12l0.067,0.12l0.067,0.12l0.065,0.121l0.063,0.12l0.062,0.12l0.06,0.12l0.06,0.12l0.057,0.12l0.057,0.12l0.055,0.12l0.054,0.12l0.053,0.12l0.052,0.119l0.05,0.12l0.05,0.119l0.05,0.123l0.025,0.066l0.025,0.07l0.023,0.071l0.022,0.072l0.02,0.072l0.018,0.073l0.017,0.073l0.015,0.074l0.013,0.075l0.012,0.075l0.01,0.076l0.009,0.076l0.007,0.076l0.005,0.077l0.004,0.077l0.002,0.078l0.001,0.078l-0.001,0.078l-0.003,0.078l-0.004,0.078l-0.007,0.079l-0.008,0.078l-0.009,0.079l-0.012,0.079l-0.014,0.078l-0.015,0.079l-0.018,0.078l-0.019,0.078l-0.022,0.078l-0.023,0.078l-0.026,0.077l-0.028,0.077l-0.031,0.076l-0.033,0.076l-0.035,0.076l-0.038,0.074l-0.04,0.074l-0.043,0.072l-0.046,0.072l-0.049,0.071l-0.051,0.069l-0.054,0.068l-0.058,0.066l-0.06,0.064l-0.064,0.063l-0.066,0.06l-0.069,0.058l-0.073,0.056l-0.075,0.052l-0.078,0.05l-0.08,0.047l-0.084,0.044l-0.086,0.04l-0.088,0.037l-0.09,0.033l-0.093,0.029l-0.094,0.026l-0.096,0.021l-0.098,0.018l-0.099,0.014l-0.101,0.01l-0.102,0.007l-0.103,0.002l-0.116,-0.002l-0.083,-0.007l-0.085,-0.013l-0.076,-0.016l-0.071,-0.019l-0.07,-0.021l-0.068,-0.023l-0.068,-0.025l-0.068,-0.027l-0.069,-0.028l-0.071,-0.03l-0.072,-0.032l-0.075,-0.034l-0.149,-0.071l-0.157,-0.077l-0.162,-0.083l-0.167,-0.088l-0.17,-0.092l-0.174,-0.095l-0.175,-0.098l-0.091,-0.052l0.016,0.024l0.057,0.075l0.058,0.075l0.059,0.075l0.061,0.073l0.063,0.073l0.063,0.072l0.065,0.071l0.067,0.07l0.068,0.069l0.069,0.068l0.07,0.066l0.072,0.064l0.073,0.064l0.075,0.061l0.076,0.06l0.077,0.058l0.079,0.056l0.08,0.054l0.084,0.054l0.021,0.013l0.492,-0.111l0.377,-0.084l0.421,-0.093l0.451,-0.099l0.468,-0.101l0.47,-0.1l0.457,-0.095l0.221,-0.045l0.212,-0.042l0.203,-0.04l0.191,-0.036l0.179,-0.033l0.165,-0.029l0.15,-0.024l0.133,-0.02l0.065,-0.008l0.06,-0.007l0.06,-0.005l0.061,-0.004l0.069,-0.002l0.092,0.004l0.125,0.02l0.143,0.049l0.121,0.074l0.177,0.148l0.138,0.113l0.145,0.117l0.153,0.122l0.159,0.125l0.167,0.129l0.173,0.133l0.178,0.136l0.185,0.138l0.19,0.142l0.195,0.144l0.2,0.147l0.413,0.301l0.429,0.309l0.442,0.316l0.453,0.321l0.462,0.325l0.468,0.328l0.471,0.33l0.474,0.33l0.943,0.656l0.922,0.642l0.448,0.313l0.436,0.305l0.422,0.298l0.405,0.288l0.387,0.277l0.366,0.265l0.175,0.128l0.169,0.124l0.162,0.121l0.156,0.118l0.15,0.113l0.143,0.11l0.135,0.106l0.129,0.103l0.121,0.098l0.113,0.094l0.107,0.091l0.099,0.088l0.092,0.085l0.083,0.08l0.042,0.044l0.039,0.041l0.038,0.043l0.038,0.044l0.04,0.049l0.038,0.051l0.036,0.052l0.034,0.053l0.032,0.054l0.029,0.053l0.027,0.054l0.025,0.055l0.023,0.054l0.022,0.054l0.019,0.055l0.017,0.054l0.015,0.053l0.014,0.054l0.011,0.053l0.011,0.053l0.008,0.052l0.008,0.051l0.005,0.051l0.005,0.054l0.005,0.094l0.001,0.095l-0.002,0.092l-0.006,0.089l-0.009,0.086l-0.012,0.082l-0.013,0.078l-0.015,0.075l-0.016,0.071l-0.018,0.067l-0.017,0.064l-0.018,0.059l-0.018,0.055l-0.019,0.053l-0.032,0.084l-0.028,0.069l-0.022,0.047l-0.308,0.645l-0.73,-0.282l-0.105,-0.042l-0.141,-0.057l-0.178,-0.075l-0.212,-0.091l-0.245,-0.108l-0.137,-0.062l-0.143,-0.065l-0.152,-0.07l-0.159,-0.074l-0.167,-0.08l-0.175,-0.083l-0.182,-0.089l-0.189,-0.093l-0.196,-0.098l-0.203,-0.103l-0.21,-0.108l-0.216,-0.112l-0.224,-0.118l-0.229,-0.122l-0.236,-0.128l-0.242,-0.133l-0.247,-0.138l-0.249,-0.14l-0.034,-0.019l-0.038,-0.019l-0.045,-0.023l-0.051,-0.026l-0.127,-0.059l-0.147,-0.067l-0.167,-0.072l-0.184,-0.078l-0.199,-0.082l-0.212,-0.086l-0.223,-0.088l-0.232,-0.089l-0.24,-0.09l-0.245,-0.091l-0.248,-0.089l-0.251,-0.088l-0.25,-0.085l-0.248,-0.083l-0.245,-0.078l-0.119,-0.037l-0.118,-0.036l-0.117,-0.035l-0.114,-0.033l-0.111,-0.031l-0.109,-0.03l-0.105,-0.028l-0.103,-0.026l-0.096,-0.023l0.04,0.114l0.048,0.133l0.048,0.132l0.05,0.13l0.051,0.129l0.051,0.128l0.053,0.126l0.053,0.125l0.055,0.123l0.055,0.122l0.056,0.121l0.057,0.119l0.058,0.118l0.059,0.117l0.059,0.116l0.061,0.114l0.061,0.113l0.062,0.111l0.062,0.11l0.064,0.11l0.064,0.107l0.065,0.107l0.065,0.105l0.066,0.104l0.067,0.103l0.068,0.102l0.068,0.1l0.069,0.099l0.069,0.098l0.07,0.097l0.07,0.096l0.072,0.094l0.071,0.093l0.072,0.092l0.073,0.091l0.073,0.09l0.073,0.089l0.074,0.087l0.075,0.087l0.075,0.085l0.075,0.084l0.075,0.083l0.076,0.082l0.077,0.081l0.077,0.079l0.077,0.079l0.077,0.077l0.078,0.077l0.077,0.075l0.079,0.074l0.078,0.074l0.079,0.072l0.078,0.071l0.079,0.07l0.08,0.069l0.079,0.068l0.08,0.067l0.079,0.066l0.08,0.065l0.08,0.064l0.08,0.063l0.08,0.062l0.08,0.061l0.08,0.06l0.08,0.059l0.08,0.058l0.08,0.057l0.08,0.056l0.08,0.056l0.08,0.054l0.08,0.053l0.079,0.052l0.08,0.052l0.078,0.049l0.16,0.099l0.157,0.095l0.157,0.091l0.155,0.087l0.155,0.084l0.153,0.08l0.151,0.077l0.15,0.073l0.148,0.07l0.146,0.067l0.144,0.063l0.142,0.061l0.14,0.057l0.137,0.054l0.134,0.05l0.131,0.048l0.129,0.045l0.125,0.042l0.122,0.038l0.119,0.036l0.114,0.034l0.111,0.03l0.107,0.028l0.142,0.034l0.099,0.034l0.13,0.072l0.122,0.105l0.082,0.104l0.049,0.082l0.033,0.067l0.023,0.058l0.019,0.052l0.017,0.053l0.025,0.09l0.023,0.096l0.021,0.101l0.02,0.107l0.02,0.114l0.02,0.121l0.02,0.129l0.02,0.137l0.041,0.293l0.043,0.32l0.092,0.704l0.05,0.378l0.052,0.39l0.056,0.398l0.058,0.402l0.03,0.201l0.031,0.201l0.032,0.2l0.033,0.198l0.025,0.141l0.025,0.139l0.027,0.138l0.027,0.136l0.029,0.135l0.029,0.134l0.03,0.132l0.03,0.131l0.061,0.26l0.062,0.254l0.06,0.25l0.06,0.245l0.056,0.241l0.027,0.12l0.025,0.118l0.025,0.118l0.023,0.117l0.021,0.116l0.02,0.116l0.017,0.115l0.016,0.115l0.013,0.115l0.01,0.114l0.008,0.115l0.004,0.114l0.001,0.112l-0.001,0.06l-0.002,0.082l-0.01,0.079l-0.015,0.07l-0.013,0.052l-0.015,0.047l-0.026,0.078l-0.031,0.086l-0.072,0.192l-0.041,0.112l-0.044,0.121l-0.047,0.131l-0.049,0.141l-0.051,0.15l-0.051,0.158l-0.052,0.167l-0.025,0.085l-0.025,0.088l-0.025,0.089l-0.024,0.091l-0.024,0.093l-0.024,0.094l-0.023,0.096l-0.022,0.096l-0.022,0.098l-0.02,0.1l-0.02,0.1l-0.019,0.101l-0.017,0.103l-0.017,0.103l-0.015,0.104l-0.014,0.104l-0.012,0.105l-0.011,0.106l-0.01,0.106l-0.007,0.106l-0.007,0.107l-0.004,0.107l-0.003,0.107l-0.001,0.107l0.002,0.107l0.003,0.107l0.005,0.106l0.007,0.107l0.01,0.106l0.012,0.105l0.013,0.105l0.017,0.105l0.019,0.106l0.01,0.049l0.011,0.052l0.011,0.051l0.012,0.051l0.013,0.051l0.013,0.051l0.015,0.05l0.014,0.051l0.016,0.05l0.016,0.05l0.026,0.078l0.028,0.08l0.029,0.08l0.031,0.082l0.032,0.083l0.033,0.084l0.035,0.085l0.036,0.086l0.038,0.087l0.039,0.088l0.04,0.089l0.041,0.09l0.042,0.09l0.043,0.09l0.092,0.185l0.095,0.187l0.099,0.189l0.103,0.191l0.107,0.194l0.11,0.194l0.114,0.196l0.117,0.197l0.119,0.198l0.123,0.199l0.124,0.199l0.127,0.2l0.129,0.199l0.131,0.2l0.132,0.199l0.133,0.198l0.135,0.198l0.135,0.196l0.136,0.196l0.137,0.194l0.137,0.192l0.137,0.19l0.137,0.189l0.136,0.186l0.136,0.184l0.134,0.182l0.134,0.178l0.133,0.176l0.131,0.171l0.257,0.335l0.248,0.319l0.238,0.303l0.227,0.284l0.212,0.264l0.198,0.243l0.18,0.22l0.162,0.195l0.141,0.169l0.119,0.142l0.003,0.003l2.557,0.015l0.147,0.016l0.14,0.043l0.129,0.07l0.113,0.094l0.093,0.114l0.069,0.131l0.041,0.14l0.014,0.147l-0.015,0.146l-0.044,0.141l-0.07,0.129l-0.094,0.113l-0.114,0.092l-0.13,0.069l-0.141,0.042l-0.147,0.013l-3.243,-0.019l-0.283,-0.33l-0.171,-0.201l-0.123,-0.146l-0.145,-0.174l-0.165,-0.2l-0.185,-0.225l-0.202,-0.249l-0.217,-0.27l-0.231,-0.29l-0.244,-0.309l-0.254,-0.326l-0.262,-0.341l-0.135,-0.177l-0.135,-0.18l-0.137,-0.183l-0.139,-0.186l-0.139,-0.189l-0.14,-0.191l-0.14,-0.194l-0.141,-0.196l-0.141,-0.198l-0.141,-0.2l-0.141,-0.201l-0.14,-0.204l-0.139,-0.204l-0.138,-0.206l-0.138,-0.206l-0.135,-0.208l-0.135,-0.208l-0.132,-0.208l-0.131,-0.209l-0.129,-0.209l-0.126,-0.209l-0.123,-0.208l-0.121,-0.208l-0.118,-0.208l-0.114,-0.207l-0.112,-0.206l-0.107,-0.205l-0.104,-0.205l-0.099,-0.201l-0.049,-0.102l-0.047,-0.101l-0.046,-0.1l-0.045,-0.1l-0.044,-0.099l-0.043,-0.099l-0.041,-0.099l-0.041,-0.098l-0.039,-0.098l-0.037,-0.097l-0.036,-0.097l-0.035,-0.097l-0.034,-0.096l-0.032,-0.095l-0.022,-0.069l-0.022,-0.07l-0.02,-0.069l-0.019,-0.069l-0.019,-0.07l-0.017,-0.069l-0.016,-0.07l-0.016,-0.069l-0.015,-0.07l-0.014,-0.071l-0.025,-0.137l-0.021,-0.138l-0.019,-0.138l-0.015,-0.138l-0.012,-0.137l-0.009,-0.137l-0.007,-0.136l-0.004,-0.135l-0.002,-0.134l0.001,-0.134l0.004,-0.133l0.005,-0.132l0.008,-0.13l0.009,-0.13l0.012,-0.128l0.013,-0.128l0.015,-0.126l0.017,-0.124l0.018,-0.123l0.019,-0.122l0.021,-0.12l0.021,-0.119l0.023,-0.117l0.024,-0.115l0.025,-0.114l0.026,-0.112l0.026,-0.109l0.027,-0.108l0.028,-0.106l0.028,-0.103l0.028,-0.102l0.028,-0.099l0.03,-0.098l0.057,-0.186l0.057,-0.176l0.055,-0.166l0.054,-0.154l0.051,-0.143l0.048,-0.13l0.043,-0.115l0.069,-0.185l0.021,-0.06l0,-0.054l-0.003,-0.071l-0.005,-0.076l-0.007,-0.079l-0.01,-0.083l-0.012,-0.087l-0.013,-0.09l-0.016,-0.093l-0.018,-0.097l-0.02,-0.101l-0.021,-0.103l-0.023,-0.106l-0.025,-0.109l-0.053,-0.228l-0.057,-0.239l-0.061,-0.249l-0.063,-0.259l-0.063,-0.269l-0.032,-0.139l-0.032,-0.141l-0.031,-0.143l-0.031,-0.146l-0.03,-0.148l-0.029,-0.151l-0.028,-0.152l-0.027,-0.155l-0.034,-0.208l-0.033,-0.207l-0.033,-0.208l-0.031,-0.208l-0.06,-0.412l-0.056,-0.405l-0.053,-0.396l-0.05,-0.38l-0.092,-0.702l-0.042,-0.313l-0.039,-0.283l-0.019,-0.127l-0.018,-0.117l-0.018,-0.107l-0.007,-0.044l-0.097,-0.028l-0.139,-0.042l-0.141,-0.045l-0.144,-0.048l-0.147,-0.052l-0.151,-0.054l-0.152,-0.058l-0.156,-0.061l-0.158,-0.065l-0.16,-0.068l-0.163,-0.071l-0.164,-0.076l-0.167,-0.078l-0.168,-0.083l-0.17,-0.086l-0.171,-0.09l-0.173,-0.094l-0.175,-0.098l-0.175,-0.101l-0.176,-0.106l-0.176,-0.109l-0.09,-0.057l-0.089,-0.058l-0.089,-0.058l-0.09,-0.06l-0.089,-0.061l-0.089,-0.061l-0.09,-0.063l-0.09,-0.064l-0.089,-0.065l-0.09,-0.066l-0.09,-0.067l-0.089,-0.068l-0.09,-0.07l-0.089,-0.07l-0.09,-0.072l-0.089,-0.073l-0.089,-0.074l-0.089,-0.075l-0.089,-0.076l-0.089,-0.077l-0.089,-0.079l-0.088,-0.08l-0.088,-0.081l-0.088,-0.082l-0.088,-0.083l-0.087,-0.085l-0.087,-0.086l-0.087,-0.087l-0.087,-0.088l-0.086,-0.089l-0.085,-0.091l-0.086,-0.092l-0.085,-0.093l-0.084,-0.094l-0.084,-0.096l-0.084,-0.097l-0.083,-0.098l-0.082,-0.1l-0.082,-0.1l-0.082,-0.102l-0.081,-0.104l-0.08,-0.104l-0.08,-0.106l-0.079,-0.108l-0.078,-0.108l-0.078,-0.11l-0.077,-0.112l-0.076,-0.112l-0.076,-0.114l-0.075,-0.115l-0.074,-0.117l-0.074,-0.118l-0.072,-0.119l-0.072,-0.121l-0.071,-0.122l-0.07,-0.124l-0.07,-0.124l-0.068,-0.127l-0.067,-0.127l-0.067,-0.129l-0.065,-0.131l-0.065,-0.131l-0.064,-0.134l-0.062,-0.134l-0.062,-0.136l-0.061,-0.138l-0.059,-0.139l-0.058,-0.14l-0.058,-0.142l-0.056,-0.143l-0.055,-0.144l-0.054,-0.146l-0.053,-0.148l-0.051,-0.149l-0.051,-0.15l-0.049,-0.152l-0.048,-0.153l-0.046,-0.155l-0.046,-0.156l-0.048,-0.171l-0.016,-0.07l-0.012,-0.09l-0.003,-0.099l0.009,-0.106l0.023,-0.11l0.039,-0.109l0.054,-0.103l0.065,-0.093l0.072,-0.079l0.076,-0.066l0.076,-0.052l0.074,-0.041l0.07,-0.032l0.067,-0.025l0.063,-0.019l0.059,-0.014l0.057,-0.011l0.055,-0.008l0.053,-0.005l0.051,-0.004l0.05,-0.002l0.054,-0.001l0.093,0.002l0.097,0.006l0.097,0.009l0.099,0.012l0.1,0.015l0.103,0.017l0.105,0.02l0.107,0.022l0.11,0.024l0.111,0.026l0.115,0.027l0.116,0.03l0.119,0.031l0.121,0.033l0.122,0.035l0.124,0.036l0.126,0.038l0.127,0.038l0.13,0.04l0.258,0.083l0.262,0.087l0.262,0.09l0.262,0.092l0.26,0.093l0.255,0.094l0.25,0.094l0.243,0.094l0.233,0.092l0.224,0.09l0.211,0.087l0.197,0.084l0.183,0.079l0.167,0.076l0.148,0.069l0.07,0.035l0.065,0.033l0.062,0.032l0.053,0.029l0.251,0.142l0.24,0.133l0.234,0.129l0.228,0.124l0.222,0.118l0.216,0.114l0.209,0.109l0.203,0.104l0.196,0.099l0.189,0.094l0.182,0.09l0.175,0.085l0.167,0.08l0.16,0.076l0.153,0.072l0.145,0.066l0.137,0.063l0.055,0.025l-0.014,-0.014l-0.056,-0.055l-0.066,-0.061l-0.078,-0.069l-0.089,-0.076l-0.099,-0.082l-0.108,-0.088l-0.118,-0.094l-0.126,-0.099l-0.135,-0.104l-0.142,-0.108l-0.15,-0.113l-0.157,-0.117l-0.164,-0.12l-0.17,-0.125l-0.359,-0.26l-0.382,-0.273l-0.4,-0.285l-0.419,-0.295l-0.433,-0.303l-0.446,-0.312l-0.921,-0.641l-0.943,-0.656l-0.475,-0.331l-0.474,-0.331l-0.47,-0.33l-0.464,-0.327l-0.457,-0.324l-0.447,-0.319l-0.434,-0.313l-0.42,-0.305l-0.204,-0.15l-0.199,-0.148l-0.195,-0.145l-0.19,-0.143l-0.184,-0.14l-0.179,-0.137l-0.173,-0.134l-0.168,-0.131l-0.161,-0.129l-0.154,-0.125l-0.054,-0.044l-0.013,0.002l-0.13,0.021l-0.15,0.027l-0.168,0.03l-0.182,0.035l-0.196,0.038l-0.207,0.042l-0.215,0.043l-0.451,0.094l-0.464,0.099l-0.463,0.1l-0.448,0.098l-0.418,0.092l-0.374,0.084l-0.559,0.126l-0.482,0.109l-0.302,-0.159l-0.06,-0.033l-0.06,-0.034l-0.059,-0.034l-0.058,-0.035l-0.06,-0.036l-0.111,-0.072l-0.111,-0.075l-0.108,-0.077l-0.105,-0.079l-0.103,-0.081l-0.1,-0.082l-0.098,-0.085l-0.095,-0.085l-0.093,-0.087l-0.09,-0.088l-0.088,-0.089l-0.086,-0.091l-0.083,-0.09l-0.081,-0.092l-0.079,-0.092l-0.076,-0.093l-0.075,-0.093l-0.072,-0.094l-0.07,-0.093l-0.068,-0.094l-0.066,-0.093l-0.063,-0.093l-0.062,-0.093l-0.06,-0.093l-0.058,-0.092l-0.056,-0.091l-0.054,-0.091l-0.052,-0.09l-0.05,-0.089l-0.049,-0.088l-0.047,-0.087l-0.045,-0.086l-0.043,-0.085l-0.041,-0.083l-0.041,-0.082l-0.073,-0.157l-0.068,-0.15l-0.061,-0.143l-0.055,-0.133l-0.049,-0.124l-0.043,-0.113l-0.037,-0.101l-0.031,-0.089l-0.026,-0.078l-0.034,-0.106l-0.275,-0.921l0.602,-0.458l0.923,0.58l0.166,0.104l0.218,0.134l0.26,0.16l0.294,0.178l0.319,0.19l0.165,0.098l0.168,0.098l0.17,0.098l0.17,0.098l0.169,0.095l0.167,0.094l0.163,0.089l0.159,0.086l0.153,0.08l0.146,0.075l0.136,0.067l0.128,0.061l0.057,0.026l0.055,0.024l0.05,0.022l0.047,0.019l0.042,0.016l0.036,0.013l0.029,0.01l0.021,0.006l0.016,0.001l0.047,-0.001l0.044,-0.003l0.041,-0.004l0.04,-0.006l0.037,-0.007l0.034,-0.007l0.033,-0.009l0.031,-0.01l0.029,-0.011l0.028,-0.011l0.026,-0.013l0.025,-0.013l0.024,-0.014l0.024,-0.015l0.023,-0.016l0.022,-0.017l0.021,-0.018l0.021,-0.019l0.021,-0.02l0.02,-0.021l0.019,-0.023l0.02,-0.024l0.019,-0.026l0.018,-0.027l0.018,-0.028l0.018,-0.029l0.017,-0.031l0.016,-0.033l0.016,-0.033l0.015,-0.035l0.014,-0.036l0.014,-0.038l0.013,-0.038l0.012,-0.039l0.011,-0.041l0.01,-0.041l0.01,-0.042l0.008,-0.043l0.008,-0.044l0.006,-0.044l0.006,-0.045l0.004,-0.045l0.004,-0.045l0.003,-0.046l0.001,-0.046l0.001,-0.046l0,-0.045l-0.002,-0.046l-0.002,-0.046l-0.003,-0.045l-0.004,-0.045l-0.005,-0.044l-0.006,-0.043l-0.007,-0.043l-0.008,-0.043l-0.008,-0.041l-0.009,-0.04l-0.01,-0.04l-0.01,-0.038l-0.012,-0.037l-0.011,-0.035l-0.012,-0.034l-0.014,-0.036l-0.043,-0.106l-0.045,-0.109l-0.046,-0.109l-0.048,-0.109l-0.048,-0.109l-0.049,-0.109l-0.05,-0.108l-0.051,-0.109l-0.052,-0.108l-0.053,-0.108l-0.055,-0.108l-0.055,-0.108l-0.057,-0.108l-0.058,-0.107l-0.059,-0.108l-0.061,-0.107l-0.062,-0.107l-0.063,-0.107l-0.065,-0.107l-0.066,-0.107l-0.067,-0.107l-0.069,-0.107l-0.071,-0.106l-0.072,-0.106l-0.074,-0.107l-0.075,-0.106l-0.077,-0.106l-0.078,-0.105l-0.081,-0.106l-0.082,-0.106l-0.083,-0.105l-0.086,-0.105l-0.087,-0.105l-0.09,-0.105l-0.091,-0.105l-0.093,-0.105l-0.095,-0.105l-0.098,-0.104l-0.099,-0.105l-0.101,-0.104l-0.104,-0.104l-0.105,-0.104l-0.108,-0.104l-0.11,-0.103l-0.112,-0.104l-0.115,-0.103l-0.117,-0.103l-0.119,-0.103l-0.121,-0.103l-0.125,-0.103l-0.126,-0.102l-0.129,-0.102l-0.132,-0.102l-0.134,-0.102l-0.137,-0.102l-0.139,-0.101l-0.142,-0.102l-0.145,-0.101l-0.147,-0.101l-0.151,-0.1l-0.153,-0.101l-0.156,-0.1l-0.159,-0.1l-0.162,-0.1l-0.125,-0.075l-0.124,-0.074l-0.121,-0.072l-0.119,-0.069l-0.116,-0.067l-0.114,-0.064l-0.112,-0.062l-0.11,-0.061l-0.107,-0.058l-0.106,-0.056l-0.103,-0.054l-0.101,-0.051l-0.099,-0.05l-0.097,-0.049l-0.096,-0.046l-0.093,-0.044l-0.091,-0.043l-0.09,-0.041l-0.087,-0.04l-0.086,-0.037l-0.084,-0.037l-0.083,-0.034l-0.081,-0.034l-0.077,-0.031l-0.155,-0.06l-0.148,-0.055l-0.142,-0.05l-0.137,-0.045l-0.132,-0.042l-0.128,-0.038l-0.123,-0.035l-0.12,-0.032l-0.117,-0.029l-0.114,-0.028l-0.112,-0.026l-0.109,-0.024l-0.219,-0.046l-0.214,-0.045l-0.108,-0.023l-0.108,-0.023l-0.109,-0.025l-0.116,-0.028l-0.083,-0.022l-0.088,-0.028l-0.086,-0.033l-0.08,-0.036l-0.049,-0.025l-0.043,-0.025l-0.043,-0.026l-0.043,-0.029l-0.043,-0.032l-0.043,-0.036l-0.042,-0.038l-0.041,-0.042l-0.04,-0.046l-0.038,-0.05l-0.036,-0.054l-0.033,-0.057l-0.029,-0.061l-0.026,-0.064l-0.02,-0.066l-0.016,-0.067l-0.011,-0.068l-0.006,-0.068l0,-0.067l0.004,-0.065l0.008,-0.063l0.011,-0.06l0.015,-0.057l0.018,-0.054l0.019,-0.051l0.025,-0.057l0.043,-0.08l0.051,-0.079l0.053,-0.071l0.056,-0.064l0.056,-0.058l0.059,-0.054l0.059,-0.051l0.061,-0.047l0.062,-0.045l0.064,-0.042l0.065,-0.04l0.066,-0.039l0.069,-0.037l0.07,-0.035l0.071,-0.034l0.073,-0.033l0.075,-0.031l0.076,-0.03l0.078,-0.029l0.08,-0.027l0.081,-0.026l0.082,-0.024l0.084,-0.023l0.086,-0.022l0.087,-0.02l0.088,-0.018l0.09,-0.017l0.09,-0.015l0.092,-0.014l0.093,-0.011l0.094,-0.01l0.096,-0.007l0.096,-0.006l0.097,-0.003l0.098,-0.001l0.098,0.001l0.1,0.004l0.1,0.006l0.1,0.009l0.101,0.012l0.101,0.014l0.102,0.018l0.102,0.02l0.102,0.024l0.032,0.008l0.004,-0.008l0.017,-0.036l0.017,-0.038l0.017,-0.042l0.018,-0.044l0.018,-0.047l0.018,-0.05l0.019,-0.053l0.018,-0.053l0.039,-0.119l0.038,-0.126l0.039,-0.135l0.039,-0.142l0.039,-0.15l0.04,-0.158l0.04,-0.163l0.041,-0.17l0.083,-0.359l0.085,-0.379l0.09,-0.398l0.094,-0.415l0.041,-0.175l0.044,-0.177l0.046,-0.176l0.048,-0.177l0.049,-0.177l0.052,-0.177l0.054,-0.177l0.055,-0.176l0.057,-0.176l0.058,-0.176l0.06,-0.175l0.062,-0.175l0.062,-0.174l0.064,-0.174l0.064,-0.173l0.066,-0.172l0.067,-0.172l0.067,-0.17l0.069,-0.17l0.068,-0.168l0.07,-0.167l0.07,-0.166l0.07,-0.165l0.071,-0.164l0.142,-0.322l0.142,-0.316l0.142,-0.31l0.141,-0.303l0.042,-0.087l0.045,-0.091l0.046,-0.091l0.048,-0.093l0.05,-0.094l0.052,-0.096l0.054,-0.097l0.056,-0.098l0.057,-0.1l0.06,-0.102l0.122,-0.205l0.13,-0.212l0.136,-0.216l0.142,-0.221l0.148,-0.226l0.153,-0.23l0.158,-0.234l0.164,-0.238l0.167,-0.241l0.172,-0.245l0.177,-0.247l0.179,-0.25l0.183,-0.252l0.186,-0.255l0.189,-0.255l0.192,-0.257l0.193,-0.259l0.196,-0.258l0.197,-0.26l0.198,-0.259l0.199,-0.259l0.2,-0.258l0.2,-0.258l0.4,-0.511l0.397,-0.504l0.393,-0.493l0.385,-0.481l0.375,-0.466l0.363,-0.447l0.347,-0.427l0.331,-0.404l0.31,-0.378l0.289,-0.35l0.498,-0.603l0.378,-0.457l0.137,-0.166l0.093,-0.114l0.325,-0.929l1.367,0.434l-0.332,1.166l-0.013,0.02l-0.001,0.004l-0.088,0.242l-0.136,0.372l-0.179,0.482l-0.214,0.572l-0.242,0.64l-0.129,0.339l-0.133,0.347l-0.137,0.354l-0.139,0.357l-0.14,0.358l-0.142,0.356l-0.14,0.351l-0.14,0.345l-0.138,0.334l-0.135,0.322l-0.131,0.307l-0.127,0.289l-0.061,0.139l-0.061,0.133l-0.058,0.127l-0.058,0.121l-0.056,0.116l-0.054,0.11l-0.053,0.104l-0.052,0.098l-0.052,0.093l-0.051,0.087l-0.052,0.084l-0.052,0.077l-0.032,0.044l-0.032,0.041l-0.037,0.043l-0.042,0.045l-0.051,0.049l-0.066,0.053l-0.088,0.058l-0.083,0.04l-0.104,0.039l-0.067,0.028l-0.065,0.029l-0.064,0.031l-0.063,0.032l-0.062,0.034l-0.061,0.035l-0.06,0.037l-0.058,0.038l-0.059,0.04l-0.057,0.041l-0.056,0.043l-0.056,0.045l-0.055,0.046l-0.055,0.047l-0.054,0.049l-0.054,0.051l-0.053,0.052l-0.052,0.053l-0.052,0.056l-0.052,0.056l-0.051,0.059l-0.051,0.059l-0.05,0.062l-0.05,0.063l-0.05,0.064l-0.05,0.065l-0.049,0.067l-0.049,0.069l-0.048,0.07l-0.049,0.071l-0.048,0.072l-0.048,0.073l-0.048,0.075l-0.047,0.076l-0.047,0.076l-0.096,0.159l-0.095,0.161l-0.094,0.166l-0.095,0.169l-0.096,0.172l-0.096,0.175l-0.197,0.357l-0.1,0.182l-0.103,0.183l-0.105,0.185l-0.107,0.186l-0.111,0.186l-0.111,0.183l-0.091,0.149l-0.087,0.147l-0.087,0.149l-0.085,0.151l-0.083,0.152l-0.083,0.154l-0.081,0.155l-0.081,0.157l-0.079,0.158l-0.078,0.16l-0.076,0.161l-0.076,0.163l-0.074,0.164l-0.073,0.165l-0.072,0.166l-0.071,0.167l-0.07,0.169l-0.068,0.17l-0.067,0.17l-0.066,0.172l-0.065,0.172l-0.064,0.174l-0.062,0.174l-0.062,0.175l-0.06,0.176l-0.059,0.176l-0.058,0.178l-0.057,0.177l-0.055,0.179l-0.055,0.178l-0.053,0.18l-0.051,0.176l-0.024,0.087l-0.02,0.083l-0.018,0.082l-0.015,0.082l-0.013,0.082l-0.011,0.081l-0.008,0.081l-0.006,0.081l-0.004,0.081l-0.002,0.08l0.001,0.081l0.002,0.08l0.005,0.081l0.007,0.08l0.009,0.081l0.011,0.081l0.014,0.081l0.015,0.082l0.018,0.081l0.019,0.082l0.022,0.083l0.024,0.082l0.026,0.083l0.028,0.084l0.03,0.083l0.032,0.085l0.034,0.084l0.036,0.085l0.038,0.085l0.041,0.086l0.042,0.086l0.044,0.086l0.047,0.087l0.048,0.087l0.05,0.088l0.053,0.088l0.054,0.088l0.056,0.088l0.058,0.089l0.059,0.089l0.062,0.09l0.063,0.089l0.065,0.09l0.067,0.091l0.068,0.09l0.07,0.091l0.072,0.091l0.073,0.091l0.075,0.092l0.076,0.092l0.078,0.092l0.08,0.092l0.08,0.093l0.083,0.093l0.083,0.093l0.085,0.093l0.086,0.093l0.087,0.093l0.179,0.189l0.183,0.189l0.187,0.19l0.192,0.191l0.195,0.192l0.199,0.192l0.201,0.194l0.205,0.195l0.207,0.195l0.422,0.395l0.863,0.802l0.436,0.408l0.219,0.206l0.219,0.208l0.218,0.209l0.217,0.21l0.217,0.213l0.215,0.213l0.214,0.216l0.212,0.217l0.185,0.193l-0.057,-0.258l-0.138,-0.611l-0.137,-0.596l-0.131,-0.561l-0.119,-0.505l-0.102,-0.429l-0.079,-0.331l-0.303,-1.258l0.97,-0.454l0.716,0.962l0.142,0.192l0.186,0.254l0.224,0.307l0.254,0.352l0.276,0.387l0.145,0.205l0.148,0.21l0.15,0.216l0.152,0.218l0.152,0.222l0.152,0.223l0.151,0.224l0.148,0.223l0.146,0.222l0.142,0.22l0.137,0.216l0.132,0.212l0.126,0.207l0.118,0.2l0.058,0.099l0.054,0.096l0.053,0.095l0.05,0.092l0.049,0.091l0.045,0.089l0.044,0.088l0.093,0.193l0.035,0.303l0.024,0.203l0.034,0.267l0.043,0.32l0.025,0.175l0.026,0.185l0.029,0.192l0.03,0.198l0.033,0.202l0.034,0.206l0.036,0.208l0.038,0.208l0.039,0.206l0.041,0.204l0.042,0.2l0.043,0.195l0.022,0.093l0.022,0.092l0.023,0.09l0.023,0.087l0.022,0.085l0.023,0.081l0.023,0.079l0.023,0.074l0.023,0.071l0.023,0.067l0.022,0.062l0.022,0.058l0.021,0.052l0.02,0.046l0.019,0.04l0.017,0.034l0.014,0.025l0.011,0.018l0.008,0.012l0,0l0.116,0.137l0.119,0.139l0.12,0.137l0.12,0.134l0.12,0.131l0.121,0.13l0.121,0.127l0.122,0.125l0.122,0.122l0.122,0.121l0.123,0.118l0.123,0.116l0.124,0.114l0.123,0.112l0.125,0.11l0.124,0.109l0.125,0.106l0.125,0.104l0.125,0.103l0.126,0.1l0.125,0.099l0.127,0.098l0.126,0.095l0.127,0.094l0.127,0.092l0.127,0.091l0.127,0.089l0.128,0.088l0.128,0.086l0.128,0.085l0.128,0.083l0.129,0.082l0.129,0.081l0.129,0.079l0.129,0.078l0.129,0.077l0.13,0.075l0.129,0.075l0.13,0.073l0.13,0.072l0.13,0.071l0.131,0.07l0.13,0.07l0.13,0.068l0.131,0.067l0.029,0.015l-0.274,-0.382l-0.476,-0.661l-0.493,-0.685l-0.499,-0.696l-0.493,-0.688l-0.474,-0.667l-0.227,-0.321l-0.217,-0.31l-0.208,-0.297l-0.195,-0.282l-0.182,-0.265l-0.167,-0.247l-0.152,-0.227l-0.136,-0.209l-0.052,-0.084l-0.028,-0.047l-0.025,-0.045l-0.023,-0.045l-0.023,-0.047l-0.022,-0.051l-0.022,-0.055l-0.02,-0.062l-0.019,-0.074l-0.015,-0.089l-0.005,-0.111l0.013,-0.138l0.05,-0.165l0.1,-0.172l0.148,-0.146l0.169,-0.095l0.156,-0.047l0.13,-0.014l0.105,0.003l0.084,0.012l0.069,0.015l0.059,0.017l0.052,0.018l0.047,0.018l0.048,0.021l0.077,0.037l0.077,0.041l0.077,0.045l0.078,0.047l0.08,0.051l0.082,0.054l0.085,0.057l0.087,0.061l0.09,0.064l0.093,0.067l0.097,0.071l0.198,0.147l0.209,0.157l0.216,0.166l0.222,0.172l0.456,0.354l0.462,0.359l0.227,0.176l0.224,0.172l0.216,0.165l0.209,0.156l0.199,0.146l0.093,0.068l0.091,0.065l0.087,0.061l0.082,0.056l0.078,0.053l0.073,0.048l0.042,0.026l0.025,-0.025l0.038,-0.04l0.038,-0.04l0.085,-0.093l0.088,-0.101l0.093,-0.108l0.095,-0.114l0.098,-0.12l0.099,-0.124l0.1,-0.127l0.101,-0.13l0.101,-0.131l0.099,-0.131l0.099,-0.13l0.192,-0.258l0.18,-0.244l0.31,-0.421l0.123,-0.165l0.054,-0.072l0.045,-0.057l0.045,-0.058l0.042,-0.055l0.042,-0.056l0.042,-0.059l0.042,-0.06l0.042,-0.062l0.042,-0.063l0.042,-0.065l0.042,-0.066l0.042,-0.067l0.041,-0.069l0.042,-0.07l0.041,-0.071l0.04,-0.071l0.083,-0.149l0.08,-0.152l0.08,-0.154l0.078,-0.157l0.077,-0.16l0.076,-0.161l0.074,-0.163l0.072,-0.163l0.071,-0.164l0.069,-0.164l0.067,-0.164l0.066,-0.163l0.063,-0.161l0.062,-0.16l0.059,-0.157l0.057,-0.155l0.055,-0.151l0.053,-0.148l0.05,-0.145l0.048,-0.14l0.046,-0.134l0.084,-0.255l0.076,-0.238l0.022,-0.067l0.029,-0.073l0.025,-0.053l0.029,-0.054l0.043,-0.068l0.07,-0.086l0.122,-0.109l0.215,-0.112l0.312,-0.032l0.293,0.102l0.183,0.153Z" style="fill:#515151;"/></g><g><path d="M69.534,44.908l0.06,0.005l0.06,0.007l0.065,0.008l0.133,0.02l0.15,0.024l0.165,0.029l0.179,0.033l0.191,0.036l0.203,0.04l0.212,0.042l0.221,0.045l0.457,0.095l0.47,0.1l0.468,0.101l0.451,0.099l0.421,0.093l0.377,0.084l0.492,0.111l0.021,-0.013l0.084,-0.054l0.08,-0.054l0.079,-0.056l0.077,-0.058l0.076,-0.06l0.075,-0.061l0.073,-0.064l0.072,-0.064l0.07,-0.066l0.069,-0.068l0.068,-0.069l0.067,-0.07l0.065,-0.071l0.063,-0.072l0.063,-0.073l0.061,-0.073l0.059,-0.075l0.058,-0.075l0.057,-0.075l0.016,-0.024l-0.091,0.052l-0.175,0.098l-0.174,0.095l-0.17,0.092l-0.167,0.088l-0.162,0.083l-0.157,0.077l-0.149,0.071l-0.075,0.034l-0.072,0.032l-0.071,0.03l-0.069,0.028l-0.068,0.027l-0.068,0.025l-0.068,0.023l-0.07,0.021l-0.071,0.019l-0.076,0.016l-0.085,0.013l-0.083,0.007l-0.116,0.002l-0.103,-0.002l-0.102,-0.007l-0.101,-0.01l-0.099,-0.014l-0.098,-0.018l-0.096,-0.021l-0.094,-0.026l-0.093,-0.029l-0.09,-0.033l-0.088,-0.037l-0.086,-0.04l-0.084,-0.044l-0.08,-0.047l-0.078,-0.05l-0.075,-0.052l-0.073,-0.056l-0.069,-0.058l-0.066,-0.06l-0.064,-0.063l-0.06,-0.064l-0.058,-0.066l-0.054,-0.068l-0.051,-0.069l-0.049,-0.071l-0.046,-0.072l-0.043,-0.072l-0.04,-0.074l-0.038,-0.075l-0.035,-0.075l-0.033,-0.076l-0.031,-0.076l-0.028,-0.077l-0.026,-0.077l-0.023,-0.078l-0.022,-0.078l-0.019,-0.078l-0.018,-0.078l-0.015,-0.079l-0.014,-0.078l-0.012,-0.079l-0.009,-0.079l-0.008,-0.078l-0.007,-0.079l-0.004,-0.078l-0.003,-0.078l-0.001,-0.078l0.001,-0.078l0.002,-0.078l0.004,-0.077l0.005,-0.077l0.007,-0.076l0.009,-0.076l0.01,-0.076l0.012,-0.075l0.013,-0.075l0.015,-0.074l0.017,-0.073l0.018,-0.073l0.02,-0.072l0.022,-0.072l0.023,-0.071l0.025,-0.07l0.025,-0.066l0.05,-0.123l0.05,-0.119l0.05,-0.12l0.052,-0.119l0.053,-0.12l0.054,-0.12l0.055,-0.12l0.057,-0.12l0.057,-0.12l0.06,-0.12l0.06,-0.12l0.062,-0.12l0.063,-0.12l0.065,-0.121l0.067,-0.12l0.067,-0.12l0.07,-0.12l0.071,-0.12l0.072,-0.12l0.074,-0.12l0.076,-0.12l0.078,-0.119l0.079,-0.12l0.081,-0.12l0.083,-0.119l0.084,-0.119l0.087,-0.119l0.088,-0.119l0.09,-0.119l0.092,-0.118l0.094,-0.119l0.096,-0.118l0.098,-0.118l0.101,-0.118l0.102,-0.117l0.104,-0.117l0.106,-0.117l0.109,-0.117l0.11,-0.116l0.113,-0.116l0.115,-0.116l0.118,-0.116l0.119,-0.115l0.122,-0.115l0.124,-0.114l0.127,-0.114l0.129,-0.114l0.131,-0.114l0.134,-0.113l0.136,-0.112l0.139,-0.113l0.141,-0.112l0.144,-0.111l0.147,-0.111l0.149,-0.111l0.151,-0.111l0.154,-0.109l0.157,-0.11l0.16,-0.109l0.162,-0.109l0.165,-0.108l0.168,-0.108l0.171,-0.107l0.173,-0.107l0.134,-0.081l0.131,-0.078l0.129,-0.076l0.126,-0.074l0.125,-0.071l0.122,-0.069l0.121,-0.067l0.118,-0.065l0.116,-0.063l0.115,-0.061l0.112,-0.058l0.111,-0.057l0.108,-0.055l0.107,-0.053l0.105,-0.051l0.104,-0.05l0.101,-0.047l0.1,-0.046l0.099,-0.044l0.096,-0.043l0.095,-0.041l0.094,-0.039l0.092,-0.038l0.092,-0.037l0.175,-0.068l0.171,-0.063l0.165,-0.058l0.159,-0.053l0.155,-0.049l0.149,-0.045l0.029,-0.008l-0.028,0.002l-0.061,0.006l-0.061,0.007l-0.06,0.008l-0.06,0.01l-0.058,0.012l-0.058,0.014l-0.057,0.015l-0.056,0.017l-0.074,0.024l-0.068,0.022l-0.09,0.02l-0.095,0.014l-0.097,0.006l-0.098,-0.003l-0.097,-0.012l-0.096,-0.021l-0.092,-0.029l-0.087,-0.035l-0.081,-0.041l-0.075,-0.046l-0.069,-0.049l-0.064,-0.052l-0.058,-0.054l-0.054,-0.055l-0.049,-0.056l-0.046,-0.057l-0.042,-0.057l-0.04,-0.059l-0.037,-0.058l-0.035,-0.06l-0.033,-0.06l-0.032,-0.062l-0.031,-0.062l-0.029,-0.063l-0.028,-0.064l-0.028,-0.065l-0.026,-0.066l-0.026,-0.067l-0.025,-0.068l-0.025,-0.07l-0.024,-0.072l-0.047,-0.143l-0.046,-0.15l-0.044,-0.155l-0.044,-0.16l-0.043,-0.164l-0.043,-0.169l-0.042,-0.174l-0.043,-0.179l-0.085,-0.368l-0.087,-0.384l-0.089,-0.397l-0.092,-0.407l-0.038,-0.161l-0.04,-0.16l-0.041,-0.161l-0.044,-0.161l-0.046,-0.163l-0.048,-0.162l-0.049,-0.164l-0.052,-0.163l-0.052,-0.164l-0.055,-0.164l-0.056,-0.164l-0.057,-0.164l-0.059,-0.164l-0.06,-0.164l-0.062,-0.164l-0.062,-0.163l-0.063,-0.163l-0.064,-0.162l-0.065,-0.162l-0.066,-0.16l-0.067,-0.161l-0.067,-0.159l-0.067,-0.158l-0.068,-0.157l-0.137,-0.311l-0.138,-0.306l-0.137,-0.3l-0.137,-0.293l-0.035,-0.073l-0.036,-0.074l-0.04,-0.077l-0.041,-0.08l-0.043,-0.082l-0.046,-0.084l-0.048,-0.086l-0.05,-0.088l-0.052,-0.091l-0.053,-0.091l-0.114,-0.191l-0.121,-0.197l-0.128,-0.204l-0.135,-0.209l-0.141,-0.216l-0.147,-0.22l-0.152,-0.226l-0.158,-0.23l-0.163,-0.234l-0.167,-0.237l-0.172,-0.242l-0.175,-0.244l-0.179,-0.247l-0.183,-0.249l-0.185,-0.251l-0.188,-0.253l-0.191,-0.254l-0.192,-0.255l-0.195,-0.255l-0.195,-0.256l-0.197,-0.256l-0.197,-0.256l-0.198,-0.254l-0.396,-0.506l-0.394,-0.499l-0.389,-0.49l-0.382,-0.477l-0.294,-0.365l0.068,0.172l0.138,0.346l0.138,0.338l0.134,0.327l0.131,0.313l0.127,0.296l0.121,0.278l0.058,0.129l0.056,0.124l0.055,0.117l0.052,0.11l0.049,0.103l0.047,0.095l0.044,0.086l0.04,0.076l0.037,0.066l0.025,0.043l0.022,0.009l0.102,0.045l0.1,0.048l0.098,0.05l0.096,0.053l0.094,0.054l0.092,0.057l0.09,0.058l0.088,0.061l0.086,0.062l0.085,0.064l0.082,0.065l0.081,0.068l0.079,0.068l0.077,0.07l0.076,0.072l0.074,0.073l0.072,0.073l0.071,0.075l0.069,0.077l0.068,0.077l0.066,0.078l0.065,0.079l0.064,0.08l0.063,0.081l0.061,0.081l0.061,0.083l0.059,0.083l0.058,0.083l0.058,0.084l0.056,0.085l0.056,0.086l0.055,0.085l0.054,0.087l0.054,0.087l0.104,0.173l0.103,0.176l0.102,0.177l0.099,0.177l0.099,0.178l0.099,0.178l0.195,0.356l0.098,0.177l0.099,0.177l0.099,0.175l0.101,0.174l0.102,0.172l0.106,0.175l0.095,0.156l0.096,0.161l0.095,0.163l0.093,0.165l0.091,0.166l0.09,0.168l0.089,0.168l0.087,0.17l0.085,0.172l0.084,0.172l0.083,0.174l0.081,0.175l0.08,0.176l0.078,0.177l0.077,0.178l0.076,0.179l0.074,0.18l0.073,0.181l0.072,0.182l0.07,0.183l0.069,0.183l0.068,0.184l0.066,0.185l0.065,0.185l0.064,0.186l0.062,0.186l0.061,0.187l0.06,0.188l0.059,0.187l0.057,0.189l0.056,0.188l0.056,0.193l0.033,0.119l0.029,0.122l0.027,0.123l0.023,0.122l0.019,0.122l0.016,0.123l0.013,0.122l0.009,0.121l0.006,0.122l0.002,0.121l-0.001,0.121l-0.004,0.12l-0.007,0.12l-0.01,0.12l-0.014,0.119l-0.016,0.118l-0.019,0.118l-0.023,0.117l-0.025,0.117l-0.027,0.116l-0.031,0.115l-0.033,0.115l-0.035,0.114l-0.038,0.113l-0.041,0.113l-0.043,0.112l-0.045,0.112l-0.047,0.111l-0.05,0.11l-0.051,0.11l-0.054,0.109l-0.056,0.108l-0.057,0.108l-0.06,0.108l-0.061,0.107l-0.064,0.106l-0.065,0.106l-0.066,0.106l-0.069,0.105l-0.07,0.104l-0.072,0.105l-0.073,0.104l-0.075,0.103l-0.076,0.104l-0.078,0.102l-0.079,0.103l-0.081,0.102l-0.082,0.102l-0.083,0.102l-0.084,0.102l-0.086,0.101l-0.087,0.101l-0.088,0.101l-0.089,0.101l-0.09,0.1l-0.092,0.101l-0.092,0.1l-0.094,0.101l-0.189,0.199l-0.193,0.2l-0.197,0.199l-0.2,0.199l-0.202,0.199l-0.205,0.199l-0.208,0.199l-0.209,0.199l-0.211,0.199l-0.426,0.399l-0.863,0.802l-0.432,0.404l-0.215,0.203l-0.214,0.203l-0.213,0.204l-0.212,0.205l-0.21,0.206l-0.207,0.206l-0.206,0.207l-0.203,0.208l-0.201,0.21l-0.098,0.104l-0.099,0.105l-0.097,0.105l-0.096,0.105l-0.096,0.106l-0.095,0.106l-0.093,0.106l-0.093,0.106l-0.092,0.107l-0.09,0.106l-0.09,0.107l-0.088,0.108l-0.087,0.107l-0.086,0.108l-0.085,0.108l-0.084,0.108l-0.082,0.109l-0.09,0.121l-0.039,0.048l-0.072,0.075l-0.123,0.093l-0.219,0.097l-0.33,0.012l-0.311,-0.146l-0.174,-0.197l-0.075,-0.154l-0.032,-0.107l-0.014,-0.079l-0.007,-0.061l-0.003,-0.057l0,-0.079l0.004,-0.079l0.006,-0.077l0.009,-0.079l0.011,-0.083l0.012,-0.087l0.014,-0.093l0.016,-0.099l0.037,-0.209l0.043,-0.23l0.048,-0.248l0.053,-0.264l0.058,-0.278l0.061,-0.288l0.065,-0.298l0.054,-0.249l-0.018,0.027l-0.144,0.216l-0.14,0.214l-0.136,0.21l-0.131,0.206l-0.124,0.2l-0.117,0.192l-0.11,0.185l-0.05,0.087l-0.049,0.086l-0.046,0.083l-0.043,0.079l-0.04,0.076l-0.037,0.072l-0.014,0.027l-0.006,0.054l-0.026,0.213l-0.035,0.276l-0.044,0.33l-0.026,0.182l-0.027,0.191l-0.03,0.2l-0.032,0.206l-0.033,0.211l-0.036,0.215l-0.038,0.219l-0.04,0.219l-0.042,0.22l-0.043,0.219l-0.046,0.216l-0.047,0.212l-0.025,0.106l-0.025,0.103l-0.026,0.102l-0.026,0.101l-0.026,0.099l-0.028,0.097l-0.028,0.095l-0.029,0.094l-0.029,0.091l-0.031,0.09l-0.031,0.088l-0.033,0.085l-0.033,0.084l-0.036,0.082l-0.037,0.081l-0.04,0.079l-0.044,0.078l-0.047,0.078l-0.049,0.072l-0.033,0.043l-0.027,0.035l-0.132,0.157l-0.13,0.151l-0.13,0.148l-0.131,0.146l-0.131,0.143l-0.132,0.141l-0.132,0.138l-0.132,0.136l-0.133,0.134l-0.134,0.131l-0.134,0.129l-0.134,0.127l-0.135,0.125l-0.135,0.122l-0.136,0.12l-0.135,0.119l-0.137,0.115l-0.136,0.114l-0.137,0.112l-0.137,0.11l-0.137,0.108l-0.137,0.106l-0.138,0.104l-0.138,0.102l-0.138,0.101l-0.139,0.098l-0.138,0.097l-0.139,0.095l-0.138,0.094l-0.139,0.091l-0.139,0.091l-0.139,0.088l-0.139,0.087l-0.139,0.086l-0.139,0.084l-0.139,0.082l-0.139,0.081l-0.139,0.08l-0.139,0.079l-0.139,0.077l-0.139,0.076l-0.139,0.075l-0.138,0.073l-0.139,0.072l-0.138,0.072l-0.139,0.07l-0.138,0.069l-0.138,0.068l-0.275,0.133l-0.274,0.13l-0.273,0.127l-0.272,0.123l-0.271,0.121l-0.27,0.118l-0.268,0.116l-0.329,0.142l-0.39,0.087l-0.56,-0.382l-0.047,-0.474l0.043,-0.187l0.046,-0.11l0.037,-0.071l0.033,-0.057l0.036,-0.058l0.079,-0.122l0.1,-0.148l0.118,-0.172l0.136,-0.196l0.154,-0.218l0.169,-0.24l0.184,-0.258l0.406,-0.567l0.447,-0.622l0.476,-0.662l0.493,-0.685l0.498,-0.693l0.277,-0.388l-0.032,0.025l-0.218,0.163l-0.21,0.154l-0.102,0.075l-0.1,0.071l-0.097,0.068l-0.095,0.065l-0.092,0.062l-0.09,0.058l-0.087,0.056l-0.085,0.052l-0.084,0.048l-0.083,0.046l-0.084,0.042l-0.081,0.037l-0.05,0.021l-0.049,0.017l-0.052,0.017l-0.066,0.019l-0.077,0.014l-0.084,0.008l-0.077,-0.001l-0.071,-0.006l-0.064,-0.011l-0.067,-0.016l-0.09,-0.03l-0.086,-0.037l-0.073,-0.039l-0.066,-0.04l-0.061,-0.04l-0.057,-0.042l-0.054,-0.043l-0.052,-0.044l-0.052,-0.045l-0.051,-0.047l-0.05,-0.048l-0.051,-0.05l-0.05,-0.051l-0.051,-0.053l-0.052,-0.055l-0.101,-0.111l-0.104,-0.119l-0.105,-0.123l-0.106,-0.127l-0.107,-0.131l-0.107,-0.134l-0.107,-0.135l-0.107,-0.137l-0.105,-0.138l-0.104,-0.137l-0.103,-0.135l-0.196,-0.264l-0.183,-0.247l-0.308,-0.42l-0.116,-0.155l-0.044,-0.058l-0.038,-0.049l-0.052,-0.065l-0.055,-0.072l-0.054,-0.074l-0.053,-0.074l-0.053,-0.076l-0.052,-0.076l-0.051,-0.078l-0.051,-0.078l-0.05,-0.079l-0.05,-0.081l-0.049,-0.081l-0.049,-0.081l-0.025,-0.045l0.013,0.078l0.015,0.083l0.015,0.077l0.015,0.072l0.014,0.064l0.013,0.057l0.012,0.049l0.011,0.039l0.009,0.028l0.005,0.014l0.004,0.011l0.07,0.157l0.075,0.17l0.074,0.173l0.073,0.173l0.072,0.173l0.071,0.174l0.07,0.173l0.069,0.173l0.067,0.172l0.065,0.171l0.064,0.168l0.062,0.167l0.059,0.165l0.058,0.161l0.055,0.159l0.053,0.155l0.051,0.151l0.047,0.147l0.045,0.143l0.042,0.138l0.039,0.133l0.035,0.128l0.033,0.123l0.029,0.118l0.025,0.114l0.022,0.109l0.018,0.102l0.008,0.056l0.006,0.053l0.005,0.053l0.004,0.055l0.001,0.057l0,0.061l-0.004,0.066l-0.01,0.075l-0.018,0.086l-0.024,0.076l-0.142,0.364l-0.134,0.339l-0.132,0.334l-0.131,0.328l-0.252,0.626l-0.234,0.573l-0.108,0.263l-0.101,0.243l-0.093,0.223l-0.085,0.199l-0.075,0.175l-0.066,0.15l-0.056,0.124l-0.044,0.094l-0.164,0.329l-0.143,0.291l-0.129,0.262l-0.062,0.123l-0.06,0.117l-0.058,0.112l-0.058,0.107l-0.058,0.104l-0.059,0.1l-0.06,0.097l-0.061,0.095l-0.063,0.089l-0.035,0.048l-0.034,0.044l-0.036,0.044l-0.036,0.043l-0.037,0.042l-0.038,0.042l-0.039,0.041l-0.041,0.039l-0.041,0.039l-0.043,0.038l-0.043,0.037l-0.044,0.036l-0.045,0.035l-0.046,0.033l-0.047,0.033l-0.047,0.031l-0.048,0.03l-0.049,0.029l-0.049,0.029l-0.05,0.027l-0.05,0.026l-0.054,0.026l-0.1,0.047l-0.106,0.046l-0.109,0.043l-0.113,0.043l-0.116,0.041l-0.121,0.041l-0.138,0.045l-0.135,0.043l-0.131,0.04l-0.128,0.037l-0.125,0.035l-0.122,0.034l-0.118,0.03l-0.115,0.029l-0.111,0.027l-0.107,0.025l-0.104,0.023l-0.099,0.021l-0.096,0.019l-0.094,0.018l-0.17,0.031l-0.154,0.025l-0.138,0.02l-0.119,0.015l-0.101,0.011l-0.082,0.008l-0.063,0.005l-0.048,0.004l-0.147,-0.006l-0.144,-0.033l-0.133,-0.061l-0.12,-0.086l-0.1,-0.108l-0.077,-0.125l-0.052,-0.137l-0.023,-0.145l0.005,-0.147l0.033,-0.143l0.061,-0.134l0.086,-0.12l0.108,-0.1l0.125,-0.077l0.137,-0.052l0.145,-0.023l0.035,-0.003l0.039,-0.003l0.059,-0.006l0.078,-0.008l0.095,-0.012l0.113,-0.017l0.13,-0.021l0.147,-0.026l0.078,-0.015l0.082,-0.017l0.087,-0.018l0.09,-0.02l0.093,-0.022l0.098,-0.023l0.1,-0.026l0.105,-0.027l0.107,-0.029l0.111,-0.031l0.114,-0.034l0.117,-0.035l0.12,-0.038l0.122,-0.04l0.103,-0.035l0.094,-0.033l0.084,-0.032l0.077,-0.031l0.068,-0.029l0.063,-0.029l0.024,-0.013l0.026,-0.013l0.024,-0.013l0.022,-0.013l0.021,-0.012l0.02,-0.013l0.018,-0.012l0.018,-0.012l0.016,-0.012l0.016,-0.012l0.016,-0.013l0.014,-0.012l0.015,-0.013l0.014,-0.014l0.015,-0.014l0.014,-0.015l0.015,-0.016l0.015,-0.017l0.015,-0.019l0.016,-0.019l0.017,-0.021l0.014,-0.021l0.038,-0.053l0.037,-0.057l0.04,-0.065l0.043,-0.073l0.045,-0.08l0.048,-0.089l0.051,-0.098l0.054,-0.106l0.057,-0.114l0.127,-0.256l0.143,-0.291l0.159,-0.322l0.034,-0.07l0.046,-0.103l0.06,-0.136l0.072,-0.167l0.082,-0.193l0.091,-0.217l0.099,-0.239l0.106,-0.258l0.232,-0.568l0.249,-0.62l0.13,-0.325l0.131,-0.331l0.132,-0.336l0.088,-0.224l-0.01,-0.059l-0.014,-0.07l-0.018,-0.082l-0.023,-0.092l-0.027,-0.101l-0.03,-0.109l-0.034,-0.117l-0.037,-0.123l-0.041,-0.129l-0.044,-0.135l-0.046,-0.14l-0.05,-0.145l-0.052,-0.149l-0.054,-0.152l-0.056,-0.156l-0.059,-0.158l-0.061,-0.161l-0.062,-0.163l-0.064,-0.164l-0.066,-0.165l-0.067,-0.166l-0.068,-0.166l-0.068,-0.165l-0.07,-0.165l-0.071,-0.164l-0.071,-0.162l-0.076,-0.173l-0.027,-0.066l-0.027,-0.077l-0.024,-0.075l-0.021,-0.077l-0.02,-0.079l-0.02,-0.083l-0.018,-0.085l-0.018,-0.089l-0.018,-0.093l-0.018,-0.097l-0.017,-0.1l-0.017,-0.105l-0.034,-0.216l-0.033,-0.229l-0.031,-0.24l-0.031,-0.247l-0.03,-0.255l-0.029,-0.259l-0.027,-0.262l-0.026,-0.263l-0.024,-0.262l-0.022,-0.259l-0.021,-0.254l-0.018,-0.247l-0.016,-0.237l-0.014,-0.228l-0.011,-0.214l-0.008,-0.201l-0.006,-0.185l-0.002,-0.167l0,-0.08l0.001,-0.075l0.002,-0.071l0.004,-0.069l0.005,-0.069l0.008,-0.072l0.014,-0.082l0.024,-0.093l0.031,-0.084l0.048,-0.097l0.093,-0.131l0.182,-0.153l0.295,-0.102l0.311,0.032l0.216,0.112l0.121,0.109l0.07,0.086l0.043,0.068l0.029,0.054l0.025,0.053l0.029,0.073l0.022,0.067l0.076,0.238l0.084,0.255l0.046,0.134l0.048,0.14l0.05,0.145l0.053,0.148l0.055,0.151l0.057,0.155l0.059,0.157l0.062,0.16l0.063,0.161l0.066,0.163l0.067,0.164l0.069,0.164l0.071,0.164l0.072,0.163l0.074,0.163l0.076,0.161l0.077,0.16l0.078,0.157l0.08,0.154l0.08,0.152l0.083,0.149l0.04,0.071l0.041,0.071l0.042,0.07l0.041,0.069l0.042,0.067l0.042,0.066l0.042,0.065l0.042,0.063l0.042,0.062l0.042,0.06l0.042,0.059l0.042,0.056l0.042,0.055l0.045,0.058l0.045,0.057l0.054,0.072l0.123,0.165l0.31,0.421l0.18,0.244l0.192,0.258l0.099,0.13l0.099,0.131l0.101,0.131l0.101,0.13l0.1,0.127l0.099,0.124l0.098,0.12l0.095,0.114l0.093,0.108l0.088,0.101l0.085,0.093l0.038,0.041l0.038,0.039l0.025,0.025l0.042,-0.026l0.073,-0.048l0.078,-0.053l0.082,-0.056l0.087,-0.061l0.091,-0.065l0.093,-0.068l0.199,-0.146l0.209,-0.156l0.216,-0.165l0.224,-0.172l0.227,-0.176l0.462,-0.359l0.456,-0.354l0.222,-0.172l0.216,-0.166l0.209,-0.157l0.198,-0.147l0.097,-0.071l0.093,-0.067l0.09,-0.064l0.087,-0.061l0.085,-0.057l0.082,-0.054l0.08,-0.051l0.078,-0.047l0.077,-0.045l0.077,-0.041l0.077,-0.037l0.048,-0.021l0.047,-0.018l0.052,-0.018l0.059,-0.017l0.069,-0.015l0.084,-0.012l0.105,-0.003l0.13,0.014l0.156,0.047l0.169,0.095l0.148,0.146l0.1,0.172l0.05,0.165l0.013,0.138l-0.005,0.111l-0.015,0.089l-0.019,0.074l-0.02,0.062l-0.022,0.055l-0.022,0.051l-0.023,0.047l-0.023,0.045l-0.025,0.045l-0.028,0.047l-0.052,0.084l-0.136,0.209l-0.152,0.227l-0.167,0.247l-0.182,0.265l-0.195,0.282l-0.208,0.297l-0.217,0.31l-0.227,0.321l-0.474,0.667l-0.493,0.688l-0.499,0.696l-0.493,0.685l-0.476,0.661l-0.274,0.382l0.029,-0.015l0.131,-0.067l0.13,-0.068l0.13,-0.07l0.131,-0.07l0.13,-0.071l0.13,-0.072l0.13,-0.073l0.129,-0.075l0.13,-0.075l0.129,-0.077l0.129,-0.078l0.129,-0.079l0.129,-0.081l0.129,-0.082l0.128,-0.083l0.128,-0.085l0.128,-0.086l0.128,-0.088l0.127,-0.089l0.127,-0.091l0.127,-0.092l0.127,-0.094l0.126,-0.095l0.127,-0.098l0.125,-0.099l0.126,-0.1l0.125,-0.103l0.125,-0.104l0.125,-0.106l0.124,-0.109l0.125,-0.11l0.123,-0.112l0.124,-0.114l0.123,-0.116l0.123,-0.118l0.122,-0.121l0.122,-0.122l0.122,-0.125l0.121,-0.127l0.121,-0.13l0.12,-0.131l0.12,-0.134l0.12,-0.137l0.119,-0.139l0.116,-0.137l0,0l0.008,-0.012l0.011,-0.018l0.014,-0.025l0.017,-0.034l0.019,-0.04l0.02,-0.046l0.021,-0.052l0.022,-0.058l0.022,-0.062l0.023,-0.067l0.023,-0.071l0.023,-0.074l0.023,-0.079l0.023,-0.081l0.022,-0.085l0.023,-0.087l0.023,-0.09l0.022,-0.092l0.022,-0.093l0.043,-0.195l0.042,-0.2l0.041,-0.204l0.039,-0.206l0.038,-0.208l0.036,-0.208l0.034,-0.206l0.033,-0.202l0.03,-0.198l0.029,-0.192l0.026,-0.185l0.025,-0.175l0.043,-0.32l0.034,-0.267l0.024,-0.203l0.035,-0.303l0.093,-0.193l0.044,-0.088l0.045,-0.089l0.049,-0.091l0.05,-0.092l0.053,-0.095l0.054,-0.096l0.058,-0.099l0.118,-0.2l0.126,-0.207l0.132,-0.212l0.137,-0.216l0.142,-0.22l0.146,-0.222l0.148,-0.223l0.151,-0.224l0.152,-0.223l0.152,-0.221l0.152,-0.219l0.15,-0.216l0.148,-0.21l0.145,-0.205l0.276,-0.387l0.254,-0.352l0.224,-0.307l0.186,-0.254l0.142,-0.192l0.716,-0.962l0.97,0.454l-0.303,1.258l-0.079,0.331l-0.102,0.429l-0.119,0.505l-0.131,0.561l-0.137,0.596l-0.138,0.611l-0.057,0.258l0.185,-0.193l0.212,-0.217l0.214,-0.216l0.215,-0.213l0.217,-0.213l0.217,-0.21l0.218,-0.209l0.219,-0.208l0.219,-0.206l0.436,-0.408l0.863,-0.802l0.422,-0.395l0.207,-0.195l0.205,-0.195l0.201,-0.194l0.199,-0.192l0.195,-0.192l0.192,-0.191l0.187,-0.19l0.183,-0.189l0.179,-0.189l0.087,-0.093l0.086,-0.093l0.085,-0.093l0.083,-0.093l0.083,-0.093l0.08,-0.093l0.08,-0.092l0.078,-0.092l0.076,-0.092l0.075,-0.092l0.073,-0.091l0.072,-0.091l0.07,-0.091l0.068,-0.09l0.067,-0.091l0.065,-0.09l0.063,-0.089l0.062,-0.09l0.059,-0.089l0.058,-0.089l0.056,-0.088l0.054,-0.088l0.053,-0.088l0.05,-0.088l0.048,-0.087l0.047,-0.087l0.044,-0.086l0.042,-0.086l0.041,-0.086l0.038,-0.085l0.036,-0.085l0.034,-0.084l0.032,-0.085l0.03,-0.083l0.028,-0.084l0.026,-0.083l0.024,-0.082l0.022,-0.083l0.019,-0.082l0.018,-0.081l0.015,-0.082l0.014,-0.081l0.011,-0.081l0.009,-0.081l0.007,-0.08l0.005,-0.081l0.002,-0.08l0.001,-0.081l-0.002,-0.08l-0.004,-0.081l-0.006,-0.081l-0.008,-0.081l-0.011,-0.081l-0.013,-0.082l-0.015,-0.082l-0.018,-0.082l-0.02,-0.083l-0.024,-0.087l-0.051,-0.176l-0.053,-0.18l-0.055,-0.178l-0.055,-0.179l-0.057,-0.177l-0.058,-0.178l-0.059,-0.176l-0.06,-0.176l-0.062,-0.175l-0.062,-0.174l-0.064,-0.174l-0.065,-0.172l-0.066,-0.172l-0.067,-0.17l-0.068,-0.17l-0.07,-0.169l-0.071,-0.167l-0.072,-0.166l-0.073,-0.165l-0.074,-0.164l-0.076,-0.163l-0.076,-0.161l-0.078,-0.16l-0.079,-0.158l-0.081,-0.157l-0.081,-0.155l-0.083,-0.154l-0.083,-0.152l-0.085,-0.151l-0.087,-0.149l-0.087,-0.147l-0.091,-0.149l-0.111,-0.183l-0.111,-0.186l-0.107,-0.186l-0.105,-0.185l-0.103,-0.183l-0.1,-0.182l-0.197,-0.357l-0.096,-0.175l-0.096,-0.172l-0.095,-0.169l-0.094,-0.166l-0.095,-0.161l-0.096,-0.159l-0.047,-0.076l-0.047,-0.076l-0.048,-0.075l-0.048,-0.073l-0.048,-0.072l-0.049,-0.071l-0.048,-0.07l-0.049,-0.069l-0.049,-0.067l-0.05,-0.065l-0.05,-0.064l-0.05,-0.063l-0.05,-0.061l-0.051,-0.06l-0.051,-0.059l-0.052,-0.056l-0.052,-0.056l-0.052,-0.053l-0.053,-0.052l-0.054,-0.051l-0.054,-0.049l-0.055,-0.047l-0.055,-0.046l-0.056,-0.045l-0.056,-0.043l-0.057,-0.041l-0.059,-0.04l-0.058,-0.038l-0.06,-0.037l-0.061,-0.035l-0.062,-0.034l-0.063,-0.032l-0.064,-0.031l-0.065,-0.029l-0.067,-0.028l-0.103,-0.039l-0.084,-0.04l-0.089,-0.058l-0.065,-0.053l-0.051,-0.049l-0.042,-0.045l-0.037,-0.043l-0.032,-0.041l-0.032,-0.044l-0.052,-0.077l-0.052,-0.084l-0.051,-0.087l-0.052,-0.093l-0.052,-0.098l-0.053,-0.104l-0.054,-0.11l-0.056,-0.116l-0.058,-0.121l-0.058,-0.127l-0.061,-0.133l-0.061,-0.139l-0.127,-0.289l-0.131,-0.307l-0.135,-0.322l-0.138,-0.334l-0.14,-0.345l-0.14,-0.351l-0.142,-0.356l-0.14,-0.358l-0.139,-0.357l-0.137,-0.354l-0.133,-0.347l-0.129,-0.339l-0.242,-0.64l-0.214,-0.572l-0.179,-0.482l-0.136,-0.372l-0.088,-0.242l-0.001,-0.004l-0.013,-0.02l-0.332,-1.166l1.367,-0.434l0.325,0.929l0.093,0.114l0.137,0.166l0.378,0.457l0.498,0.603l0.289,0.35l0.31,0.378l0.331,0.404l0.347,0.427l0.363,0.447l0.375,0.466l0.385,0.481l0.393,0.493l0.397,0.504l0.4,0.511l0.2,0.258l0.2,0.258l0.199,0.259l0.198,0.259l0.197,0.26l0.196,0.258l0.193,0.259l0.192,0.257l0.189,0.255l0.186,0.255l0.183,0.252l0.179,0.25l0.177,0.247l0.172,0.245l0.167,0.241l0.164,0.238l0.158,0.234l0.153,0.23l0.148,0.226l0.142,0.221l0.136,0.216l0.13,0.212l0.122,0.205l0.06,0.102l0.057,0.1l0.056,0.098l0.054,0.097l0.052,0.096l0.05,0.094l0.048,0.093l0.046,0.091l0.045,0.091l0.042,0.087l0.141,0.303l0.142,0.31l0.142,0.316l0.142,0.322l0.071,0.164l0.07,0.165l0.07,0.166l0.07,0.167l0.068,0.168l0.069,0.17l0.067,0.17l0.067,0.172l0.066,0.172l0.064,0.173l0.064,0.174l0.062,0.174l0.062,0.175l0.06,0.175l0.058,0.176l0.057,0.176l0.055,0.176l0.054,0.177l0.052,0.177l0.049,0.177l0.048,0.177l0.046,0.176l0.044,0.177l0.041,0.175l0.094,0.415l0.09,0.398l0.085,0.379l0.083,0.359l0.041,0.17l0.04,0.163l0.04,0.158l0.039,0.15l0.039,0.142l0.039,0.135l0.038,0.126l0.039,0.119l0.018,0.053l0.019,0.053l0.018,0.05l0.018,0.047l0.018,0.044l0.017,0.042l0.017,0.038l0.017,0.036l0.004,0.008l0.032,-0.008l0.102,-0.024l0.102,-0.02l0.102,-0.018l0.101,-0.014l0.101,-0.012l0.1,-0.009l0.1,-0.006l0.1,-0.004l0.098,-0.001l0.098,0.001l0.097,0.003l0.096,0.006l0.096,0.007l0.094,0.01l0.093,0.011l0.092,0.014l0.09,0.015l0.09,0.017l0.088,0.018l0.087,0.02l0.086,0.022l0.084,0.023l0.082,0.024l0.081,0.026l0.08,0.027l0.078,0.029l0.076,0.03l0.075,0.031l0.073,0.033l0.071,0.034l0.07,0.035l0.069,0.037l0.066,0.039l0.065,0.04l0.064,0.042l0.062,0.045l0.061,0.047l0.059,0.051l0.059,0.054l0.056,0.058l0.056,0.064l0.053,0.071l0.051,0.079l0.043,0.08l0.025,0.057l0.019,0.051l0.018,0.054l0.015,0.057l0.011,0.06l0.008,0.063l0.004,0.065l0,0.067l-0.006,0.068l-0.011,0.068l-0.015,0.067l-0.021,0.066l-0.026,0.064l-0.029,0.061l-0.033,0.057l-0.036,0.054l-0.038,0.05l-0.04,0.046l-0.041,0.042l-0.042,0.038l-0.043,0.036l-0.043,0.032l-0.043,0.029l-0.043,0.026l-0.043,0.025l-0.049,0.025l-0.08,0.036l-0.086,0.033l-0.088,0.028l-0.083,0.022l-0.116,0.028l-0.109,0.025l-0.108,0.023l-0.108,0.023l-0.214,0.045l-0.219,0.046l-0.109,0.024l-0.112,0.026l-0.114,0.028l-0.117,0.029l-0.12,0.032l-0.123,0.035l-0.128,0.038l-0.132,0.042l-0.137,0.045l-0.142,0.05l-0.148,0.055l-0.155,0.06l-0.077,0.031l-0.081,0.034l-0.083,0.034l-0.084,0.037l-0.086,0.037l-0.087,0.04l-0.09,0.041l-0.091,0.043l-0.093,0.044l-0.096,0.046l-0.097,0.049l-0.099,0.05l-0.101,0.051l-0.103,0.054l-0.106,0.056l-0.107,0.058l-0.11,0.061l-0.112,0.062l-0.114,0.064l-0.116,0.067l-0.119,0.069l-0.121,0.072l-0.124,0.074l-0.125,0.075l-0.162,0.1l-0.159,0.1l-0.156,0.1l-0.153,0.101l-0.151,0.1l-0.147,0.101l-0.145,0.101l-0.142,0.102l-0.139,0.101l-0.137,0.102l-0.134,0.102l-0.132,0.102l-0.129,0.102l-0.126,0.102l-0.125,0.103l-0.121,0.103l-0.119,0.103l-0.117,0.103l-0.115,0.103l-0.112,0.104l-0.11,0.103l-0.108,0.104l-0.105,0.104l-0.104,0.104l-0.101,0.104l-0.099,0.105l-0.098,0.104l-0.095,0.105l-0.093,0.105l-0.091,0.105l-0.09,0.105l-0.087,0.105l-0.086,0.105l-0.083,0.105l-0.082,0.106l-0.081,0.106l-0.078,0.105l-0.077,0.106l-0.075,0.106l-0.074,0.107l-0.072,0.106l-0.071,0.106l-0.069,0.107l-0.067,0.107l-0.066,0.107l-0.065,0.107l-0.063,0.107l-0.062,0.107l-0.061,0.107l-0.059,0.108l-0.058,0.107l-0.057,0.108l-0.055,0.108l-0.055,0.108l-0.053,0.108l-0.052,0.108l-0.051,0.109l-0.05,0.108l-0.049,0.109l-0.048,0.109l-0.048,0.109l-0.046,0.109l-0.045,0.109l-0.043,0.106l-0.014,0.036l-0.012,0.034l-0.011,0.035l-0.012,0.037l-0.01,0.038l-0.01,0.04l-0.009,0.04l-0.008,0.041l-0.008,0.043l-0.007,0.043l-0.006,0.043l-0.005,0.044l-0.004,0.045l-0.003,0.045l-0.002,0.046l-0.002,0.046l0,0.045l0.001,0.046l0.001,0.046l0.003,0.046l0.004,0.045l0.004,0.045l0.006,0.045l0.006,0.044l0.008,0.044l0.008,0.043l0.01,0.042l0.01,0.041l0.011,0.041l0.012,0.039l0.013,0.038l0.014,0.038l0.014,0.036l0.015,0.035l0.016,0.033l0.016,0.033l0.017,0.031l0.018,0.029l0.018,0.028l0.018,0.027l0.019,0.026l0.02,0.024l0.019,0.023l0.02,0.021l0.021,0.02l0.021,0.019l0.021,0.018l0.022,0.017l0.023,0.016l0.024,0.015l0.024,0.014l0.025,0.013l0.026,0.013l0.028,0.011l0.029,0.011l0.031,0.01l0.033,0.009l0.034,0.007l0.037,0.007l0.04,0.006l0.041,0.004l0.044,0.003l0.047,0.001l0.016,-0.001l0.021,-0.006l0.029,-0.01l0.036,-0.013l0.042,-0.016l0.047,-0.019l0.05,-0.022l0.055,-0.024l0.057,-0.026l0.128,-0.061l0.136,-0.067l0.146,-0.075l0.153,-0.08l0.159,-0.086l0.163,-0.089l0.167,-0.094l0.169,-0.095l0.17,-0.098l0.17,-0.098l0.168,-0.098l0.165,-0.098l0.319,-0.19l0.294,-0.178l0.26,-0.16l0.218,-0.134l0.166,-0.104l0.923,-0.58l0.602,0.458l-0.275,0.921l-0.034,0.106l-0.026,0.078l-0.031,0.089l-0.037,0.101l-0.043,0.113l-0.049,0.124l-0.055,0.133l-0.061,0.143l-0.068,0.15l-0.073,0.157l-0.041,0.082l-0.041,0.083l-0.044,0.085l-0.044,0.086l-0.047,0.087l-0.049,0.088l-0.05,0.089l-0.052,0.09l-0.054,0.091l-0.056,0.091l-0.058,0.092l-0.06,0.093l-0.062,0.093l-0.063,0.093l-0.066,0.093l-0.068,0.094l-0.07,0.093l-0.072,0.094l-0.075,0.093l-0.076,0.093l-0.079,0.092l-0.081,0.092l-0.083,0.09l-0.086,0.091l-0.088,0.089l-0.09,0.088l-0.093,0.087l-0.095,0.085l-0.098,0.085l-0.1,0.082l-0.103,0.081l-0.105,0.079l-0.108,0.077l-0.111,0.075l-0.111,0.072l-0.06,0.036l-0.058,0.035l-0.059,0.035l-0.06,0.033l-0.06,0.033l-0.302,0.159l-0.482,-0.109l-0.559,-0.126l-0.374,-0.084l-0.418,-0.092l-0.448,-0.098l-0.463,-0.1l-0.464,-0.099l-0.451,-0.094l-0.215,-0.043l-0.207,-0.042l-0.196,-0.038l-0.182,-0.035l-0.168,-0.03l-0.15,-0.027l-0.13,-0.021l-0.013,-0.002l-0.054,0.044l-0.154,0.125l-0.161,0.129l-0.168,0.131l-0.173,0.134l-0.179,0.137l-0.184,0.14l-0.19,0.143l-0.195,0.145l-0.199,0.148l-0.204,0.15l-0.42,0.305l-0.434,0.313l-0.447,0.319l-0.456,0.324l-0.465,0.327l-0.47,0.33l-0.474,0.331l-0.475,0.331l-0.943,0.656l-0.921,0.641l-0.446,0.312l-0.433,0.303l-0.419,0.295l-0.4,0.285l-0.382,0.273l-0.359,0.26l-0.17,0.125l-0.164,0.12l-0.157,0.117l-0.15,0.113l-0.142,0.108l-0.135,0.104l-0.126,0.099l-0.118,0.094l-0.108,0.088l-0.099,0.082l-0.089,0.076l-0.078,0.069l-0.066,0.061l-0.056,0.055l-0.014,0.014l0.055,-0.025l0.137,-0.063l0.145,-0.066l0.153,-0.072l0.16,-0.076l0.167,-0.08l0.175,-0.085l0.182,-0.09l0.189,-0.094l0.196,-0.099l0.203,-0.104l0.209,-0.109l0.216,-0.114l0.222,-0.118l0.228,-0.124l0.234,-0.129l0.24,-0.133l0.251,-0.142l0.053,-0.029l0.062,-0.032l0.065,-0.033l0.07,-0.035l0.148,-0.069l0.167,-0.076l0.183,-0.079l0.197,-0.084l0.211,-0.087l0.224,-0.09l0.233,-0.092l0.243,-0.094l0.25,-0.094l0.255,-0.094l0.26,-0.093l0.262,-0.092l0.262,-0.09l0.262,-0.087l0.258,-0.083l0.13,-0.04l0.127,-0.038l0.126,-0.038l0.124,-0.036l0.122,-0.035l0.121,-0.033l0.119,-0.031l0.116,-0.03l0.115,-0.027l0.111,-0.026l0.11,-0.024l0.107,-0.022l0.105,-0.02l0.103,-0.017l0.1,-0.015l0.099,-0.012l0.097,-0.009l0.097,-0.006l0.093,-0.002l0.054,0.001l0.05,0.002l0.051,0.004l0.053,0.005l0.055,0.008l0.057,0.011l0.059,0.014l0.063,0.019l0.067,0.025l0.07,0.032l0.074,0.041l0.076,0.052l0.076,0.066l0.072,0.079l0.065,0.093l0.054,0.103l0.039,0.109l0.023,0.11l0.009,0.106l-0.003,0.099l-0.012,0.09l-0.016,0.07l-0.048,0.17l-0.046,0.157l-0.046,0.155l-0.048,0.153l-0.049,0.152l-0.051,0.15l-0.051,0.149l-0.053,0.148l-0.054,0.146l-0.055,0.144l-0.056,0.143l-0.058,0.142l-0.058,0.14l-0.059,0.139l-0.061,0.138l-0.062,0.136l-0.062,0.134l-0.064,0.134l-0.065,0.131l-0.065,0.131l-0.067,0.129l-0.067,0.127l-0.068,0.127l-0.07,0.124l-0.07,0.124l-0.071,0.122l-0.072,0.121l-0.072,0.119l-0.074,0.118l-0.074,0.117l-0.075,0.115l-0.076,0.114l-0.076,0.112l-0.077,0.112l-0.078,0.11l-0.078,0.108l-0.079,0.108l-0.08,0.106l-0.08,0.104l-0.081,0.104l-0.082,0.102l-0.082,0.1l-0.082,0.1l-0.083,0.098l-0.084,0.097l-0.084,0.096l-0.085,0.094l-0.084,0.093l-0.086,0.092l-0.085,0.091l-0.086,0.089l-0.087,0.088l-0.087,0.087l-0.087,0.086l-0.087,0.085l-0.088,0.083l-0.088,0.082l-0.088,0.081l-0.088,0.08l-0.089,0.079l-0.089,0.077l-0.089,0.076l-0.089,0.075l-0.089,0.074l-0.089,0.073l-0.09,0.072l-0.089,0.07l-0.09,0.07l-0.089,0.068l-0.09,0.067l-0.09,0.066l-0.089,0.065l-0.09,0.064l-0.09,0.063l-0.089,0.061l-0.089,0.061l-0.09,0.06l-0.089,0.058l-0.089,0.058l-0.09,0.057l-0.176,0.109l-0.176,0.106l-0.175,0.101l-0.175,0.098l-0.173,0.094l-0.171,0.09l-0.17,0.086l-0.168,0.083l-0.167,0.078l-0.164,0.076l-0.163,0.071l-0.16,0.068l-0.158,0.065l-0.156,0.061l-0.152,0.058l-0.151,0.054l-0.147,0.052l-0.144,0.048l-0.141,0.045l-0.139,0.042l-0.097,0.028l-0.007,0.044l-0.018,0.107l-0.018,0.117l-0.019,0.127l-0.039,0.283l-0.042,0.313l-0.092,0.702l-0.05,0.38l-0.053,0.396l-0.056,0.405l-0.06,0.412l-0.031,0.208l-0.033,0.208l-0.033,0.207l-0.034,0.208l-0.027,0.155l-0.028,0.152l-0.029,0.151l-0.03,0.148l-0.031,0.146l-0.031,0.143l-0.032,0.141l-0.032,0.139l-0.063,0.269l-0.063,0.259l-0.061,0.249l-0.057,0.239l-0.053,0.228l-0.025,0.109l-0.023,0.106l-0.021,0.103l-0.02,0.101l-0.018,0.097l-0.016,0.093l-0.013,0.09l-0.012,0.087l-0.01,0.083l-0.007,0.079l-0.005,0.076l-0.003,0.071l0,0.054l0.021,0.06l0.069,0.185l0.043,0.115l0.048,0.13l0.051,0.143l0.054,0.154l0.055,0.166l0.057,0.176l0.057,0.186l0.03,0.098l0.028,0.099l0.028,0.102l0.028,0.103l0.028,0.106l0.027,0.108l0.026,0.109l0.026,0.112l0.025,0.114l0.024,0.115l0.023,0.117l0.021,0.119l0.021,0.12l0.019,0.122l0.018,0.123l0.017,0.124l0.015,0.126l0.013,0.128l0.012,0.128l0.009,0.13l0.008,0.13l0.005,0.132l0.004,0.133l0.001,0.134l-0.002,0.134l-0.004,0.135l-0.007,0.136l-0.009,0.137l-0.012,0.137l-0.015,0.138l-0.019,0.138l-0.021,0.138l-0.025,0.137l-0.014,0.071l-0.015,0.07l-0.016,0.069l-0.016,0.07l-0.017,0.069l-0.019,0.07l-0.019,0.069l-0.02,0.069l-0.022,0.07l-0.022,0.069l-0.032,0.095l-0.034,0.096l-0.035,0.097l-0.036,0.097l-0.037,0.097l-0.039,0.098l-0.041,0.098l-0.041,0.099l-0.043,0.099l-0.044,0.099l-0.045,0.1l-0.046,0.1l-0.047,0.101l-0.049,0.102l-0.099,0.201l-0.104,0.205l-0.107,0.205l-0.112,0.206l-0.114,0.207l-0.118,0.208l-0.121,0.208l-0.123,0.208l-0.126,0.209l-0.129,0.209l-0.131,0.209l-0.132,0.208l-0.135,0.208l-0.135,0.208l-0.138,0.206l-0.138,0.206l-0.139,0.204l-0.14,0.204l-0.141,0.201l-0.141,0.2l-0.141,0.198l-0.141,0.196l-0.14,0.194l-0.14,0.191l-0.139,0.189l-0.139,0.186l-0.137,0.183l-0.135,0.18l-0.135,0.177l-0.262,0.341l-0.254,0.326l-0.244,0.309l-0.231,0.29l-0.217,0.27l-0.202,0.249l-0.185,0.225l-0.165,0.2l-0.145,0.174l-0.123,0.146l-0.171,0.201l-0.283,0.33l-3.243,0.019l-0.147,-0.013l-0.141,-0.042l-0.13,-0.069l-0.114,-0.092l-0.094,-0.113l-0.07,-0.129l-0.044,-0.141l-0.015,-0.146l0.014,-0.147l0.041,-0.14l0.069,-0.131l0.093,-0.114l0.113,-0.094l0.129,-0.07l0.14,-0.043l0.147,-0.016l2.557,-0.015l0.003,-0.003l0.119,-0.142l0.141,-0.169l0.162,-0.195l0.18,-0.22l0.198,-0.243l0.212,-0.264l0.227,-0.284l0.238,-0.303l0.248,-0.319l0.257,-0.335l0.131,-0.171l0.133,-0.176l0.134,-0.178l0.134,-0.182l0.136,-0.184l0.136,-0.186l0.137,-0.189l0.137,-0.19l0.137,-0.192l0.137,-0.194l0.136,-0.196l0.135,-0.196l0.135,-0.198l0.133,-0.198l0.132,-0.199l0.131,-0.2l0.129,-0.199l0.127,-0.2l0.124,-0.199l0.123,-0.199l0.119,-0.198l0.117,-0.197l0.114,-0.196l0.11,-0.194l0.107,-0.194l0.103,-0.191l0.099,-0.189l0.095,-0.187l0.092,-0.185l0.043,-0.09l0.042,-0.09l0.041,-0.09l0.04,-0.089l0.039,-0.088l0.038,-0.087l0.036,-0.086l0.035,-0.085l0.033,-0.084l0.032,-0.083l0.031,-0.082l0.029,-0.08l0.028,-0.08l0.026,-0.078l0.016,-0.05l0.016,-0.05l0.014,-0.051l0.015,-0.05l0.013,-0.051l0.013,-0.051l0.012,-0.051l0.011,-0.051l0.011,-0.052l0.01,-0.049l0.019,-0.106l0.017,-0.105l0.013,-0.105l0.012,-0.105l0.01,-0.106l0.007,-0.107l0.005,-0.106l0.003,-0.107l0.002,-0.107l-0.001,-0.107l-0.003,-0.107l-0.004,-0.107l-0.007,-0.107l-0.007,-0.106l-0.01,-0.106l-0.011,-0.106l-0.012,-0.105l-0.014,-0.104l-0.015,-0.104l-0.017,-0.103l-0.017,-0.103l-0.019,-0.101l-0.02,-0.1l-0.02,-0.1l-0.022,-0.098l-0.022,-0.096l-0.023,-0.096l-0.024,-0.094l-0.024,-0.093l-0.024,-0.091l-0.025,-0.089l-0.025,-0.088l-0.025,-0.085l-0.052,-0.167l-0.051,-0.158l-0.051,-0.15l-0.049,-0.141l-0.047,-0.131l-0.044,-0.121l-0.041,-0.112l-0.072,-0.192l-0.031,-0.086l-0.026,-0.078l-0.015,-0.047l-0.014,-0.052l-0.014,-0.07l-0.01,-0.078l-0.002,-0.083l-0.001,-0.06l0.001,-0.112l0.004,-0.114l0.008,-0.115l0.01,-0.114l0.013,-0.115l0.016,-0.115l0.017,-0.115l0.02,-0.116l0.021,-0.116l0.023,-0.117l0.025,-0.118l0.025,-0.118l0.027,-0.12l0.056,-0.241l0.06,-0.245l0.06,-0.25l0.062,-0.254l0.061,-0.26l0.03,-0.131l0.03,-0.132l0.029,-0.134l0.029,-0.135l0.027,-0.136l0.027,-0.138l0.025,-0.139l0.025,-0.141l0.033,-0.198l0.032,-0.2l0.031,-0.201l0.03,-0.201l0.058,-0.402l0.056,-0.398l0.052,-0.39l0.05,-0.378l0.092,-0.704l0.043,-0.32l0.041,-0.293l0.02,-0.137l0.02,-0.129l0.02,-0.121l0.02,-0.114l0.02,-0.107l0.021,-0.101l0.023,-0.096l0.025,-0.09l0.017,-0.053l0.019,-0.052l0.023,-0.058l0.033,-0.067l0.049,-0.082l0.082,-0.104l0.122,-0.105l0.13,-0.072l0.099,-0.034l0.142,-0.034l0.107,-0.028l0.111,-0.03l0.114,-0.034l0.119,-0.036l0.122,-0.038l0.125,-0.042l0.129,-0.045l0.131,-0.048l0.134,-0.05l0.137,-0.054l0.14,-0.057l0.142,-0.061l0.144,-0.063l0.146,-0.067l0.148,-0.07l0.15,-0.073l0.151,-0.077l0.153,-0.08l0.155,-0.084l0.155,-0.087l0.157,-0.091l0.157,-0.095l0.16,-0.099l0.078,-0.049l0.08,-0.052l0.079,-0.052l0.08,-0.053l0.08,-0.054l0.08,-0.056l0.08,-0.056l0.08,-0.057l0.08,-0.058l0.08,-0.059l0.08,-0.06l0.08,-0.061l0.08,-0.062l0.08,-0.063l0.08,-0.064l0.08,-0.065l0.079,-0.066l0.08,-0.067l0.079,-0.068l0.08,-0.069l0.079,-0.07l0.078,-0.071l0.079,-0.072l0.078,-0.074l0.079,-0.074l0.077,-0.075l0.078,-0.077l0.077,-0.077l0.077,-0.079l0.077,-0.079l0.077,-0.081l0.076,-0.082l0.075,-0.083l0.075,-0.084l0.075,-0.085l0.075,-0.087l0.074,-0.087l0.073,-0.089l0.073,-0.09l0.073,-0.091l0.072,-0.092l0.072,-0.093l0.071,-0.094l0.07,-0.096l0.07,-0.097l0.069,-0.098l0.069,-0.099l0.068,-0.1l0.068,-0.102l0.067,-0.103l0.066,-0.104l0.065,-0.105l0.065,-0.107l0.064,-0.107l0.064,-0.11l0.062,-0.11l0.062,-0.111l0.061,-0.113l0.061,-0.114l0.059,-0.116l0.059,-0.117l0.058,-0.118l0.057,-0.119l0.056,-0.121l0.055,-0.122l0.055,-0.123l0.053,-0.125l0.053,-0.126l0.051,-0.128l0.051,-0.129l0.05,-0.13l0.048,-0.132l0.048,-0.133l0.04,-0.114l-0.096,0.023l-0.103,0.026l-0.105,0.028l-0.109,0.03l-0.111,0.031l-0.114,0.033l-0.117,0.035l-0.118,0.036l-0.119,0.037l-0.245,0.078l-0.248,0.083l-0.25,0.085l-0.251,0.088l-0.248,0.089l-0.245,0.091l-0.24,0.09l-0.232,0.089l-0.223,0.088l-0.212,0.086l-0.199,0.082l-0.184,0.078l-0.167,0.072l-0.147,0.067l-0.127,0.059l-0.051,0.026l-0.045,0.023l-0.038,0.019l-0.034,0.019l-0.249,0.14l-0.247,0.138l-0.242,0.133l-0.236,0.128l-0.229,0.122l-0.224,0.118l-0.216,0.112l-0.21,0.108l-0.203,0.103l-0.196,0.098l-0.189,0.093l-0.182,0.089l-0.175,0.083l-0.167,0.08l-0.159,0.074l-0.152,0.07l-0.143,0.065l-0.137,0.062l-0.245,0.108l-0.212,0.091l-0.178,0.075l-0.141,0.057l-0.105,0.042l-0.73,0.282l-0.308,-0.645l-0.022,-0.047l-0.028,-0.069l-0.032,-0.084l-0.019,-0.053l-0.018,-0.055l-0.018,-0.059l-0.017,-0.064l-0.018,-0.067l-0.016,-0.071l-0.015,-0.075l-0.013,-0.078l-0.012,-0.082l-0.009,-0.086l-0.006,-0.089l-0.002,-0.092l0.001,-0.095l0.005,-0.094l0.005,-0.054l0.005,-0.051l0.008,-0.051l0.008,-0.052l0.011,-0.053l0.011,-0.053l0.014,-0.054l0.015,-0.053l0.017,-0.054l0.019,-0.055l0.022,-0.054l0.023,-0.054l0.025,-0.055l0.027,-0.054l0.03,-0.054l0.031,-0.053l0.034,-0.053l0.036,-0.052l0.038,-0.051l0.04,-0.049l0.038,-0.044l0.038,-0.043l0.039,-0.041l0.042,-0.044l0.083,-0.08l0.092,-0.085l0.099,-0.088l0.107,-0.091l0.113,-0.094l0.121,-0.098l0.129,-0.103l0.135,-0.106l0.143,-0.11l0.15,-0.113l0.156,-0.118l0.162,-0.121l0.169,-0.124l0.175,-0.128l0.366,-0.265l0.387,-0.277l0.405,-0.288l0.422,-0.298l0.436,-0.305l0.448,-0.313l0.922,-0.642l0.943,-0.656l0.474,-0.33l0.471,-0.33l0.468,-0.328l0.462,-0.325l0.453,-0.321l0.442,-0.316l0.429,-0.309l0.413,-0.301l0.2,-0.147l0.195,-0.144l0.19,-0.142l0.185,-0.138l0.178,-0.136l0.173,-0.133l0.167,-0.129l0.159,-0.125l0.153,-0.122l0.145,-0.117l0.138,-0.113l0.177,-0.148l0.121,-0.074l0.143,-0.049l0.125,-0.02l0.092,-0.004l0.069,0.002l0.061,0.004Z" style="fill:#515151;"/></g></svg>