<?xml version="1.0" encoding="UTF-8" standalone="no"?>
<!DOCTYPE svg PUBLIC "-//W3C//DTD SVG 1.1//EN" "http://www.w3.org/Graphics/SVG/1.1/DTD/svg11.dtd">
<svg width="100%" height="100%" viewBox="0 0 32 33" version="1.1" xmlns="http://www.w3.org/2000/svg" xmlns:xlink="http://www.w3.org/1999/xlink" xml:space="preserve" xmlns:serif="http://www.serif.com/" style="fill-rule:evenodd;clip-rule:evenodd;stroke-linejoin:round;stroke-miterlimit:1.41421;">
    <g transform="matrix(1,0,0,1,-3111.33,-2734.78)">
        <g transform="matrix(1.13181,0,0,1.13181,-162.479,1569.53)">
            <g id="tv" transform="matrix(0.883543,0,0,0.883543,2892.55,1029.55)">
                <path d="M30.662,9.003C27.887,8.604 24.931,8.315 21.847,8.152L27,2.999L25,0.999L17.983,8.016C17.327,8.005 16.666,7.999 16,7.999L8,-0.001L6,1.999L12.069,8.068C8.29,8.201 4.683,8.522 1.338,9.003C0.478,12.369 0,16.089 0,20C0,23.911 0.477,27.63 1.338,30.997C5.827,31.642 10.786,32 16,32C21.214,32 26.173,31.642 30.662,30.997C31.522,27.631 32,23.911 32,20C32,16.089 31.523,12.37 30.662,9.003ZM26.997,27.331C23.63,27.761 19.911,28 16,28C12.089,28 8.37,27.761 5.003,27.331C4.358,25.087 4,22.607 4,20C4,17.393 4.358,14.913 5.003,12.669C8.369,12.239 12.089,12 16,12C19.911,12 23.63,12.239 26.996,12.669C27.641,14.913 28,17.393 28,20C28,22.607 27.642,25.087 26.997,27.331L26.997,27.331Z" style="fill:rgb(38,38,38);fill-rule:nonzero;"/>
            </g>
        </g>
    </g>
</svg>
