<?xml version="1.0" encoding="UTF-8" standalone="no"?><!DOCTYPE svg PUBLIC "-//W3C//DTD SVG 1.1//EN" "http://www.w3.org/Graphics/SVG/1.1/DTD/svg11.dtd"><svg width="100%" height="100%" viewBox="0 0 75 75" version="1.1" xmlns="http://www.w3.org/2000/svg" xmlns:xlink="http://www.w3.org/1999/xlink" xml:space="preserve" xmlns:serif="http://www.serif.com/" style="fill-rule:evenodd;clip-rule:evenodd;stroke-linejoin:round;stroke-miterlimit:1.41421;"><path id="upload" d="M30.373,45.438l14.25,0l0,-23.761l10.687,0l-17.812,-19.802l-17.812,19.802l10.687,0l0,23.761Zm40.39,6.068c-0.748,-0.887 -5.739,-6.824 -7.164,-8.372c-0.944,-1.026 -2.294,-1.656 -3.712,-1.656l-6.259,0l10.915,11.857l-12.625,0c-0.363,0 -0.691,0.206 -0.855,0.527l-2.907,7.418l-21.317,0l-2.907,-7.418c-0.164,-0.321 -0.495,-0.527 -0.855,-0.527l-12.625,0l10.912,-11.857l-6.256,0c-1.414,0 -2.764,0.63 -3.712,1.656c-1.425,1.552 -6.416,7.488 -7.164,8.372c-1.742,2.063 -2.7,3.707 -2.244,5.738l1.999,12.174c0.456,2.036 2.461,3.707 4.46,3.707l58.109,0c1.999,0 4.004,-1.671 4.46,-3.707l1.999,-12.174c0.449,-2.031 -0.506,-3.675 -2.252,-5.738l0,0Z" style="fill:#bebebe;fill-rule:nonzero;"/></svg>