<?xml version="1.0" encoding="UTF-8" standalone="no"?><!DOCTYPE svg PUBLIC "-//W3C//DTD SVG 1.1//EN" "http://www.w3.org/Graphics/SVG/1.1/DTD/svg11.dtd"><svg width="100%" height="100%" viewBox="0 0 16 16" version="1.1" xmlns="http://www.w3.org/2000/svg" xmlns:xlink="http://www.w3.org/1999/xlink" xml:space="preserve" style="fill-rule:evenodd;clip-rule:evenodd;stroke-linejoin:round;stroke-miterlimit:1.41421;"><path d="M9.073,2.606c-0.708,-0.141 -1.438,-0.141 -2.146,0l-0.26,1.467c-0.516,0.175 -0.992,0.45 -1.402,0.809l-1.4,-0.508c-0.476,0.543 -0.841,1.174 -1.073,1.858l1.14,0.959c-0.106,0.534 -0.106,1.084 0,1.618l-1.14,0.959c0.232,0.684 0.597,1.315 1.073,1.858l1.4,-0.508c0.41,0.359 0.886,0.634 1.402,0.809l0.26,1.467c0.708,0.141 1.438,0.141 2.146,0l0.26,-1.467c0.516,-0.175 0.992,-0.45 1.402,-0.809l1.4,0.508c0.476,-0.543 0.841,-1.174 1.073,-1.858l-1.14,-0.959c0.106,-0.534 0.106,-1.084 0,-1.618l1.14,-0.959c-0.232,-0.684 -0.597,-1.315 -1.073,-1.858l-1.4,0.508c-0.41,-0.359 -0.886,-0.634 -1.402,-0.809l-0.26,-1.467Zm-1.073,3.224c1.197,0 2.17,0.973 2.17,2.17c0,1.197 -0.973,2.17 -2.17,2.17c-1.197,0 -2.17,-0.973 -2.17,-2.17c0,-1.197 0.973,-2.17 2.17,-2.17Z" style="fill:#ffab00;"/></svg>