<?xml version="1.0" encoding="UTF-8" standalone="no"?>
<!DOCTYPE svg PUBLIC "-//W3C//DTD SVG 1.1//EN" "http://www.w3.org/Graphics/SVG/1.1/DTD/svg11.dtd">
<svg width="100%" height="100%" viewBox="0 0 512 512" version="1.1" xmlns="http://www.w3.org/2000/svg" xmlns:xlink="http://www.w3.org/1999/xlink" xml:space="preserve" xmlns:serif="http://www.serif.com/" style="fill-rule:evenodd;clip-rule:evenodd;stroke-linejoin:round;stroke-miterlimit:2;">
    <path id="steam-square" d="M413.982,173.02C413.982,137.695 384.992,108.684 349.326,108.684C314,108.684 284.99,137.674 284.99,173.02C284.99,208.687 313.979,237.356 349.326,237.356C384.992,237.356 413.982,208.687 413.982,173.02ZM210.67,369.015C210.67,405.684 181.34,435.014 144.671,435.014C119.329,435.014 97.336,420.68 86.35,399.689C97.357,404.02 108.023,408.35 119.009,413.022C145.673,423.687 176.348,410.696 187.334,383.691C198,357.026 185.009,326.351 158.003,315.707L130.677,304.7C135.007,303.697 140.02,303.036 144.671,303.036C181.34,303.036 210.67,332.367 210.67,369.036L210.67,369.015ZM511.979,95.992L511.979,416.008C511.979,468.996 468.974,512 415.987,512L96.013,512C43.026,512 0.021,468.996 0.021,416.008L0.021,365.004L57.361,388C66.021,428.338 102.029,458.671 144.692,458.671C191.344,458.671 229.677,423.005 234.028,377.675L349.027,293.672C415.688,293.672 469.358,239.681 469.358,173.682C469.358,107.02 415.688,53.35 349.027,53.35C283.368,53.35 229.698,106.679 229.037,172.338L154.035,279.657C151.027,279.315 148.041,279.315 144.692,279.315C128.032,279.315 112.353,283.646 99.021,291.645L0.021,251.99L0.021,95.992C0.021,43.004 43.026,-0 96.013,-0L415.987,-0C468.974,-0 511.979,43.004 511.979,95.992ZM429.66,173.703C429.66,218.03 393.674,254.037 349.006,254.037C304.679,254.037 268.671,218.051 268.671,173.703C268.671,129.035 304.657,93.048 349.006,93.048C393.674,93.048 429.66,129.035 429.66,173.703Z" style="fill-rule:nonzero;"/>
</svg>
