<?xml version="1.0" encoding="UTF-8" standalone="no"?><!DOCTYPE svg PUBLIC "-//W3C//DTD SVG 1.1//EN" "http://www.w3.org/Graphics/SVG/1.1/DTD/svg11.dtd"><svg width="100%" height="100%" viewBox="0 0 50 50" version="1.1" xmlns="http://www.w3.org/2000/svg" xmlns:xlink="http://www.w3.org/1999/xlink" xml:space="preserve" xmlns:serif="http://www.serif.com/" style="fill-rule:evenodd;clip-rule:evenodd;stroke-linejoin:round;stroke-miterlimit:1.41421;"><path id="video" d="M49.75,12.625l0,-2.972c0,-1.094 -0.884,-1.978 -1.978,-1.978l-45.54,0c-1.096,0 -1.982,0.884 -1.982,1.978l0,2.972l4.95,0l0,4.95l-4.95,0l0,4.95l4.95,0l0,4.95l-4.95,0l0,4.95l4.95,0l0,4.95l-4.95,0l0,2.968c0,1.093 0.886,1.982 1.982,1.982l45.54,0c1.094,0 1.978,-0.889 1.978,-1.982l0,-2.968l-4.95,0l0,-4.95l4.95,0l0,-4.95l-4.95,0l0,-4.95l4.95,0l0,-4.95l-4.95,0l0,-4.95l4.95,0Zm-29.7,19.8l0,-14.85l12.375,7.425l-12.375,7.425Z" style="fill:#fff;fill-rule:nonzero;"/></svg>