<?xml version="1.0" encoding="iso-8859-1"?>
<!-- Generator: Adobe Illustrator 19.0.0, SVG Export Plug-In . SVG Version: 6.00 Build 0)  -->
<svg version="1.1" id="Layer_1" xmlns="http://www.w3.org/2000/svg" xmlns:xlink="http://www.w3.org/1999/xlink" x="0px" y="0px"
	 viewBox="0 0 508 508" style="enable-background:new 0 0 508 508;" xml:space="preserve">
<circle style="fill:#324A5E;" cx="254" cy="254" r="254"/>
<polygon style="fill:#FFFFFF;" points="206,346 194,404.4 314,404.4 302,346 "/>
<polygon style="fill:#E6E9EE;" points="306.8,369.6 302,346 206,346 201.2,369.6 "/>
<path style="fill:#FFFFFF;" d="M411.2,352.8H96.8c-9.6,0-17.6-8-17.6-17.6V142.8c0-9.6,8-17.6,17.6-17.6h314.4
	c9.6,0,17.6,8,17.6,17.6v192.4C428.8,344.8,420.8,352.8,411.2,352.8z"/>
<path style="fill:#E6E9EE;" d="M164.4,418.4v-10.8c0-5.2,4-9.2,9.2-9.2H334c5.2,0,9.2,4,9.2,9.2v10.8c0,5.2-4,9.2-9.2,9.2H173.6
	C168.8,427.6,164.4,423.6,164.4,418.4z"/>
<rect x="96" y="143.6" style="fill:#54C0EB;" width="316.4" height="172.4"/>
<circle style="fill:#E6E9EE;" cx="254" cy="334.4" r="10.4"/>
<g>
	<path style="fill:#FFFFFF;" d="M281.6,228.8l-9.2-4.4c0.8-4.8,0.4-9.2-0.4-13.6l8.8-4.8c1.6-0.8,2.4-3.2,1.6-5.2l-4-9.2
		c-0.8-2-2.8-2.8-4.8-2l-9.6,3.2c-2.8-3.6-6-6.8-10-9.6l2.8-9.6c0.4-2-0.4-4-2.4-4.8l-8.4-4c-2-0.8-4,0-4.8,2l-4.4,9.2
		c-4.8-0.8-9.2-0.4-13.6,0.4l-4.8-8.8c-0.8-1.6-3.2-2.4-5.2-1.6l-9.2,4c-2,0.8-2.8,2.8-2,4.8l3.2,9.6c-3.6,2.8-6.8,6-9.6,10
		l-9.6-2.8c-2-0.4-4,0.4-4.8,2.4l-3.6,9.2c-0.8,2,0,4,2,4.8l9.2,4.4c-0.8,4.8-0.4,9.2,0.4,13.6l-8.8,4.8c-1.6,0.8-2.4,3.2-1.6,5.2
		l4,9.2c0.8,2,2.8,2.8,4.8,2l9.6-3.2c2.8,3.6,6,6.8,10,9.6l-2.8,9.6c-0.4,2,0.4,4,2.4,4.8l9.2,3.6c2,0.8,4,0,4.8-2l4.4-9.2
		c4.8,0.8,9.2,0.4,13.6-0.4l4.8,8.8c0.8,1.6,3.2,2.4,5.2,1.6l9.2-4c2-0.8,2.8-2.8,2-4.8l-3.2-9.6c3.6-2.8,6.8-6,9.6-10l9.6,2.8
		c2,0.4,4-0.4,4.8-2.4l3.6-9.2C284.4,232,283.6,230,281.6,228.8z M220.8,241.2c-12.8-5.2-19.2-19.6-14-32.4s19.6-19.2,32.4-14
		s19.2,19.6,14,32.4C248.4,240,233.6,246.4,220.8,241.2z"/>
	<path style="fill:#FFFFFF;" d="M330.4,271.6l-4.8-2.4c0.4-2.4,0-4.8-0.4-7.2l4.8-2.8c0.8-0.4,1.2-1.6,0.8-2.8l-2.4-4.8
		c-0.4-0.8-1.6-1.6-2.8-1.2l-5.2,2c-1.6-2-3.2-3.6-5.6-5.2l1.2-5.2c0.4-1.2-0.4-2-1.2-2.4l-5.2-2c-1.2-0.4-2,0-2.8,1.2l-2.4,4.8
		c-2.4-0.4-4.8,0-7.2,0.4l-2.8-4.8c-0.4-0.8-1.6-1.2-2.8-0.8l-4.8,2.4c-0.8,0.4-1.6,1.6-1.2,2.8l2,5.2c-2,1.6-3.6,3.2-5.2,5.6
		l-4.4-2c-1.2-0.4-2,0.4-2.4,1.2l-2,5.2c-0.4,1.2,0,2,1.2,2.8l4.8,2.4c-0.4,2.4,0,4.8,0.4,7.2l-4.8,2.8c-0.8,0.4-1.2,1.6-0.8,2.8
		l2.4,4.8c0.4,0.8,1.6,1.6,2.8,1.2l5.2-2c1.6,2,3.2,3.6,5.6,5.2l-1.2,5.2c-0.4,1.2,0.4,2,1.2,2.4l5.2,2c1.2,0.4,2,0,2.8-1.2l2.4-4.8
		c2.4,0.4,4.8,0,7.2-0.4l2.8,4.8c0.4,0.8,1.6,1.2,2.8,0.8l4.8-2.4c0.8-0.4,1.6-1.6,1.2-2.8l-2-5.2c2-1.6,3.6-3.2,5.2-5.6l5.2,1.2
		c1.2,0.4,2-0.4,2.4-1.2l2-5.2C332,273.2,331.6,272,330.4,271.6z M298,278.8c-6.8-2.4-10.4-10.4-8-17.2c2.4-6.8,10.4-10.4,17.2-8
		c6.8,2.4,10.4,10.4,8,17.2C312.8,278,304.8,281.6,298,278.8z"/>
</g>
<g>
</g>
<g>
</g>
<g>
</g>
<g>
</g>
<g>
</g>
<g>
</g>
<g>
</g>
<g>
</g>
<g>
</g>
<g>
</g>
<g>
</g>
<g>
</g>
<g>
</g>
<g>
</g>
<g>
</g>
</svg>
