<?xml version="1.0" ?><svg height="250px" version="1.1" viewBox="0 0 250 250" width="250px" xmlns="http://www.w3.org/2000/svg" xmlns:xlink="http://www.w3.org/1999/xlink"><title/><desc/><defs><linearGradient id="linearGradient-1" x1="50%" x2="50%" y1="0%" y2="100%"><stop offset="0%" stop-color="#111D2E"/><stop offset="21.248%" stop-color="#051839"/><stop offset="40.695%" stop-color="#0A1B48"/><stop offset="58.11%" stop-color="#132E62"/><stop offset="73.76%" stop-color="#144B7E"/><stop offset="87.279%" stop-color="#136497"/><stop offset="100%" stop-color="#1387B8"/></linearGradient></defs><g fill="none" fill-rule="evenodd" id="steam_squircle" stroke="none" stroke-width="1"><rect fill="url(#linearGradient-1)" height="250" id="squircle" rx="32" width="250" x="0" y="0"/><path d="M250,208 L250,218 C250,235.673112 235.673112,250 218,250 L32,250 C14.326888,250 2.164332e-15,235.673112 0,218 L0,208 C2.164332e-15,225.673112 14.326888,240 32,240 L218,240 C235.673112,240 250,225.673112 250,208 Z" fill="#000000" fill-opacity="0.25" id="shadow"/><path d="M194.165542,58.240456 L249.933594,121.239989 L249.933594,207.986328 C249.933594,225.14675 236.425883,239.152278 219.462947,239.950426 L219.132798,239.584961 C217.47759,239.849108 215.78004,239.986328 214.05044,239.986328 L82.1738281,239.986328 L57.2793822,195.345523 L62.9082031,159.898438 L73.9465185,147.78688 L93.7633885,141.693359 L152.982629,61.0661839 L194.165542,58.240456 Z" fill="#000000" id="3d-shadow" opacity="0.15452939"/><path d="M118.897563,96.6260544 C118.897563,96.833012 118.897563,97.0399696 118.908337,97.2342564 L88.192176,140.961447 C83.2164768,140.739706 78.2235382,141.59499 73.4891895,143.506181 C71.4021541,144.340347 69.4465686,145.364576 67.6116582,146.547191 L0.1638896,119.336486 L0.168945313,160.384766 L52.789074,182.532476 C55.1831848,193.017625 62.522826,202.214569 73.3512749,206.638816 C91.0679103,213.892892 111.495429,205.625146 118.865239,188.255488 C120.783114,183.715091 121.677403,178.952954 121.548109,174.201376 L165.497604,143.421708 C165.853165,143.432267 166.219501,143.442826 166.575062,143.442826 C192.875802,143.442826 214.252561,122.430292 214.252561,96.6260544 C214.252561,70.8197053 192.875802,49.826177 166.575062,49.826177 C140.285096,49.826177 118.897563,70.8197053 118.897563,96.6260544 Z M111.527753,185.235596 C105.823692,198.656165 90.0863464,205.02328 76.4069447,199.437536 C70.0962755,196.861124 65.331758,192.141223 62.5831636,186.513243 L78.1039404,192.817003 C88.192176,196.935038 99.7662256,192.246814 103.959691,182.363531 C108.166085,172.46969 103.394025,161.108138 93.3111771,156.990104 L77.2667559,150.475162 C83.4578273,148.173286 90.4957803,148.088814 97.0715041,150.770816 C103.701101,153.473936 108.844883,158.563404 111.570851,165.067787 C114.296819,171.572169 114.286044,178.752332 111.527753,185.235596 Z M166.575062,127.815414 C149.066376,127.815414 134.811612,113.824656 134.811612,96.6260544 C134.811612,79.4411799 149.066376,65.4461983 166.575062,65.4461983 C184.094523,65.4461983 198.349287,79.4411799 198.349287,96.6260544 C198.349287,113.824656 184.094523,127.815414 166.575062,127.815414 Z M142.774023,96.5785386 C142.774023,83.6405192 153.462403,73.1469227 166.628935,73.1469227 C179.806241,73.1469227 190.494621,83.6405192 190.494621,96.5785386 C190.494621,109.517614 179.806241,120.001707 166.628935,120.001707 C153.462403,120.001707 142.774023,109.517614 142.774023,96.5785386 Z" fill="#F2F2F2" fill-rule="nonzero" id="logo"/></g></svg>