<svg width="100%" height="100%" viewBox="0 0 218 52" version="1.1" xmlns="http://www.w3.org/2000/svg" xmlns:xlink="http://www.w3.org/1999/xlink" xml:space="preserve" xmlns:serif="http://www.serif.com/" style="fill-rule:evenodd;clip-rule:evenodd;stroke-linejoin:round;stroke-miterlimit:1.41421;"><g><path d="M2.714,40.778l-0.87,0.135l1.099,4.711l0.158,1.069l0.036,0.005l0.229,-1.074l1.574,-5.592l1.022,0l1.58,5.592l0.235,1.098l0.035,0l0.17,-1.098l1.075,-4.711l-0.875,-0.135l0,-0.746l2.72,0l0,0.746l-0.687,0.088l-1.862,7.718l-1.034,0l-1.692,-5.933l-0.153,-0.769l-0.035,0l-0.147,0.769l-1.715,5.933l-1.028,0l-1.862,-7.718l-0.687,-0.088l0,-0.746l2.714,0l0,0.746Z" style="fill:#fff;fill-rule:nonzero;"/><path d="M11.583,47.844l0.958,-0.165l0,-4.54l-0.958,-0.165l0,-0.746l2.115,0l0,5.451l0.957,0.165l0,0.74l-3.072,0l0,-0.74Zm2.115,-7.243l-1.157,0l0,-1.18l1.157,0l0,1.18Z" style="fill:#fff;fill-rule:nonzero;"/><path d="M19.818,47.826c-0.207,0.29 -0.461,0.509 -0.76,0.658c-0.3,0.149 -0.648,0.223 -1.043,0.223c-0.775,0 -1.381,-0.281 -1.818,-0.843c-0.437,-0.562 -0.655,-1.301 -0.655,-2.217l0,-0.123c0,-1.022 0.218,-1.847 0.655,-2.473c0.437,-0.627 1.046,-0.94 1.83,-0.94c0.376,0 0.707,0.069 0.995,0.208c0.288,0.14 0.534,0.34 0.737,0.603l0,-2.591l-0.957,-0.164l0,-0.746l2.115,0l0,8.258l0.957,0.165l0,0.74l-1.962,0l-0.094,-0.758Zm-3.119,-2.179c0,0.638 0.131,1.151 0.394,1.539c0.262,0.388 0.667,0.581 1.216,0.581c0.344,0 0.634,-0.078 0.869,-0.235c0.235,-0.156 0.429,-0.377 0.581,-0.663l0,-2.949c-0.148,-0.266 -0.342,-0.478 -0.581,-0.634c-0.239,-0.157 -0.525,-0.235 -0.858,-0.235c-0.552,0 -0.96,0.229 -1.224,0.687c-0.265,0.458 -0.397,1.053 -0.397,1.786l0,0.123Z" style="fill:#fff;fill-rule:nonzero;"/><path d="M22.761,45.524c0,-1.022 0.223,-1.847 0.67,-2.473c0.446,-0.627 1.063,-0.94 1.85,-0.94c0.399,0 0.75,0.078 1.051,0.235c0.302,0.157 0.554,0.384 0.758,0.681l0.106,-0.799l0.975,0l0,6.274c0,0.822 -0.229,1.469 -0.688,1.941c-0.458,0.472 -1.11,0.708 -1.955,0.708c-0.306,0 -0.637,-0.042 -0.993,-0.127c-0.357,-0.084 -0.67,-0.198 -0.94,-0.343l0.3,-0.899c0.215,0.114 0.469,0.208 0.763,0.282c0.294,0.074 0.58,0.112 0.858,0.112c0.517,0 0.896,-0.145 1.136,-0.435c0.241,-0.29 0.362,-0.703 0.362,-1.239l0,-0.605c-0.208,0.266 -0.457,0.468 -0.746,0.605c-0.29,0.137 -0.623,0.205 -0.999,0.205c-0.779,0 -1.392,-0.282 -1.838,-0.846c-0.447,-0.563 -0.67,-1.302 -0.67,-2.214l0,-0.123Zm1.157,0.123c0,0.638 0.135,1.151 0.405,1.539c0.271,0.388 0.682,0.581 1.234,0.581c0.348,0 0.64,-0.079 0.875,-0.237c0.235,-0.159 0.429,-0.383 0.582,-0.673l0,-2.925c-0.149,-0.27 -0.343,-0.485 -0.582,-0.643c-0.239,-0.159 -0.527,-0.238 -0.863,-0.238c-0.553,0 -0.966,0.231 -1.24,0.693c-0.274,0.462 -0.411,1.055 -0.411,1.78l0,0.123Z" style="fill:#fff;fill-rule:nonzero;"/><path d="M32.464,48.707c-0.885,0 -1.588,-0.294 -2.111,-0.884c-0.523,-0.589 -0.784,-1.354 -0.784,-2.293l0,-0.259c0,-0.904 0.269,-1.657 0.807,-2.258c0.539,-0.601 1.176,-0.902 1.912,-0.902c0.854,0 1.501,0.258 1.942,0.775c0.44,0.517 0.66,1.206 0.66,2.068l0,0.722l-4.123,0l-0.018,0.03c0.012,0.611 0.167,1.113 0.464,1.506c0.298,0.394 0.715,0.591 1.251,0.591c0.392,0 0.736,-0.056 1.031,-0.168c0.296,-0.111 0.551,-0.265 0.767,-0.461l0.452,0.752c-0.227,0.219 -0.528,0.404 -0.902,0.555c-0.373,0.151 -0.823,0.226 -1.348,0.226Zm-0.176,-5.686c-0.387,0 -0.718,0.164 -0.992,0.491c-0.275,0.327 -0.443,0.737 -0.506,1.23l0.012,0.03l2.931,0l0,-0.153c0,-0.454 -0.121,-0.834 -0.364,-1.139c-0.243,-0.306 -0.603,-0.459 -1.081,-0.459Z" style="fill:#fff;fill-rule:nonzero;"/><path d="M38.05,40.695l0,1.533l1.205,0l0,0.858l-1.205,0l0,3.859c0,0.298 0.062,0.507 0.185,0.629c0.124,0.121 0.287,0.182 0.491,0.182c0.102,0 0.216,-0.009 0.344,-0.027c0.127,-0.017 0.234,-0.036 0.32,-0.056l0.158,0.793c-0.109,0.071 -0.27,0.129 -0.481,0.174c-0.212,0.045 -0.423,0.067 -0.635,0.067c-0.47,0 -0.844,-0.142 -1.122,-0.426c-0.278,-0.284 -0.417,-0.729 -0.417,-1.336l0,-3.859l-1.004,0l0,-0.858l1.004,0l0,-1.533l1.157,0Z" style="fill:#fff;fill-rule:nonzero;"/><path d="M45.299,44.226l-0.87,0l-0.188,-0.764c-0.141,-0.133 -0.318,-0.24 -0.531,-0.32c-0.214,-0.08 -0.455,-0.121 -0.726,-0.121c-0.411,0 -0.716,0.09 -0.916,0.271c-0.2,0.18 -0.299,0.397 -0.299,0.652c0,0.25 0.088,0.448 0.264,0.593c0.176,0.145 0.534,0.274 1.075,0.388c0.803,0.172 1.4,0.406 1.791,0.701c0.392,0.296 0.588,0.693 0.588,1.19c0,0.564 -0.228,1.02 -0.685,1.368c-0.456,0.349 -1.052,0.523 -1.788,0.523c-0.482,0 -0.915,-0.056 -1.298,-0.167c-0.384,-0.112 -0.727,-0.273 -1.028,-0.485l-0.006,-1.451l0.869,0l0.218,0.852c0.133,0.122 0.314,0.21 0.543,0.264c0.229,0.055 0.463,0.083 0.702,0.083c0.411,0 0.733,-0.084 0.966,-0.25c0.233,-0.166 0.35,-0.385 0.35,-0.655c0,-0.254 -0.097,-0.464 -0.291,-0.628c-0.194,-0.165 -0.561,-0.308 -1.102,-0.429c-0.771,-0.169 -1.353,-0.398 -1.744,-0.687c-0.392,-0.29 -0.587,-0.682 -0.587,-1.175c0,-0.517 0.22,-0.958 0.66,-1.322c0.441,-0.364 1.014,-0.546 1.718,-0.546c0.482,0 0.915,0.063 1.299,0.188c0.383,0.125 0.702,0.299 0.957,0.523l0.059,1.404Z" style="fill:#fff;fill-rule:nonzero;"/><rect x="49.939" y="44.519" width="2.872" height="0.905" style="fill:#fff;fill-rule:nonzero;"/><path d="M57.123,48.584l0,-0.74l0.957,-0.165l0,-6.737l-0.957,-0.164l0,-0.746l3.072,0l0,0.746l-0.958,0.164l0,6.737l2.972,0l0.088,-0.981l0.987,0l0,1.886l-6.161,0Z" style="fill:#fff;fill-rule:nonzero;"/><path d="M64.271,47.844l0.957,-0.165l0,-4.54l-0.957,-0.165l0,-0.746l2.115,0l0,5.451l0.957,0.165l0,0.74l-3.072,0l0,-0.74Zm2.115,-7.243l-1.158,0l0,-1.18l1.158,0l0,1.18Z" style="fill:#fff;fill-rule:nonzero;"/><path d="M70.403,42.974l-0.763,0.118l1.31,3.618l0.105,0.458l0.036,0l0.111,-0.458l1.269,-3.618l-0.77,-0.118l0,-0.746l2.456,0l0,0.746l-0.523,0.089l-2.132,5.521l-0.876,0l-2.155,-5.521l-0.523,-0.089l0,-0.746l2.455,0l0,0.746Z" style="fill:#fff;fill-rule:nonzero;"/><path d="M77.763,48.707c-0.885,0 -1.589,-0.294 -2.111,-0.884c-0.523,-0.589 -0.785,-1.354 -0.785,-2.293l0,-0.259c0,-0.904 0.27,-1.657 0.808,-2.258c0.538,-0.601 1.176,-0.902 1.912,-0.902c0.854,0 1.501,0.258 1.941,0.775c0.441,0.517 0.661,1.206 0.661,2.068l0,0.722l-4.123,0l-0.018,0.03c0.012,0.611 0.166,1.113 0.464,1.506c0.298,0.394 0.715,0.591 1.251,0.591c0.392,0 0.735,-0.056 1.031,-0.168c0.296,-0.111 0.551,-0.265 0.767,-0.461l0.452,0.752c-0.227,0.219 -0.528,0.404 -0.902,0.555c-0.374,0.151 -0.823,0.226 -1.348,0.226Zm-0.176,-5.686c-0.388,0 -0.719,0.164 -0.993,0.491c-0.274,0.327 -0.442,0.737 -0.505,1.23l0.012,0.03l2.931,0l0,-0.153c0,-0.454 -0.122,-0.834 -0.364,-1.139c-0.243,-0.306 -0.603,-0.459 -1.081,-0.459Z" style="fill:#fff;fill-rule:nonzero;"/><path d="M86.668,40.778l-0.87,0.135l1.099,4.711l0.158,1.069l0.036,0.005l0.229,-1.074l1.574,-5.592l1.022,0l1.58,5.592l0.235,1.098l0.035,0l0.171,-1.098l1.075,-4.711l-0.876,-0.135l0,-0.746l2.72,0l0,0.746l-0.687,0.088l-1.862,7.718l-1.034,0l-1.692,-5.933l-0.153,-0.769l-0.035,0l-0.147,0.769l-1.715,5.933l-1.028,0l-1.862,-7.718l-0.687,-0.088l0,-0.746l2.714,0l0,0.746Z" style="fill:#fff;fill-rule:nonzero;"/><path d="M99.49,48.584c-0.035,-0.172 -0.062,-0.327 -0.082,-0.464c-0.02,-0.137 -0.033,-0.274 -0.041,-0.411c-0.223,0.286 -0.502,0.523 -0.837,0.713c-0.335,0.19 -0.692,0.285 -1.072,0.285c-0.662,0 -1.165,-0.161 -1.51,-0.484c-0.344,-0.323 -0.516,-0.779 -0.516,-1.366c0,-0.603 0.243,-1.068 0.731,-1.395c0.487,-0.327 1.156,-0.49 2.006,-0.49l1.192,0l0,-0.741c0,-0.372 -0.117,-0.666 -0.352,-0.884c-0.235,-0.217 -0.562,-0.326 -0.981,-0.326c-0.29,0 -0.546,0.038 -0.767,0.112c-0.221,0.074 -0.4,0.176 -0.537,0.305l-0.124,0.67l-0.892,0l0,-1.233c0.289,-0.231 0.64,-0.416 1.051,-0.556c0.411,-0.139 0.858,-0.208 1.339,-0.208c0.721,0 1.304,0.184 1.751,0.552c0.446,0.368 0.669,0.895 0.669,1.58l0,3.06c0,0.083 0.001,0.163 0.003,0.241c0.002,0.079 0.007,0.157 0.015,0.235l0.47,0.065l0,0.74l-1.516,0Zm-1.862,-0.846c0.384,0 0.735,-0.092 1.052,-0.276c0.317,-0.184 0.544,-0.405 0.681,-0.664l0,-1.045l-1.233,0c-0.474,0 -0.849,0.109 -1.125,0.329c-0.276,0.219 -0.414,0.485 -0.414,0.798c0,0.279 0.086,0.491 0.258,0.638c0.172,0.147 0.433,0.22 0.781,0.22Z" style="fill:#fff;fill-rule:nonzero;"/><path d="M101.81,40.167l0,-0.746l2.115,0l0,8.258l0.957,0.165l0,0.74l-3.072,0l0,-0.74l0.958,-0.165l0,-7.348l-0.958,-0.164Z" style="fill:#fff;fill-rule:nonzero;"/><path d="M105.599,40.167l0,-0.746l2.115,0l0,8.258l0.957,0.165l0,0.74l-3.072,0l0,-0.74l0.957,-0.165l0,-7.348l-0.957,-0.164Z" style="fill:#fff;fill-rule:nonzero;"/><path d="M109.405,50.281l0.958,-0.164l0,-6.978l-0.958,-0.165l0,-0.746l1.95,0l0.106,0.776c0.212,-0.29 0.469,-0.511 0.772,-0.664c0.304,-0.153 0.655,-0.229 1.055,-0.229c0.787,0 1.399,0.312 1.835,0.937c0.437,0.624 0.655,1.45 0.655,2.476l0,0.123c0,0.916 -0.219,1.655 -0.658,2.217c-0.438,0.562 -1.043,0.843 -1.815,0.843c-0.391,0 -0.735,-0.065 -1.03,-0.197c-0.296,-0.131 -0.548,-0.326 -0.755,-0.584l0,2.191l0.957,0.164l0,0.746l-3.072,0l0,-0.746Zm5.21,-4.757c0,-0.725 -0.141,-1.318 -0.423,-1.78c-0.282,-0.462 -0.701,-0.693 -1.257,-0.693c-0.329,0 -0.61,0.074 -0.845,0.223c-0.235,0.149 -0.425,0.352 -0.57,0.611l0,3.095c0.145,0.263 0.334,0.465 0.567,0.608c0.233,0.143 0.519,0.215 0.86,0.215c0.548,0 0.963,-0.2 1.245,-0.599c0.282,-0.4 0.423,-0.919 0.423,-1.557l0,-0.123Z" style="fill:#fff;fill-rule:nonzero;"/><path d="M120.977,48.584c-0.036,-0.172 -0.063,-0.327 -0.083,-0.464c-0.019,-0.137 -0.033,-0.274 -0.041,-0.411c-0.223,0.286 -0.502,0.523 -0.837,0.713c-0.335,0.19 -0.692,0.285 -1.072,0.285c-0.661,0 -1.165,-0.161 -1.509,-0.484c-0.345,-0.323 -0.517,-0.779 -0.517,-1.366c0,-0.603 0.244,-1.068 0.731,-1.395c0.488,-0.327 1.156,-0.49 2.006,-0.49l1.192,0l0,-0.741c0,-0.372 -0.117,-0.666 -0.352,-0.884c-0.235,-0.217 -0.562,-0.326 -0.981,-0.326c-0.29,0 -0.545,0.038 -0.766,0.112c-0.222,0.074 -0.401,0.176 -0.538,0.305l-0.123,0.67l-0.893,0l0,-1.233c0.29,-0.231 0.64,-0.416 1.051,-0.556c0.411,-0.139 0.858,-0.208 1.34,-0.208c0.72,0 1.304,0.184 1.75,0.552c0.446,0.368 0.67,0.895 0.67,1.58l0,3.06c0,0.083 0.001,0.163 0.002,0.241c0.002,0.079 0.007,0.157 0.015,0.235l0.47,0.065l0,0.74l-1.515,0Zm-1.862,-0.846c0.383,0 0.734,-0.092 1.051,-0.276c0.317,-0.184 0.544,-0.405 0.681,-0.664l0,-1.045l-1.233,0c-0.474,0 -0.849,0.109 -1.125,0.329c-0.276,0.219 -0.414,0.485 -0.414,0.798c0,0.279 0.086,0.491 0.258,0.638c0.173,0.147 0.433,0.22 0.782,0.22Z" style="fill:#fff;fill-rule:nonzero;"/><path d="M123.314,50.281l0.958,-0.164l0,-6.978l-0.958,-0.165l0,-0.746l1.951,0l0.105,0.776c0.212,-0.29 0.469,-0.511 0.773,-0.664c0.303,-0.153 0.655,-0.229 1.054,-0.229c0.787,0 1.399,0.312 1.836,0.937c0.436,0.624 0.654,1.45 0.654,2.476l0,0.123c0,0.916 -0.219,1.655 -0.657,2.217c-0.439,0.562 -1.044,0.843 -1.815,0.843c-0.392,0 -0.736,-0.065 -1.031,-0.197c-0.296,-0.131 -0.547,-0.326 -0.755,-0.584l0,2.191l0.957,0.164l0,0.746l-3.072,0l0,-0.746Zm5.21,-4.757c0,-0.725 -0.141,-1.318 -0.422,-1.78c-0.282,-0.462 -0.701,-0.693 -1.257,-0.693c-0.329,0 -0.611,0.074 -0.846,0.223c-0.235,0.149 -0.425,0.352 -0.57,0.611l0,3.095c0.145,0.263 0.334,0.465 0.567,0.608c0.233,0.143 0.52,0.215 0.86,0.215c0.549,0 0.964,-0.2 1.246,-0.599c0.281,-0.4 0.422,-0.919 0.422,-1.557l0,-0.123Z" style="fill:#fff;fill-rule:nonzero;"/><path d="M133.641,48.707c-0.885,0 -1.589,-0.294 -2.112,-0.884c-0.523,-0.589 -0.784,-1.354 -0.784,-2.293l0,-0.259c0,-0.904 0.269,-1.657 0.807,-2.258c0.539,-0.601 1.176,-0.902 1.912,-0.902c0.854,0 1.501,0.258 1.942,0.775c0.44,0.517 0.66,1.206 0.66,2.068l0,0.722l-4.123,0l-0.018,0.03c0.012,0.611 0.167,1.113 0.464,1.506c0.298,0.394 0.715,0.591 1.252,0.591c0.391,0 0.735,-0.056 1.03,-0.168c0.296,-0.111 0.552,-0.265 0.767,-0.461l0.452,0.752c-0.227,0.219 -0.527,0.404 -0.901,0.555c-0.374,0.151 -0.824,0.226 -1.348,0.226Zm-0.177,-5.686c-0.387,0 -0.718,0.164 -0.992,0.491c-0.274,0.327 -0.443,0.737 -0.505,1.23l0.011,0.03l2.931,0l0,-0.153c0,-0.454 -0.121,-0.834 -0.364,-1.139c-0.243,-0.306 -0.603,-0.459 -1.081,-0.459Z" style="fill:#fff;fill-rule:nonzero;"/><path d="M137.206,42.974l0,-0.746l1.991,0l0.112,0.923c0.18,-0.325 0.402,-0.58 0.666,-0.764c0.265,-0.184 0.567,-0.276 0.908,-0.276c0.09,0 0.183,0.007 0.279,0.021c0.096,0.013 0.169,0.028 0.22,0.044l-0.153,1.074l-0.657,-0.035c-0.306,0 -0.562,0.072 -0.77,0.215c-0.207,0.143 -0.368,0.343 -0.482,0.602l0,3.647l0.958,0.165l0,0.74l-3.072,0l0,-0.74l0.957,-0.165l0,-4.54l-0.957,-0.165Z" style="fill:#fff;fill-rule:nonzero;"/><rect x="145.553" y="44.519" width="2.872" height="0.905" style="fill:#fff;fill-rule:nonzero;"/><path d="M152.642,47.844l0.635,-0.088l2.989,-7.724l0.993,0l2.937,7.724l0.628,0.088l0,0.74l-2.455,0l0,-0.74l0.646,-0.112l-0.564,-1.574l-3.424,0l-0.581,1.574l0.646,0.112l0,0.74l-2.45,0l0,-0.74Zm2.743,-2.655l2.714,0l-1.327,-3.671l-0.036,0l-1.351,3.671Z" style="fill:#fff;fill-rule:nonzero;"/><path d="M161.512,50.281l0.957,-0.164l0,-6.978l-0.957,-0.165l0,-0.746l1.95,0l0.106,0.776c0.211,-0.29 0.468,-0.511 0.772,-0.664c0.303,-0.153 0.655,-0.229 1.054,-0.229c0.787,0 1.399,0.312 1.836,0.937c0.436,0.624 0.655,1.45 0.655,2.476l0,0.123c0,0.916 -0.22,1.655 -0.658,2.217c-0.439,0.562 -1.044,0.843 -1.815,0.843c-0.392,0 -0.735,-0.065 -1.031,-0.197c-0.296,-0.131 -0.547,-0.326 -0.755,-0.584l0,2.191l0.958,0.164l0,0.746l-3.072,0l0,-0.746Zm5.21,-4.757c0,-0.725 -0.141,-1.318 -0.423,-1.78c-0.282,-0.462 -0.701,-0.693 -1.257,-0.693c-0.329,0 -0.611,0.074 -0.846,0.223c-0.235,0.149 -0.425,0.352 -0.57,0.611l0,3.095c0.145,0.263 0.334,0.465 0.567,0.608c0.233,0.143 0.52,0.215 0.861,0.215c0.548,0 0.963,-0.2 1.245,-0.599c0.282,-0.4 0.423,-0.919 0.423,-1.557l0,-0.123Z" style="fill:#fff;fill-rule:nonzero;"/><path d="M168.795,50.281l0.958,-0.164l0,-6.978l-0.958,-0.165l0,-0.746l1.95,0l0.106,0.776c0.211,-0.29 0.469,-0.511 0.772,-0.664c0.304,-0.153 0.655,-0.229 1.055,-0.229c0.787,0 1.399,0.312 1.835,0.937c0.437,0.624 0.655,1.45 0.655,2.476l0,0.123c0,0.916 -0.219,1.655 -0.658,2.217c-0.438,0.562 -1.043,0.843 -1.815,0.843c-0.391,0 -0.735,-0.065 -1.03,-0.197c-0.296,-0.131 -0.548,-0.326 -0.755,-0.584l0,2.191l0.957,0.164l0,0.746l-3.072,0l0,-0.746Zm5.21,-4.757c0,-0.725 -0.141,-1.318 -0.423,-1.78c-0.282,-0.462 -0.701,-0.693 -1.257,-0.693c-0.329,0 -0.611,0.074 -0.845,0.223c-0.235,0.149 -0.425,0.352 -0.57,0.611l0,3.095c0.145,0.263 0.334,0.465 0.567,0.608c0.233,0.143 0.519,0.215 0.86,0.215c0.548,0 0.963,-0.2 1.245,-0.599c0.282,-0.4 0.423,-0.919 0.423,-1.557l0,-0.123Z" style="fill:#fff;fill-rule:nonzero;"/><path d="M179.697,40.032c1.116,0 2.014,0.343 2.693,1.031c0.679,0.687 1.019,1.575 1.019,2.663l0,1.169c0,1.093 -0.34,1.981 -1.019,2.664c-0.679,0.683 -1.577,1.025 -2.693,1.025l-3.583,0l0,-0.74l0.957,-0.165l0,-6.737l-0.957,-0.164l0,-0.746l3.583,0Zm-1.469,0.91l0,6.737l1.469,0c0.791,0 1.415,-0.26 1.871,-0.781c0.456,-0.521 0.684,-1.188 0.684,-2.003l0,-1.18c0,-0.807 -0.228,-1.471 -0.684,-1.992c-0.456,-0.521 -1.08,-0.781 -1.871,-0.781l-1.469,0Z" style="fill:#fff;fill-rule:nonzero;"/><path d="M184.555,42.974l0,-0.746l1.991,0l0.111,0.923c0.181,-0.325 0.403,-0.58 0.667,-0.764c0.264,-0.184 0.567,-0.276 0.908,-0.276c0.09,0 0.183,0.007 0.279,0.021c0.096,0.013 0.169,0.028 0.22,0.044l-0.153,1.074l-0.658,-0.035c-0.305,0 -0.562,0.072 -0.769,0.215c-0.208,0.143 -0.368,0.343 -0.482,0.602l0,3.647l0.958,0.165l0,0.74l-3.072,0l0,-0.74l0.957,-0.165l0,-4.54l-0.957,-0.165Z" style="fill:#fff;fill-rule:nonzero;"/><path d="M193.677,48.584c-0.036,-0.172 -0.063,-0.327 -0.083,-0.464c-0.019,-0.137 -0.033,-0.274 -0.041,-0.411c-0.223,0.286 -0.502,0.523 -0.837,0.713c-0.335,0.19 -0.692,0.285 -1.072,0.285c-0.662,0 -1.165,-0.161 -1.509,-0.484c-0.345,-0.323 -0.517,-0.779 -0.517,-1.366c0,-0.603 0.244,-1.068 0.731,-1.395c0.488,-0.327 1.156,-0.49 2.006,-0.49l1.192,0l0,-0.741c0,-0.372 -0.117,-0.666 -0.352,-0.884c-0.235,-0.217 -0.562,-0.326 -0.981,-0.326c-0.29,0 -0.545,0.038 -0.767,0.112c-0.221,0.074 -0.4,0.176 -0.537,0.305l-0.123,0.67l-0.893,0l0,-1.233c0.29,-0.231 0.64,-0.416 1.051,-0.556c0.411,-0.139 0.858,-0.208 1.339,-0.208c0.721,0 1.304,0.184 1.751,0.552c0.446,0.368 0.669,0.895 0.669,1.58l0,3.06c0,0.083 0.001,0.163 0.003,0.241c0.002,0.079 0.007,0.157 0.015,0.235l0.47,0.065l0,0.74l-1.515,0Zm-1.862,-0.846c0.383,0 0.734,-0.092 1.051,-0.276c0.317,-0.184 0.544,-0.405 0.681,-0.664l0,-1.045l-1.233,0c-0.474,0 -0.849,0.109 -1.125,0.329c-0.276,0.219 -0.414,0.485 -0.414,0.798c0,0.279 0.086,0.491 0.258,0.638c0.173,0.147 0.433,0.22 0.782,0.22Z" style="fill:#fff;fill-rule:nonzero;"/><path d="M198.411,42.974l-0.729,0.13l0.829,3.166l0.135,0.769l0.035,0l0.165,-0.769l1.268,-4.042l0.928,0l1.275,4.042l0.182,0.857l0.035,0l0.171,-0.857l0.781,-3.166l-0.74,-0.13l0,-0.746l2.42,0l0,0.746l-0.552,0.083l-1.604,5.527l-0.934,0l-1.233,-3.871l-0.265,-1.069l-0.035,0.006l-0.247,1.063l-1.21,3.871l-0.934,0l-1.603,-5.527l-0.558,-0.083l0,-0.746l2.42,0l0,0.746Z" style="fill:#fff;fill-rule:nonzero;"/><path d="M209.001,48.707c-0.885,0 -1.589,-0.294 -2.111,-0.884c-0.523,-0.589 -0.784,-1.354 -0.784,-2.293l0,-0.259c0,-0.904 0.269,-1.657 0.807,-2.258c0.539,-0.601 1.176,-0.902 1.912,-0.902c0.854,0 1.501,0.258 1.941,0.775c0.441,0.517 0.661,1.206 0.661,2.068l0,0.722l-4.123,0l-0.018,0.03c0.012,0.611 0.167,1.113 0.464,1.506c0.298,0.394 0.715,0.591 1.251,0.591c0.392,0 0.735,-0.056 1.031,-0.168c0.296,-0.111 0.551,-0.265 0.767,-0.461l0.452,0.752c-0.227,0.219 -0.528,0.404 -0.902,0.555c-0.374,0.151 -0.823,0.226 -1.348,0.226Zm-0.176,-5.686c-0.388,0 -0.718,0.164 -0.993,0.491c-0.274,0.327 -0.442,0.737 -0.505,1.23l0.012,0.03l2.931,0l0,-0.153c0,-0.454 -0.121,-0.834 -0.364,-1.139c-0.243,-0.306 -0.603,-0.459 -1.081,-0.459Z" style="fill:#fff;fill-rule:nonzero;"/><path d="M212.567,42.974l0,-0.746l1.991,0l0.112,0.923c0.18,-0.325 0.402,-0.58 0.666,-0.764c0.265,-0.184 0.567,-0.276 0.908,-0.276c0.09,0 0.183,0.007 0.279,0.021c0.096,0.013 0.169,0.028 0.22,0.044l-0.153,1.074l-0.658,-0.035c-0.305,0 -0.562,0.072 -0.769,0.215c-0.208,0.143 -0.368,0.343 -0.482,0.602l0,3.647l0.958,0.165l0,0.74l-3.072,0l0,-0.74l0.957,-0.165l0,-4.54l-0.957,-0.165Z" style="fill:#fff;fill-rule:nonzero;"/></g><g><path d="M21.972,9.87l-3.261,0l-0.81,-4.552c-0.656,-0.555 -1.532,-1.014 -2.626,-1.379c-1.094,-0.365 -2.363,-0.547 -3.808,-0.547c-2.29,0 -4.048,0.485 -5.274,1.455c-1.225,0.971 -1.838,2.236 -1.838,3.797c0,1.386 0.624,2.542 1.871,3.469c1.247,0.926 3.264,1.74 6.051,2.44c3.356,0.832 5.905,2.057 7.649,3.677c1.743,1.619 2.615,3.625 2.615,6.018c0,2.567 -1.047,4.632 -3.141,6.193c-2.093,1.561 -4.832,2.342 -8.217,2.342c-2.451,0 -4.629,-0.402 -6.533,-1.204c-1.904,-0.803 -3.454,-1.853 -4.65,-3.151l0,-5.931l3.239,0l0.831,4.574c0.832,0.685 1.824,1.247 2.977,1.685c1.152,0.438 2.531,0.656 4.136,0.656c2.174,0 3.892,-0.459 5.154,-1.378c1.262,-0.919 1.893,-2.167 1.893,-3.743c0,-1.458 -0.548,-2.68 -1.642,-3.665c-1.094,-0.985 -3.027,-1.813 -5.799,-2.484c-3.37,-0.802 -6.004,-1.984 -7.9,-3.545c-1.897,-1.561 -2.845,-3.524 -2.845,-5.887c0,-2.495 1.058,-4.57 3.173,-6.226c2.115,-1.656 4.866,-2.484 8.25,-2.484c2.233,0 4.264,0.383 6.095,1.149c1.831,0.766 3.301,1.696 4.41,2.79l0,5.931Z" style="fill:#fff;fill-rule:nonzero;"/><path d="M50.903,10.242l-3.042,0l-0.81,-4.508c-0.7,-0.686 -1.561,-1.248 -2.582,-1.685c-1.022,-0.438 -2.24,-0.657 -3.655,-0.657c-3.312,0 -5.858,1.2 -7.638,3.6c-1.779,2.4 -2.669,5.446 -2.669,9.137l0,0.503c0,3.691 0.871,6.744 2.615,9.159c1.743,2.414 4.161,3.621 7.254,3.621c1.445,0 2.758,-0.226 3.94,-0.678c1.181,-0.452 2.093,-1.007 2.735,-1.663l0.81,-4.508l3.042,0l0,5.668c-0.919,1.181 -2.298,2.235 -4.136,3.162c-1.839,0.926 -3.969,1.39 -6.391,1.39c-4.143,0 -7.542,-1.532 -10.198,-4.596c-2.655,-3.064 -3.983,-6.916 -3.983,-11.555l0,-0.46c0,-4.668 1.306,-8.531 3.918,-11.587c2.611,-3.057 6.032,-4.585 10.263,-4.585c2.422,0 4.552,0.471 6.391,1.412c1.838,0.941 3.217,1.995 4.136,3.162l0,5.668Z" style="fill:#fff;fill-rule:nonzero;"/><path d="M69.088,0.481c3.473,0 6.135,0.77 7.988,2.309c1.853,1.539 2.779,3.724 2.779,6.555c0,1.546 -0.43,2.917 -1.291,4.114c-0.86,1.196 -2.093,2.137 -3.698,2.823c1.736,0.569 2.987,1.495 3.753,2.779c0.766,1.284 1.149,2.867 1.149,4.749l0,2.56c0,0.978 0.124,1.7 0.372,2.167c0.248,0.467 0.657,0.744 1.225,0.832l1.051,0.131l0,2.823l-2.32,0c-1.678,0 -2.87,-0.584 -3.578,-1.751c-0.707,-1.167 -1.061,-2.582 -1.061,-4.245l0,-2.473c0,-1.736 -0.504,-3.13 -1.51,-4.18c-1.007,-1.051 -2.356,-1.576 -4.049,-1.576l-6.915,0l0,10.855l3.567,0.613l0,2.757l-11.446,0l0,-2.757l3.568,-0.613l0,-25.101l-3.568,-0.613l0,-2.758l13.984,0Zm-6.105,14.225l5.668,0c2.407,0 4.158,-0.459 5.252,-1.379c1.094,-0.919 1.641,-2.261 1.641,-4.026c0,-1.678 -0.525,-3.006 -1.575,-3.983c-1.051,-0.978 -2.678,-1.466 -4.881,-1.466l-6.105,0l0,10.854Z" style="fill:#fff;fill-rule:nonzero;"/><path d="M85.436,32.323l0,-2.757l3.567,-0.613l0,-25.101l-3.567,-0.613l0,-2.779l24.466,0l0,7.659l-3.698,0l-0.35,-4.267l-12.54,0l0,10.307l12.19,0l0,3.392l-12.19,0l0,11.402l12.803,0l0.35,-4.268l3.676,0l0,7.638l-24.707,0Z" style="fill:#fff;fill-rule:nonzero;"/><path d="M114.017,32.323l0,-2.757l3.567,-0.613l0,-25.101l-3.567,-0.613l0,-2.779l24.466,0l0,7.659l-3.698,0l-0.35,-4.267l-12.54,0l0,10.307l12.19,0l0,3.392l-12.19,0l0,11.402l12.802,0l0.35,-4.268l3.677,0l0,7.638l-24.707,0Z" style="fill:#fff;fill-rule:nonzero;"/><path d="M173.804,0.46l0,2.779l-3.567,0.613l0,28.471l-4.311,0l-15.319,-24.598l-0.131,0.044l0,21.184l3.567,0.613l0,2.757l-11.445,0l0,-2.757l3.567,-0.613l0,-25.101l-3.567,-0.613l0,-2.779l7.878,0l15.319,24.576l0.131,-0.044l0,-21.14l-3.567,-0.613l0,-2.779l11.445,0Z" style="fill:#fff;fill-rule:nonzero;"/></g><path id="sort-desc" d="M184.789,31.342c0,-0.367 0.184,-0.712 0.501,-0.97l11.809,-9.662c0.316,-0.258 0.739,-0.41 1.186,-0.41c0.448,0 0.871,0.15 1.186,0.41l11.81,9.662c0.316,0.258 0.501,0.605 0.501,0.97c0,0.756 -0.764,1.381 -1.687,1.381l-23.619,0c-0.923,0 -1.687,-0.625 -1.687,-1.381l0,0Z" style="fill:#ffab00;fill-rule:nonzero;"/><g><path d="M181.304,8.463c0.46,-0.522 0.975,-0.991 1.547,-1.407c0.572,-0.417 1.174,-0.755 1.808,-1.016l0.876,-2.983l1.417,0l-0.653,2.479c0.199,-0.037 0.395,-0.068 0.588,-0.093c0.192,-0.025 0.388,-0.037 0.587,-0.037c1.056,0 1.876,0.286 2.46,0.857c0.584,0.572 0.877,1.373 0.877,2.405c0,0.82 -0.196,1.594 -0.588,2.321c-0.391,0.727 -0.913,1.376 -1.566,1.948c-0.652,0.571 -1.404,1.047 -2.255,1.426c-0.851,0.379 -1.737,0.63 -2.656,0.755l-0.69,2.591c-0.062,0.186 -0.103,0.341 -0.121,0.466c-0.019,0.124 -0.028,0.236 -0.028,0.335c0,0.311 0.127,0.528 0.382,0.653c0.255,0.124 0.705,0.192 1.351,0.205l-0.111,0.745l-5.276,0l0.112,-0.745c0.522,0 0.901,-0.062 1.137,-0.187c0.236,-0.124 0.404,-0.348 0.503,-0.671l3.374,-11.52c-0.472,0.249 -0.925,0.544 -1.36,0.886c-0.435,0.341 -0.839,0.711 -1.212,1.109l-0.503,-0.522Zm5.685,-2.144c-0.161,0 -0.32,0.01 -0.475,0.028c-0.156,0.019 -0.308,0.041 -0.457,0.065l-2.106,7.904c0.621,-0.124 1.227,-0.354 1.817,-0.69c0.59,-0.335 1.116,-0.751 1.575,-1.249c0.46,-0.497 0.83,-1.053 1.109,-1.668c0.28,-0.615 0.42,-1.258 0.42,-1.929c0,-0.746 -0.171,-1.342 -0.513,-1.79c-0.341,-0.447 -0.798,-0.671 -1.37,-0.671Z" style="fill:#ffab00;fill-rule:nonzero;"/><path d="M194.93,2.572c0.062,-0.223 0.124,-0.45 0.187,-0.68c0.062,-0.23 0.093,-0.401 0.093,-0.513c0,-0.435 -0.473,-0.652 -1.417,-0.652l0.149,-0.559l3.411,-0.168l-3.336,12.247c-0.1,0.335 -0.174,0.631 -0.224,0.885c-0.05,0.255 -0.075,0.47 -0.075,0.644c0,0.111 0.032,0.211 0.094,0.298c0.062,0.087 0.161,0.13 0.298,0.13c0.199,0 0.41,-0.084 0.634,-0.251c0.223,-0.168 0.438,-0.367 0.643,-0.597c0.205,-0.23 0.388,-0.466 0.55,-0.708c0.161,-0.243 0.279,-0.432 0.354,-0.569l0.559,0.317c-0.186,0.423 -0.429,0.83 -0.727,1.221c-0.298,0.392 -0.615,0.736 -0.951,1.035c-0.335,0.298 -0.674,0.537 -1.015,0.717c-0.342,0.18 -0.656,0.271 -0.942,0.271c-0.435,0 -0.755,-0.094 -0.96,-0.28c-0.205,-0.186 -0.307,-0.497 -0.307,-0.932c0,-0.249 0.037,-0.584 0.111,-1.007c0.075,-0.422 0.205,-1 0.392,-1.733l2.479,-9.116Z" style="fill:#ffab00;fill-rule:nonzero;"/><path d="M203.542,6.356c-0.472,0 -0.96,0.218 -1.463,0.653c-0.503,0.435 -0.96,0.979 -1.37,1.631c-0.41,0.652 -0.746,1.355 -1.007,2.106c-0.261,0.752 -0.391,1.451 -0.391,2.097c0,0.448 0.093,0.805 0.279,1.072c0.187,0.267 0.441,0.401 0.765,0.401c0.285,0 0.584,-0.115 0.894,-0.345c0.311,-0.23 0.612,-0.534 0.904,-0.913c0.292,-0.379 0.569,-0.811 0.83,-1.296c0.261,-0.484 0.491,-0.985 0.69,-1.5c0.198,-0.516 0.354,-1.022 0.466,-1.519c0.111,-0.498 0.167,-0.945 0.167,-1.343c0,-0.323 -0.068,-0.577 -0.205,-0.764c-0.136,-0.186 -0.323,-0.28 -0.559,-0.28Zm1.92,-0.782l1.547,0l-1.062,2.852c-0.174,0.472 -0.345,0.975 -0.513,1.51c-0.168,0.534 -0.317,1.05 -0.447,1.547c-0.131,0.497 -0.233,0.95 -0.308,1.36c-0.074,0.411 -0.112,0.715 -0.112,0.914c0,0.36 0.118,0.54 0.355,0.54c0.174,0 0.425,-0.18 0.754,-0.54c0.33,-0.361 0.7,-0.827 1.11,-1.398l0.484,0.391c-0.522,0.92 -1.084,1.631 -1.687,2.135c-0.602,0.503 -1.183,0.755 -1.743,0.755c-0.285,0 -0.506,-0.109 -0.661,-0.327c-0.156,-0.217 -0.233,-0.574 -0.233,-1.071c0,-0.112 0.003,-0.243 0.009,-0.392c0.006,-0.149 0.022,-0.348 0.047,-0.596l-0.075,-0.019c-0.186,0.348 -0.407,0.668 -0.662,0.96c-0.255,0.292 -0.531,0.547 -0.829,0.764c-0.299,0.218 -0.609,0.385 -0.932,0.503c-0.323,0.119 -0.64,0.178 -0.951,0.178c-0.634,0 -1.128,-0.24 -1.482,-0.718c-0.354,-0.479 -0.531,-1.14 -0.531,-1.985c0,-0.858 0.18,-1.734 0.54,-2.629c0.361,-0.894 0.827,-1.705 1.398,-2.432c0.572,-0.727 1.206,-1.324 1.902,-1.79c0.696,-0.466 1.379,-0.699 2.05,-0.699c0.41,0 0.746,0.096 1.007,0.289c0.261,0.193 0.472,0.507 0.634,0.941l0.391,-1.043Z" style="fill:#ffab00;fill-rule:nonzero;"/><path d="M210.98,10.01c-0.199,-1.019 -0.401,-1.724 -0.606,-2.116c-0.205,-0.391 -0.419,-0.587 -0.643,-0.587c-0.236,0 -0.451,0.177 -0.643,0.531c-0.193,0.355 -0.389,0.917 -0.587,1.687l-0.69,-0.186c0.124,-0.572 0.289,-1.1 0.494,-1.584c0.205,-0.485 0.429,-0.905 0.671,-1.259c0.242,-0.354 0.5,-0.627 0.773,-0.82c0.274,-0.193 0.547,-0.289 0.821,-0.289c0.236,0 0.438,0.087 0.606,0.261c0.167,0.174 0.338,0.497 0.512,0.969c0.149,0.398 0.314,0.923 0.494,1.576c0.18,0.652 0.357,1.401 0.531,2.246l0.634,3.001l0.075,0c0.236,-0.298 0.475,-0.637 0.717,-1.016c0.243,-0.379 0.463,-0.777 0.662,-1.193c0.199,-0.416 0.361,-0.839 0.485,-1.268c0.124,-0.428 0.186,-0.829 0.186,-1.202c0,-0.124 -0.006,-0.283 -0.018,-0.475c-0.013,-0.193 -0.028,-0.389 -0.047,-0.587c-0.019,-0.199 -0.034,-0.389 -0.047,-0.569c-0.012,-0.18 -0.018,-0.326 -0.018,-0.438c0,-0.447 0.112,-0.777 0.335,-0.988c0.224,-0.211 0.46,-0.317 0.709,-0.317c0.323,0 0.559,0.137 0.708,0.41c0.149,0.274 0.224,0.591 0.224,0.951c0,0.509 -0.137,1.162 -0.41,1.957c-0.274,0.796 -0.634,1.65 -1.082,2.563c-0.447,0.914 -0.963,1.846 -1.547,2.796c-0.584,0.951 -1.187,1.824 -1.808,2.619c-0.944,1.231 -1.817,2.141 -2.619,2.731c-0.802,0.591 -1.55,0.886 -2.246,0.886c-0.522,0 -0.935,-0.143 -1.24,-0.429c-0.304,-0.286 -0.457,-0.634 -0.457,-1.044c0,-0.311 0.087,-0.562 0.261,-0.755c0.174,-0.192 0.404,-0.289 0.69,-0.289c0.249,0 0.432,0.072 0.55,0.215c0.118,0.143 0.214,0.304 0.289,0.484c0.075,0.18 0.152,0.342 0.233,0.485c0.081,0.143 0.208,0.214 0.382,0.214c0.236,0 0.535,-0.13 0.895,-0.391c0.36,-0.261 0.721,-0.587 1.081,-0.979c0.36,-0.391 0.699,-0.817 1.016,-1.277c0.317,-0.459 0.544,-0.888 0.68,-1.286l-1.006,-5.238Z" style="fill:#ffab00;fill-rule:nonzero;"/></g></svg>