<?xml version="1.0" encoding="UTF-8" standalone="no"?>
<!DOCTYPE svg PUBLIC "-//W3C//DTD SVG 1.1//EN" "http://www.w3.org/Graphics/SVG/1.1/DTD/svg11.dtd">
<svg width="100%" height="100%" viewBox="0 0 50 44" version="1.1" xmlns="http://www.w3.org/2000/svg" xmlns:xlink="http://www.w3.org/1999/xlink" xml:space="preserve" xmlns:serif="http://www.serif.com/" style="fill-rule:evenodd;clip-rule:evenodd;stroke-linejoin:round;stroke-miterlimit:1.41421;">
    <g transform="matrix(1,0,0,1,-3173.52,-3047.83)">
        <g transform="matrix(0.981266,0,0,0.974923,2039.13,2355.18)">
            <g id="images" transform="matrix(1.38833,0,0,1.39737,1156.06,710.47)">
                <path d="M30,0C31.1,0 32,0.9 32,2L32,4L34,4C35.1,4 36,4.9 36,6L36,30C36,31.1 35.1,32 34,32L6,32C4.9,32 4,31.1 4,30L4,28L2,28C0.9,28 0,27.1 0,26L0,2C0,0.9 0.9,0 2,0L30,0ZM33.996,5.999L6.003,5.999C6.001,6 6,6.002 5.999,6.003L5.999,29.996C6,29.998 6.002,29.999 6.003,30L33.996,30C33.998,29.999 33.999,29.997 34,29.996L34,6.003C33.999,6.001 33.997,6 33.996,5.999ZM32,28L8,28L8,24L15,12L23,22L25,22L32,16L32,28ZM29.997,1.999L2.004,1.999C2.002,2 2.001,2.002 2,2.003L2,25.996C2.001,25.998 2.003,25.999 2.004,26L4,26L4,6L4.001,5.999C4.001,4.899 4.901,3.999 6.001,3.999L30.001,3.999L30.001,2.003C30,2.001 29.998,2 29.997,1.999ZM30,11C30,12.657 28.657,14 27,14C25.343,14 24,12.657 24,11C24,9.343 25.343,8 27,8C28.657,8 30,9.343 30,11Z" style="fill:rgb(48,48,48);"/>
            </g>
        </g>
    </g>
</svg>
