<?xml version="1.0" encoding="UTF-8" standalone="no"?><!DOCTYPE svg PUBLIC "-//W3C//DTD SVG 1.1//EN" "http://www.w3.org/Graphics/SVG/1.1/DTD/svg11.dtd"><svg width="100%" height="100%" viewBox="0 0 24 24" version="1.1" xmlns="http://www.w3.org/2000/svg" xmlns:xlink="http://www.w3.org/1999/xlink" xml:space="preserve" xmlns:serif="http://www.serif.com/" style="fill-rule:evenodd;clip-rule:evenodd;stroke-linejoin:round;stroke-miterlimit:1.41421;"><rect x="0" y="0" width="24" height="24" style="fill:none;"/><path d="M12,7c1.11,0 2,-0.9 2,-2c0,-0.38 -0.1,-0.73 -0.29,-1.03l-1.71,-2.97l-1.71,2.97c-0.19,0.3 -0.29,0.65 -0.29,1.03c0,1.1 0.9,2 2,2Zm4.6,9.99l-1.07,-1.07l-1.08,1.07c-1.3,1.3 -3.58,1.31 -4.89,0l-1.07,-1.07l-1.09,1.07c-0.65,0.65 -1.52,1.01 -2.44,1.01c-0.73,0 -1.4,-0.23 -1.96,-0.61l0,4.61c0,0.55 0.45,1 1,1l16,0c0.55,0 1,-0.45 1,-1l0,-4.61c-0.56,0.38 -1.23,0.61 -1.96,0.61c-0.92,0 -1.79,-0.36 -2.44,-1.01Zm1.4,-6.99l-5,0l0,-2l-2,0l0,2l-5,0c-1.66,0 -3,1.34 -3,3l0,1.54c0,1.08 0.88,1.96 1.96,1.96c0.52,0 1.02,-0.2 1.38,-0.57l2.14,-2.13l2.13,2.13c0.74,0.74 2.03,0.74 2.77,0l2.14,-2.13l2.13,2.13c0.37,0.37 0.86,0.57 1.38,0.57c1.08,0 1.96,-0.88 1.96,-1.96l0,-1.54c0.01,-1.66 -1.33,-3 -2.99,-3Z" style="fill:#bebebe;fill-rule:nonzero;"/></svg>