<?xml version="1.0" encoding="UTF-8" standalone="no"?><!DOCTYPE svg PUBLIC "-//W3C//DTD SVG 1.1//EN" "http://www.w3.org/Graphics/SVG/1.1/DTD/svg11.dtd"><svg width="100%" height="100%" viewBox="0 0 51 41" version="1.1" xmlns="http://www.w3.org/2000/svg" xmlns:xlink="http://www.w3.org/1999/xlink" xml:space="preserve" xmlns:serif="http://www.serif.com/" style="fill-rule:evenodd;clip-rule:evenodd;stroke-linejoin:round;stroke-miterlimit:1.41421;"><path d="M40.735,0l-20.367,0c-5.625,0 -10.184,4.825 -10.184,10.45c0,5.624 4.559,10.45 10.184,10.45l-10.184,0c-5.625,0 -10.184,4.329 -10.184,9.953c0,5.624 4.559,9.953 10.184,9.953l20.367,0c5.625,0 10.184,-4.329 10.184,-9.953c0,-5.624 -4.559,-9.953 -10.184,-9.953l10.184,0c5.625,0 10.184,-4.826 10.184,-10.45c0,-5.625 -4.559,-10.45 -10.184,-10.45" style="fill:#bebebe;"/></svg>