<?xml version="1.0" encoding="UTF-8" standalone="no"?><!DOCTYPE svg PUBLIC "-//W3C//DTD SVG 1.1//EN" "http://www.w3.org/Graphics/SVG/1.1/DTD/svg11.dtd"><svg width="100%" height="100%" viewBox="0 0 24 24" version="1.1" xmlns="http://www.w3.org/2000/svg" xmlns:xlink="http://www.w3.org/1999/xlink" xml:space="preserve" xmlns:serif="http://www.serif.com/" style="fill-rule:evenodd;clip-rule:evenodd;stroke-linejoin:round;stroke-miterlimit:1.41421;"><path d="M20.25,1l0,2.444l-2.75,0l0,-2.444l-11,0l0,2.444l-2.75,0l0,-2.444l-2.75,0l0,22l2.75,0l0,-2.444l2.75,0l0,2.444l11,0l0,-2.444l2.75,0l0,2.444l2.75,0l0,-22l-2.75,0Zm-13.75,17.111l-2.75,0l0,-2.444l2.75,0l0,2.444Zm0,-4.889l-2.75,0l0,-2.444l2.75,0l0,2.444Zm0,-4.889l-2.75,0l0,-2.444l2.75,0l0,2.444Zm13.75,9.778l-2.75,0l0,-2.444l2.75,0l0,2.444Zm0,-4.889l-2.75,0l0,-2.444l2.75,0l0,2.444Zm0,-4.889l-2.75,0l0,-2.444l2.75,0l0,2.444Z" style="fill:#bebebe;fill-rule:nonzero;"/><rect x="0" y="0" width="24" height="24" style="fill:none;"/></svg>