<?xml version="1.0" encoding="UTF-8" standalone="no"?>
<!DOCTYPE svg PUBLIC "-//W3C//DTD SVG 1.1//EN" "http://www.w3.org/Graphics/SVG/1.1/DTD/svg11.dtd">
<svg width="100%" height="100%" viewBox="0 0 19 19" version="1.1" xmlns="http://www.w3.org/2000/svg" xmlns:xlink="http://www.w3.org/1999/xlink" xml:space="preserve" style="fill-rule:evenodd;clip-rule:evenodd;stroke-linejoin:round;stroke-miterlimit:1.41421;">
    <g transform="matrix(1,0,0,1,-790.455,-226.484)">
        <g transform="matrix(1,0,0,1,176,2.65872)">
            <g id="settings" transform="matrix(0.92613,0,0,0.92613,612.35,221.975)">
                <path d="M11.999,15.498C10.066,15.498 8.499,13.931 8.499,11.998C8.499,10.065 10.066,8.498 11.999,8.498C13.932,8.498 15.499,10.065 15.499,11.998C15.499,13.931 13.932,15.498 11.999,15.498ZM19.428,12.974C19.47,12.653 19.498,12.329 19.498,11.998C19.498,11.667 19.47,11.343 19.428,11.022L21.541,9.368C21.729,9.216 21.784,8.946 21.659,8.73L19.659,5.266C19.535,5.05 19.273,4.962 19.047,5.049L16.558,6.052C16.042,5.656 15.477,5.321 14.868,5.069L14.493,2.419C14.455,2.181 14.248,1.998 13.999,1.998L9.999,1.998C9.749,1.998 9.543,2.181 9.505,2.419L9.13,5.068C8.52,5.321 7.955,5.656 7.439,6.052L4.951,5.049C4.725,4.962 4.463,5.05 4.339,5.266L2.339,8.73C2.214,8.946 2.269,9.216 2.457,9.368L4.569,11.022C4.527,11.342 4.499,11.667 4.499,11.998C4.499,12.329 4.527,12.654 4.569,12.974L2.457,14.627C2.269,14.78 2.214,15.05 2.339,15.266L4.339,18.73C4.463,18.946 4.725,19.034 4.951,18.947L7.44,17.944C7.956,18.34 8.521,18.675 9.13,18.927L9.505,21.577C9.543,21.815 9.749,21.998 9.999,21.998L13.999,21.998C14.248,21.998 14.455,21.815 14.493,21.577L14.868,18.927C15.476,18.674 16.041,18.34 16.557,17.943L19.047,18.947C19.273,19.034 19.535,18.946 19.659,18.73L21.659,15.266C21.784,15.05 21.729,14.78 21.541,14.627L19.428,12.974Z" style="fill:rgb(190,190,190);fill-rule:nonzero;"/>
            </g>
        </g>
    </g>
</svg>
