<?xml version="1.0" encoding="iso-8859-1"?>
<!-- Generator: Adobe Illustrator 19.0.0, SVG Export Plug-In . SVG Version: 6.00 Build 0)  -->
<svg version="1.1" id="Capa_1" xmlns="http://www.w3.org/2000/svg" xmlns:xlink="http://www.w3.org/1999/xlink" x="0px" y="0px"
	 viewBox="0 0 469.333 469.333" style="enable-background:new 0 0 469.333 469.333;" xml:space="preserve">
<g transform="matrix(1.25 0 0 -1.25 0 45)">
	<g>
		<g>
			<path style="fill:#D2A077;" d="M276.371-147.467l-91.022-0.239c-12.561,0-21.333-8.533-21.333-21.094s8.772-21.094,21.333-21.094
				l59.915-0.239c0,0,10.012,1.183,10.012-7.111c0-3.14-4.21-7.111-7.35-7.111c0,0-51.2,2.367-55.467-78.222
				c-0.171-3.14-3.971-7.111-7.111-7.111c-3.14,0-7.111,3.971-7.111,7.111c0,34.247,15.883,67.561,32.62,77.642
				c-10.354,0-19.467,0.58-25.509,0.58c-11.378,0-16.361,3.8-16.361,3.789c-1.661-2.628-6.394-14.45-30.572-14.45
				c-27.022,0-34.372,26.874-34.372,34.361v57.128l1.661,0.239c0,9.227,5.518,17.146,13.426,20.708l-1.104-75.696
				c0-12.572,9.25-23.711,21.811-23.711c8.59,0,14.37,3.88,18.25,10.911c-5.211,5.985-7.703,12.88-7.703,21.447
				c0,10.081,3.618,20.423,10.547,26.67l0.478,30.811l1.183,0.239c0,9.227,5.518,17.146,13.426,20.708l-0.626-32.085l-0.239-11.617
				c3.584,1.263,6.417,1.661,10.433,1.661l32.711-0.239v33.189l1.183-0.239v102.4c0,9.227,5.518,17.146,13.426,20.708l-0.387-155.42
				h41.483l2.367-1.82c10.49,0,19.604-22.756,19.604-22.756s0.023-0.148,0.023-0.171
				C293.221-152.826,287.385-147.467,276.371-147.467"/>
			<g>
				<path style="fill:#F3D2A2;" d="M162.593-143.519c-6.929-6.246-11.378-15.201-11.378-25.281c0-8.567,3.265-16.293,8.476-22.289
					c-3.88-7.02-11.264-11.844-19.854-11.844c-12.561,0-22.756,10.194-22.756,22.756v68.267c0,3.334,0.762,6.485,2.048,9.33
					c3.561,7.908,11.48,13.426,20.708,13.426c12.561,0,22.756-10.183,22.756-22.756v-11.378V-143.519z"/>
				<path style="fill:#F3D2A2;" d="M60.193-20.889c0,12.561,10.194,22.756,22.756,22.756s22.756-10.194,22.756-22.756v-102.4
					v-22.756v-34.133c0-7.487,2.469-14.359,6.576-19.945c0.319-0.421,0.694-0.774,1.013-1.161c1.183-1.468,2.389-2.901,3.777-4.164
					c0.375-0.307,0.751-0.614,1.138-0.933c1.354-1.115,2.765-2.139,4.289-3.049c0.751-0.444,1.49-0.853,2.287-1.24
					c1.582-0.785,3.243-1.422,4.949-1.957c0.774-0.228,1.49-0.512,2.276-0.694c2.526-0.603,5.131-0.99,7.828-0.99
					c2.685,0,5.245,0.41,7.748,1.013c0.865,0.193,1.684,0.478,2.526,0.751c1.559,0.501,3.061,1.126,4.506,1.832
					c0.933,0.455,1.855,0.876,2.731,1.411c1.866,1.138,3.618,2.423,5.234,3.88c2.298,2.094,4.369,4.403,6.03,7.031
					c-0.011,0.011-0.023,0.023-0.034,0.034c2.287-1.308,5.393-4.574,16.771-4.574h28.865
					c-20.571-15.531-34.554-45.397-34.554-79.644c0-3.14,2.549-5.689,5.689-5.689c3.14,0,5.689,2.549,5.689,5.689
					c0,43.907,24.883,79.644,55.467,79.644h1.422c3.14,0,5.689,2.549,5.689,5.689c0,3.14-2.549,5.689-5.689,5.689H230.86h-45.511
					c-12.561,0-22.756,10.194-22.756,22.756s10.194,22.756,22.756,22.756h91.022c11.014,0,16.85-6.781,19.627-11.548
					c1.434-2.458,2.105-4.426,2.139-4.551l12.368-40.789c1.172-3.812,5.45-21.288,4.676-24.929
					c0-54.716-53.43-111.605-118.454-111.605c-74.377,0-136.533,59.733-136.533,136.533C60.284-203.013,60.193-20.889,60.193-20.889
					"/>
				<path style="fill:#F3D2A2;" d="M219.482-134.667h-34.133c-4.005,0-7.794-0.819-11.378-2.094v13.471v22.756
					c0,3.334,0.762,6.474,2.048,9.33c3.561,7.908,11.48,13.426,20.708,13.426c12.561,0,22.756-10.194,22.756-22.756v-22.756
					V-134.667z"/>
				<path style="fill:#F3D2A2;" d="M230.86-134.667V13.244c0,3.334,0.762,6.474,2.048,9.33C236.469,30.482,244.388,36,253.615,36
					c12.561,0,22.756-10.194,22.756-22.756v-136.533v-11.378h-11.378H230.86z"/>
			</g>
		</g>
	</g>
</g>
<g>
</g>
<g>
</g>
<g>
</g>
<g>
</g>
<g>
</g>
<g>
</g>
<g>
</g>
<g>
</g>
<g>
</g>
<g>
</g>
<g>
</g>
<g>
</g>
<g>
</g>
<g>
</g>
<g>
</g>
</svg>
